<svg width="24" height="24" viewBox="0 0 24 24" fill="currentColor" xmlns="http://www.w3.org/2000/svg">
<path fill-rule="evenodd" clip-rule="evenodd" d="M15.2816 4.24495C15.9337 3.40897 16.4311 2.20998 16.2542 1C15.1822 1.077 13.9333 1.75897 13.1928 2.63896C12.5297 3.44194 11.9881 4.64092 12.1981 5.8069C13.3696 5.8509 14.5854 5.14693 15.2816 4.24495ZM21.25 17.2686C20.7527 18.3796 20.5095 18.8856 19.8574 19.8756C18.9512 21.2616 17.6691 22.9775 16.0666 22.9995C15.4325 23.0102 15.0179 22.8233 14.5687 22.6208C14.556 22.6151 14.5432 22.6093 14.5304 22.6035C14.511 22.5949 14.4915 22.5862 14.472 22.5774C13.9471 22.3422 13.3773 22.0869 12.3863 22.0975C11.3634 22.0975 10.7784 22.359 10.239 22.6L10.2311 22.6035C10.2185 22.6091 10.206 22.6146 10.1935 22.6201C9.73292 22.8229 9.30731 23.0102 8.66171 22.9995C7.08127 22.9775 5.86555 21.4265 4.95928 20.0406C2.42836 16.1686 2.15205 11.6367 3.72145 9.21679C4.8377 7.50082 6.59497 6.49984 8.24173 6.49984C9.12589 6.49984 9.83323 6.75285 10.5074 6.99484L10.5134 6.99698C11.1301 7.21619 11.7142 7.42382 12.3752 7.42382C12.9941 7.42382 13.4915 7.23684 14.0441 7.02784C14.6961 6.77485 15.4256 6.49984 16.4866 6.49984C17.9565 6.49984 19.5148 7.30281 20.62 8.68879C16.995 10.6797 17.5807 15.8827 21.25 17.2686Z" fill="currentColor"/>
</svg>
