<svg width="1921" height="4203" viewBox="0 0 1921 4203" fill="none" xmlns="http://www.w3.org/2000/svg">
<path d="M1 487.838L389.425 879.543C545.142 1036.57 798.735 1037.45 955.532 881.497L1840.8 1L1 1L1 487.838Z" fill="url(#paint0_linear_3968_72134)"/>
<path d="M1 534.132L366.827 902.888C535.025 1072.43 808.878 1073.33 978.188 904.9L1886.8 1" stroke="url(#paint1_linear_3968_72134)" stroke-linecap="square" stroke-dasharray="7.11 7.11"/>
<path d="M59.9609 497.308L168.433 605.197C332.386 768.268 597.769 766.638 759.705 601.565L1348.86 1L1.00061 1V355.505C1.00061 408.736 22.2202 459.77 59.9609 497.308Z" fill="url(#paint2_linear_3968_72134)"/>
<path d="M169.315 604.311L60.8424 496.421C23.3376 459.118 2.25061 408.403 2.25061 355.505V2.25L1345.88 2.25L758.813 600.689C597.362 765.267 332.775 766.892 169.315 604.311Z" stroke="url(#paint3_linear_3968_72134)" stroke-opacity="0.28" stroke-width="2.5"/>
<path d="M169.315 604.311L60.8424 496.421C23.3376 459.118 2.25061 408.403 2.25061 355.505V2.25L1345.88 2.25L758.813 600.689C597.362 765.267 332.775 766.892 169.315 604.311Z" stroke="url(#paint4_linear_3968_72134)" stroke-opacity="0.28" stroke-width="2.5"/>
<circle cx="161" cy="696" r="6" fill="#0175FF" stroke="white" stroke-width="4"/>
<path d="M1 4201.36L999.274 3192.91C1073.41 3118.01 1115 3016.89 1115 2911.5V1218.69C1115 1112.3 1157.38 1010.3 1232.76 935.24L1761.26 409" stroke="url(#paint5_linear_3968_72134)" stroke-linecap="square" stroke-dasharray="7.11 7.11"/>
<circle cx="1761" cy="409" r="6" fill="#0175FF" stroke="white" stroke-width="4"/>
<defs>
<linearGradient id="paint0_linear_3968_72134" x1="1.00936" y1="304" x2="1926.51" y2="304" gradientUnits="userSpaceOnUse">
<stop stop-color="#0057FF" stop-opacity="0"/>
<stop offset="0.237486" stop-color="#0057FF"/>
<stop offset="1" stop-color="#0057FF"/>
</linearGradient>
<linearGradient id="paint1_linear_3968_72134" x1="1927" y1="406.5" x2="1.00001" y2="406.5" gradientUnits="userSpaceOnUse">
<stop stop-color="#67ACFF"/>
<stop offset="0.920469" stop-color="#67ACFF"/>
<stop offset="0.920983" stop-color="#67ACFF" stop-opacity="0"/>
</linearGradient>
<linearGradient id="paint2_linear_3968_72134" x1="502.501" y1="860" x2="1247.32" y2="-97.5373" gradientUnits="userSpaceOnUse">
<stop stop-color="#0185FF"/>
<stop offset="0.139507" stop-color="#0167FF" stop-opacity="0"/>
<stop offset="0.251246" stop-color="#0167FF" stop-opacity="0"/>
<stop offset="1" stop-color="#0185FF"/>
</linearGradient>
<linearGradient id="paint3_linear_3968_72134" x1="492.001" y1="731" x2="339.731" y2="197.858" gradientUnits="userSpaceOnUse">
<stop stop-color="white"/>
<stop offset="0.755281" stop-color="white" stop-opacity="0"/>
</linearGradient>
<linearGradient id="paint4_linear_3968_72134" x1="68.5005" y1="500" x2="68.5005" y2="0.99997" gradientUnits="userSpaceOnUse">
<stop stop-color="white" stop-opacity="0"/>
<stop offset="0.313458" stop-color="white"/>
<stop offset="0.659927" stop-color="white" stop-opacity="0.2"/>
<stop offset="1" stop-color="white" stop-opacity="0"/>
</linearGradient>
<linearGradient id="paint5_linear_3968_72134" x1="960.75" y1="237" x2="960.75" y2="4171" gradientUnits="userSpaceOnUse">
<stop offset="0.044232" stop-color="#67ACFF" stop-opacity="0"/>
<stop offset="0.0457232" stop-color="#67ACFF"/>
<stop offset="0.148507" stop-color="#67ACFF"/>
<stop offset="0.429375" stop-color="#67ACFF" stop-opacity="0.2"/>
<stop offset="0.805548" stop-color="#67ACFF"/>
<stop offset="1" stop-color="#67ACFF" stop-opacity="0"/>
</linearGradient>
</defs>
</svg>
