<svg width="24" height="24" viewBox="0 0 24 24" fill="currentColor" xmlns="http://www.w3.org/2000/svg">
<path fill-rule="evenodd" clip-rule="evenodd" d="M11.9993 5.79309C10.5924 5.79309 9.35102 6.16552 8.2338 7.03448C7.11653 7.90345 6.33034 9.02067 5.99931 10.3448L2.52344 4.63448C3.59931 3.14484 5.13039 1.98619 6.74416 1.2C8.35792 0.413813 10.1373 0 11.9993 0C14.151 0 16.1373 0.537937 17.9579 1.61377C19.7786 2.64825 21.2269 3.97242 22.3028 5.79309H11.9993ZM8.68964 17.131C9.68278 17.7931 10.8 18.1241 12 18.1241C12.7448 18.1241 13.3655 17.9586 13.6966 17.8345L10.2207 23.8759C7.32413 23.4207 4.88278 22.0965 2.93794 19.8621C0.993094 17.6276 0 15.0207 0 12C0 9.88964 0.455156 7.86206 1.48964 6L6.45516 14.6069C6.9517 15.6414 7.69655 16.469 8.68964 17.131ZM23.0905 7.49023H16.1388C17.3388 8.69023 18.1664 10.2627 18.1664 12.0006C18.1664 13.2834 17.794 14.442 17.0905 15.5178L12.125 24.0006C15.394 23.9592 18.2078 22.8006 20.525 20.442C22.8422 18.0834 24.0009 15.2696 24.0009 12.0006C24.0009 10.4696 23.7526 8.85575 23.0905 7.49023ZM16.5487 12.0009C16.5487 9.51819 14.4798 7.44922 11.997 7.44922C9.51423 7.44922 7.44531 9.51814 7.44531 12.0009C7.44531 14.4837 9.51423 16.5526 11.997 16.5526C14.4798 16.5526 16.5487 14.4837 16.5487 12.0009Z" fill="currentColor"/>
</svg>
