<svg width="24" height="24" viewBox="0 0 24 24" fill="none" xmlns="http://www.w3.org/2000/svg">
<g opacity="0.4">
<path fill-rule="evenodd" clip-rule="evenodd" d="M8.13388 6.36612C7.64573 5.87796 6.85427 5.87796 6.36612 6.36612C5.87796 6.85427 5.87796 7.64573 6.36612 8.13388L10.2327 12.0004L6.36612 15.867C5.87796 16.3552 5.87796 17.1466 6.36612 17.6348C6.85427 18.1229 7.64573 18.1229 8.13388 17.6348L12.0004 13.7682L15.867 17.6348C16.3552 18.1229 17.1466 18.1229 17.6348 17.6348C18.1229 17.1466 18.1229 16.3552 17.6348 15.867L13.7682 12.0004L17.6348 8.13388C18.1229 7.64573 18.1229 6.85427 17.6348 6.36612C17.1466 5.87796 16.3552 5.87796 15.867 6.36612L12.0004 10.2327L8.13388 6.36612Z" fill="white"/>
</g>
</svg>
