<svg width="44" height="44" viewBox="0 0 44 44" fill="none" xmlns="http://www.w3.org/2000/svg">
<rect width="44" height="44" rx="22" fill="white"/>
<path opacity="0.2" fill-rule="evenodd" clip-rule="evenodd" d="M19.4993 12.0577H22.001H24.5028C25.5069 12.0577 26.3426 11.5173 27.1444 10.4211C27.4224 10.041 27.7976 9.47811 28.2145 8.85269C28.9999 7.67448 29.933 6.27449 30.6427 5.45729C31.7291 4.2063 32.7948 3.00781 34.1444 3.00781C35.494 3.00781 36.7823 4.12462 36.7823 8.19916C36.7823 12.8529 35.5429 15.8675 34.641 18.061C33.787 20.1383 33.2357 21.479 34.3271 22.7778C35.0097 23.59 37.268 26.6866 34.8988 31.1368C32.3295 35.9627 25.7852 41.5079 22.001 41.5079C18.2168 41.5079 11.6725 35.9627 9.10325 31.1368C6.73402 26.6866 8.9924 23.59 9.67493 22.7778C10.7663 21.479 10.2151 20.1383 9.36101 18.061C8.45919 15.8675 7.21973 12.8529 7.21973 8.19916C7.21973 4.12462 8.5081 3.00781 9.85765 3.00781C11.2072 3.00781 12.273 4.2063 13.3593 5.45729C14.069 6.2745 15.0022 7.67449 15.7876 8.8527C16.2044 9.47812 16.5797 10.041 16.8577 10.4211C17.6595 11.5173 18.4951 12.0577 19.4993 12.0577Z" fill="url(#paint0_linear_5148_65257)"/>
<mask id="mask0_5148_65257" style="mask-type:alpha" maskUnits="userSpaceOnUse" x="7" y="0" width="15" height="39">
<path d="M21.9902 9.04991C21.2116 9.04991 20.4926 9.04991 19.4885 9.04991C18.4843 9.04991 17.6487 8.50947 16.8469 7.41332C16.0451 6.31718 14.4349 3.70047 13.3486 2.44948C12.2622 1.19848 11.1964 0 9.84686 0C8.49731 0 7.20894 1.11681 7.20894 5.19135C7.20894 14.2525 11.9079 17.0998 9.66414 19.77C8.98161 20.5822 6.72323 23.6788 9.09246 28.1289C11.6617 32.9549 18.206 38.5001 21.9902 38.5001C21.9902 36.4059 21.9902 30.2684 21.9902 20.0877C21.9902 14.3027 21.9902 10.6234 21.9902 9.04991Z" fill="white"/>
</mask>
<g mask="url(#mask0_5148_65257)">
<mask id="mask1_5148_65257" style="mask-type:alpha" maskUnits="userSpaceOnUse" x="7" y="0" width="15" height="39">
<path d="M21.9778 9.04991C21.1991 9.04991 20.4802 9.04991 19.476 9.04991C18.4719 9.04991 17.6363 8.50947 16.8344 7.41332C16.0326 6.31718 14.4225 3.70047 13.3361 2.44948C12.2497 1.19848 11.184 0 9.83441 0C8.48486 0 7.19649 1.11681 7.19649 5.19135C7.19649 14.2525 11.8955 17.0998 9.65169 19.77C8.96916 20.5822 6.71078 23.6788 9.08001 28.1289C11.6493 32.9549 18.1936 38.5001 21.9778 38.5001C21.9778 36.4059 21.9778 30.2684 21.9778 20.0877C21.9778 14.3027 21.9778 10.6234 21.9778 9.04991Z" fill="white"/>
</mask>
<g mask="url(#mask1_5148_65257)">
<path d="M21.9834 9.04991C21.2048 9.04991 20.4858 9.04991 19.4816 9.04991C18.4775 9.04991 17.6419 8.50947 16.8401 7.41332C16.0383 6.31718 14.4281 3.70047 13.3417 2.44948C12.2553 1.19848 11.1896 0 9.84002 0C8.49047 0 7.2021 1.11681 7.2021 5.19135C7.2021 14.2525 11.9011 17.0998 9.65731 19.77C8.97477 20.5822 6.7164 23.6788 9.08562 28.1289C11.6549 32.9549 18.1992 38.5001 21.9834 38.5001C21.9834 36.4059 21.9834 30.2684 21.9834 20.0877C21.9834 14.3027 21.9834 10.6234 21.9834 9.04991Z" fill="url(#paint1_radial_5148_65257)"/>
<path opacity="0.6" d="M22.0498 9.03906C17.4469 9.03906 14.9688 10.5428 12.42 13.5124C12.2541 13.7029 12.097 13.8923 11.9471 14.0786C12.1053 13.8843 12.2628 13.6956 12.42 13.5124C14.1377 11.5403 16.7943 9.45226 22.0498 9.45226V9.03906Z" fill="url(#paint2_linear_5148_65257)"/>
<path opacity="0.6" d="M10.6917 18.5452C10.8562 17.6003 9.61024 15.4288 9.25169 14.8086L8.12842 23.0389C9.28014 19.553 10.4519 19.9223 10.6917 18.5452Z" fill="url(#paint3_linear_5148_65257)"/>
<mask id="mask2_5148_65257" style="mask-type:alpha" maskUnits="userSpaceOnUse" x="8" y="9" width="14" height="30">
<path d="M21.988 9.78711C20.5376 9.78711 17.5408 10.2141 19.1901 12.1522C20.8394 14.0904 20.8695 15.1643 20.8695 15.9198C20.8695 18.6407 18.1754 21.0515 15.9371 21.0515C14.5482 21.0515 13.7902 20.2648 12.9753 19.4271C11.6494 18.0644 9.6774 20.1644 9.00259 21.5804C7.83829 24.0234 8.30671 27.4635 11.7328 31.8957C15.1589 36.3279 18.095 38.9382 21.988 38.9382C21.988 34.5077 21.988 11.1087 21.988 9.78711Z" fill="white"/>
</mask>
<g mask="url(#mask2_5148_65257)">
<path d="M21.988 9.78711C20.5376 9.78711 17.5408 10.2141 19.1901 12.1522C20.8394 14.0904 20.8695 15.1643 20.8695 15.9198C20.8695 18.6407 18.1754 21.0515 15.9371 21.0515C14.5482 21.0515 13.7902 20.2648 12.9753 19.4271C11.6494 18.0644 9.6774 20.1644 9.00259 21.5804C7.83829 24.0234 8.30671 27.4635 11.7328 31.8957C15.1589 36.3279 18.095 38.9382 21.988 38.9382C21.988 34.5077 21.988 11.1087 21.988 9.78711Z" fill="#FFEAD7"/>
</g>
<path opacity="0.6" fill-rule="evenodd" clip-rule="evenodd" d="M21.9822 36.2415C16.6568 34.8837 10.7875 28.2314 10.7875 24.8554C10.7875 21.4794 13.0901 20.4007 14.1546 16.771C15.2192 13.1413 18.7501 11.7539 21.9822 11.7539C22.4837 11.7539 23.6304 11.7539 25.4221 11.7539L25.2301 36.8485C24.191 36.731 23.1084 36.5286 21.9822 36.2415Z" fill="url(#paint4_linear_5148_65257)"/>
</g>
<path opacity="0.1" fill-rule="evenodd" clip-rule="evenodd" d="M14.7522 23.1128C15.5304 23.2548 15.8469 26.1737 16.6262 27.759C17.4192 29.3719 19.4077 29.5885 22.0063 29.5885C22.0063 29.1886 22.0063 28.6951 22.0063 28.1081C20.0633 28.4404 18.5547 27.8832 17.4806 26.4366C16.0924 24.5672 15.5345 22.7871 14.9227 22.7871C14.4759 22.7871 14.2487 23.021 14.7522 23.1128Z" fill="url(#paint5_linear_5148_65257)"/>
<path opacity="0.1" fill-rule="evenodd" clip-rule="evenodd" d="M18.9018 28.4258C18.9018 30.7219 18.6344 33.814 22.0099 33.814C22.3637 33.814 23.0742 33.814 24.1414 33.814V28.4258H22.0099C20.7296 28.4258 19.6935 28.4258 18.9018 28.4258Z" fill="url(#paint6_linear_5148_65257)"/>
<mask id="mask3_5148_65257" style="mask-type:alpha" maskUnits="userSpaceOnUse" x="14" y="22" width="8" height="7">
<path d="M21.9998 26.8398C21.9998 27.182 21.8131 27.7063 20.6383 27.7063C19.4634 27.7063 18.2472 27.056 17.3585 25.7231C16.4698 24.3902 16.0434 23.603 15.5494 22.851C14.9757 21.9776 14.4409 22.3237 14.3681 22.5768C14.2954 22.83 14.5961 23.1645 15.0083 23.1645C15.3217 23.1645 15.5241 23.7023 15.8927 24.3463C16.8007 25.9329 16.8501 28.4999 19.7999 28.4999C20.484 28.4999 21.2173 28.4999 21.9998 28.4999C21.9998 27.9708 21.9998 27.4175 21.9998 26.8398Z" fill="white"/>
</mask>
<g mask="url(#mask3_5148_65257)">
<path opacity="0.8" d="M22.0063 26.8398C22.0063 27.182 21.8197 27.7063 20.6449 27.7063C19.47 27.7063 18.2538 27.056 17.3651 25.7231C16.4764 24.3902 16.05 23.603 15.556 22.851C14.9822 21.9776 14.4475 22.3237 14.3747 22.5768C14.3019 22.83 14.6027 23.1645 15.0148 23.1645C15.3283 23.1645 15.5307 23.7023 15.8992 24.3463C16.8073 25.9329 16.8567 28.4999 19.8065 28.4999C20.4906 28.4999 21.2239 28.4999 22.0063 28.4999C22.0063 27.9708 22.0063 27.4175 22.0063 26.8398Z" fill="url(#paint7_linear_5148_65257)"/>
<path opacity="0.2" d="M14.5305 23.2221C15.0669 22.9395 15.2706 22.8216 15.9777 24.0319C16.6847 25.2422 17.4173 28.1095 19.5596 28.1095C20.9879 28.1095 21.9865 28.1095 22.5554 28.1095" stroke="url(#paint8_linear_5148_65257)" stroke-width="0.257903"/>
</g>
<mask id="mask4_5148_65257" style="mask-type:alpha" maskUnits="userSpaceOnUse" x="18" y="26" width="4" height="8">
<path d="M21.9692 26.9375C21.9115 27.2959 21.6698 27.5272 21.2441 27.6314C20.353 27.8494 19.3059 27.5121 18.7622 27.1475C19.4894 27.8209 19.4894 28.3101 19.4894 28.7667C19.4894 29.1196 19.4894 29.494 19.4894 29.8899C19.4894 31.2523 19.8514 33.5131 21.9692 33.5131C21.9692 32.9746 21.9692 30.7827 21.9692 26.9375Z" fill="white"/>
</mask>
<g mask="url(#mask4_5148_65257)">
<path d="M21.9746 26.9375C21.9169 27.2959 21.6752 27.5272 21.2495 27.6314C20.3583 27.8494 19.3113 27.5121 18.7676 27.1475C19.4947 27.8209 19.4947 28.3101 19.4947 28.7667C19.4947 29.1196 19.4947 29.494 19.4947 29.8899C19.4947 31.2523 19.8568 33.5131 21.9746 33.5131C21.9746 32.9746 21.9746 30.7827 21.9746 26.9375Z" fill="url(#paint9_linear_5148_65257)"/>
<path opacity="0.2" fill-rule="evenodd" clip-rule="evenodd" d="M21.9746 26.7383H19.5033C19.5033 26.9567 19.5033 27.1969 19.5033 27.4591C19.5033 27.9617 20.1286 28.2351 20.6567 28.4077C21.8545 28.7993 21.4637 30.0056 21.9746 30.0056C21.9746 29.7066 21.9746 28.6175 21.9746 26.7383Z" fill="url(#paint10_linear_5148_65257)"/>
<path opacity="0.2" fill-rule="evenodd" clip-rule="evenodd" d="M19.4956 28.5692C19.4956 30.2762 19.7576 31.2923 20.0423 31.825C21.1108 33.8237 21.4549 32.4762 21.3861 31.0411C21.2856 28.9451 20.7778 28.9451 20.1433 28.4933C19.8789 28.3051 19.6291 28.1069 19.507 27.8842C19.2915 27.4913 19.2941 27.1523 19.1022 27.1523C18.9542 27.1523 18.7908 27.162 18.7712 27.1523C18.7712 27.6375 19.3017 27.8567 19.4956 28.5692Z" fill="white"/>
<g opacity="0.4">
<path fill-rule="evenodd" clip-rule="evenodd" d="M18.1336 26.3524C18.5744 26.9568 20.2875 29.631 22.4414 28.3722L18.1336 26.3524Z" fill="black"/>
<path d="M18.1336 26.3524C18.5744 26.9568 20.2875 29.631 22.4414 28.3722V26.293L18.1336 26.3524Z" fill="black"/>
</g>
</g>
<mask id="mask5_5148_65257" style="mask-type:alpha" maskUnits="userSpaceOnUse" x="19" y="22" width="3" height="5">
<path d="M21.988 22.2852C20.8967 22.2852 19.289 22.5905 19.289 24.0268C19.289 25.4632 20.5483 26.229 21.1343 26.229C21.7203 26.229 21.6988 26.6282 21.988 26.6282C21.988 25.9225 21.988 23.1467 21.988 22.2852Z" fill="white"/>
</mask>
<g mask="url(#mask5_5148_65257)">
<path d="M21.9883 22.2871C20.897 22.2871 19.2893 22.5924 19.2893 24.0288C19.2893 25.4651 20.5486 26.231 21.1346 26.231C21.7205 26.231 21.6991 26.6302 21.9883 26.6302C21.9883 25.9245 21.9883 23.1487 21.9883 22.2871Z" fill="#414143"/>
<path opacity="0.1" fill-rule="evenodd" clip-rule="evenodd" d="M21.9663 22.5587C21.4426 22.5587 21.1729 22.6086 20.6141 22.7845C20.1006 22.9462 19.7403 22.7449 20.5421 22.4906C20.9699 22.3549 21.4446 22.2871 21.9663 22.2871C21.9663 22.6294 21.9663 22.446 21.9663 22.5587Z" fill="white"/>
<path opacity="0.4" fill-rule="evenodd" clip-rule="evenodd" d="M21.9862 22.7129C21.1251 22.7129 19.8564 22.9593 19.8564 24.1183C19.8564 25.2774 20.8501 25.8954 21.3125 25.8954C21.775 25.8954 21.758 26.2175 21.9862 26.2175C24.6852 26.2175 24.6852 22.7126 21.9862 22.7129Z" fill="url(#paint11_linear_5148_65257)"/>
</g>
<path opacity="0.2" fill-rule="evenodd" clip-rule="evenodd" d="M21.4041 24.8016C21.4041 24.9771 21.2917 25.4313 20.7932 25.4313C20.1545 25.4313 19.6476 25.3156 19.3908 24.7656C19.5441 24.8637 20.381 25.3007 20.6931 24.6691C20.776 24.5014 20.8663 24.4355 21.0278 24.4355C21.2774 24.4355 21.4041 24.6358 21.4041 24.8016Z" fill="url(#paint12_linear_5148_65257)"/>
<path opacity="0.2" fill-rule="evenodd" clip-rule="evenodd" d="M16.5619 19.7479C15.5032 19.7479 14.645 18.9251 14.645 17.9101C14.645 16.8951 15.5032 16.0723 16.5619 16.0723C17.6205 16.0723 18.4788 16.8951 18.4788 17.9101C18.4788 18.9251 17.6205 19.7479 16.5619 19.7479Z" fill="url(#paint13_radial_5148_65257)"/>
<mask id="mask6_5148_65257" style="mask-type:alpha" maskUnits="userSpaceOnUse" x="14" y="15" width="5" height="4">
<path d="M16.5746 18.8924C15.5159 18.8924 14.6577 18.0696 14.6577 17.0546C14.6577 16.0396 15.5159 15.2168 16.5746 15.2168C17.6332 15.2168 18.4915 16.0396 18.4915 17.0546C18.4915 18.0696 17.6332 18.8924 16.5746 18.8924Z" fill="white"/>
</mask>
<g mask="url(#mask6_5148_65257)">
<path d="M16.5689 18.8924C15.5103 18.8924 14.652 18.0696 14.652 17.0546C14.652 16.0396 15.5103 15.2168 16.5689 15.2168C17.6276 15.2168 18.4858 16.0396 18.4858 17.0546C18.4858 18.0696 17.6276 18.8924 16.5689 18.8924Z" fill="url(#paint14_linear_5148_65257)"/>
<g filter="url(#filter0_f_5148_65257)">
<path fill-rule="evenodd" clip-rule="evenodd" d="M16.5657 18.4654C15.7423 18.4654 15.0748 17.8339 15.0748 17.0549C15.0748 16.276 15.7423 15.6445 16.5657 15.6445C17.3891 15.6445 18.0566 16.276 18.0566 17.0549C18.0566 17.8339 17.3891 18.4654 16.5657 18.4654Z" stroke="url(#paint15_linear_5148_65257)" stroke-width="0.343871"/>
</g>
</g>
<mask id="mask7_5148_65257" style="mask-type:alpha" maskUnits="userSpaceOnUse" x="15" y="16" width="4" height="3">
<path d="M16.6967 18.7206C15.9439 18.7206 15.3336 18.1466 15.3336 17.4384C15.3336 16.7303 15.9439 16.1562 16.6967 16.1562C17.4495 16.1562 18.0598 16.7303 18.0598 17.4384C18.0598 18.1466 17.4495 18.7206 16.6967 18.7206Z" fill="white"/>
</mask>
<g mask="url(#mask7_5148_65257)">
<path opacity="0.8" d="M16.6869 18.7206C15.9341 18.7206 15.3238 18.1466 15.3238 17.4384C15.3238 16.7303 15.9341 16.1562 16.6869 16.1562C17.4398 16.1562 18.05 16.7303 18.05 17.4384C18.05 18.1466 17.4398 18.7206 16.6869 18.7206Z" fill="black"/>
<path opacity="0.1" fill-rule="evenodd" clip-rule="evenodd" d="M16.4351 18.1215C16.0587 18.1215 15.7536 17.8918 15.7536 17.6086C15.7536 17.3253 16.0587 17.0957 16.4351 17.0957C16.8116 17.0957 17.1167 17.3253 17.1167 17.6086C17.1167 17.8918 16.8116 18.1215 16.4351 18.1215Z" fill="white"/>
<path fill-rule="evenodd" clip-rule="evenodd" d="M17.0333 17.3538C16.798 17.3538 16.6073 17.2007 16.6073 17.0118C16.6073 16.823 16.798 16.6699 17.0333 16.6699C17.2685 16.6699 17.4592 16.823 17.4592 17.0118C17.4592 17.2007 17.2685 17.3538 17.0333 17.3538Z" fill="url(#paint16_linear_5148_65257)"/>
</g>
<mask id="mask8_5148_65257" style="mask-type:alpha" maskUnits="userSpaceOnUse" x="7" y="1" width="9" height="14">
<path d="M15.1756 6.7199C14.0102 3.78633 11.7932 0.277544 9.10333 1.24065C7.5977 1.77974 7.47542 4.49699 7.84461 7.75575C8.02434 9.34228 8.497 10.9718 8.96402 12.315C10.3781 16.3819 11.6357 12.6486 12.4904 11.5517C13.7335 9.95642 16.8011 10.8116 15.1756 6.7199Z" fill="white"/>
</mask>
<g mask="url(#mask8_5148_65257)">
<path d="M15.1756 6.7199C14.0102 3.78633 11.7932 0.277544 9.10333 1.24065C7.5977 1.77974 7.47542 4.49699 7.84461 7.75575C8.02434 9.34228 8.497 10.9718 8.96402 12.315C10.3781 16.3819 11.6357 12.6486 12.4904 11.5517C13.7335 9.95642 16.8011 10.8116 15.1756 6.7199Z" fill="url(#paint17_linear_5148_65257)"/>
<path opacity="0.2" fill-rule="evenodd" clip-rule="evenodd" d="M14.1078 10.5162C13.3037 6.42146 10.7417 3.35964 10.1001 3.59035C9.45858 3.82105 9.88851 8.49223 11.654 12.894C13.4195 17.2958 14.9119 14.6109 14.1078 10.5162Z" fill="#A57163"/>
</g>
<g opacity="0.05" filter="url(#filter1_f_5148_65257)">
<path d="M16.1945 22.8945C17.3007 24.7016 18.8023 27.4422 20.6809 27.4422C21.5904 27.4422 22.014 27.0273 21.9518 26.1976" stroke="url(#paint18_linear_5148_65257)" stroke-width="0.515807" stroke-linecap="round"/>
</g>
<path opacity="0.6" d="M15.7646 6.17292C17.7586 9.22148 18.6136 9.04972 19.6424 9.04972C17.9499 6.10546 13.7637 -0.124022 11.9046 -1.40683C9.58062 -3.01034 6.14107 -1.24416 5.72277 3.10159C5.38812 6.57819 7.8143 13.3346 9.06923 16.2783C9.48916 16.7288 10.2908 17.427 9.98987 16.6708C7.87737 11.362 5.87093 2.14544 9.26713 0.630059C11.5147 -0.372779 13.7557 3.10159 15.7646 6.17292Z" fill="url(#paint19_linear_5148_65257)"/>
</g>
<mask id="mask9_5148_65257" style="mask-type:alpha" maskUnits="userSpaceOnUse" x="21" y="0" width="16" height="39">
<path d="M21.9688 9.04991C22.7474 9.04991 23.4664 9.04991 24.4705 9.04991C25.4747 9.04991 26.3103 8.50947 27.1121 7.41332C27.9139 6.31718 29.524 3.70047 30.6104 2.44948C31.6968 1.19848 32.7626 0 34.1121 0C35.4617 0 36.75 1.11681 36.75 5.19135C36.75 14.2525 32.0511 17.0998 34.2948 19.77C34.9774 20.5822 37.2358 23.6788 34.8665 28.1289C32.2973 32.9549 25.7529 38.5001 21.9688 38.5001C21.9688 36.4059 21.9688 30.2684 21.9688 20.0877C21.9688 14.3027 21.9688 10.6234 21.9688 9.04991Z" fill="white"/>
</mask>
<g mask="url(#mask9_5148_65257)">
<mask id="mask10_5148_65257" style="mask-type:alpha" maskUnits="userSpaceOnUse" x="21" y="0" width="16" height="39">
<path d="M21.9797 9.04991C22.7584 9.04991 23.4774 9.04991 24.4815 9.04991C25.4856 9.04991 26.3213 8.50947 27.1231 7.41332C27.9249 6.31718 29.535 3.70047 30.6214 2.44948C31.7078 1.19848 32.7736 0 34.1231 0C35.4727 0 36.761 1.11681 36.761 5.19135C36.761 14.2525 32.0621 17.0998 34.3058 19.77C34.9884 20.5822 37.2467 23.6788 34.8775 28.1289C32.3082 32.9549 25.7639 38.5001 21.9797 38.5001C21.9797 36.4059 21.9797 30.2684 21.9797 20.0877C21.9797 14.3027 21.9797 10.6234 21.9797 9.04991Z" fill="white"/>
</mask>
<g mask="url(#mask10_5148_65257)">
<path d="M21.9744 9.04991C22.753 9.04991 23.472 9.04991 24.4761 9.04991C25.4803 9.04991 26.3159 8.50947 27.1177 7.41332C27.9195 6.31718 29.5297 3.70047 30.616 2.44948C31.7024 1.19848 32.7682 0 34.1177 0C35.4673 0 36.7557 1.11681 36.7557 5.19135C36.7557 14.2525 32.0567 17.0998 34.3005 19.77C34.983 20.5822 37.2414 23.6788 34.8721 28.1289C32.3029 32.9549 25.7586 38.5001 21.9744 38.5001C21.9744 36.4059 21.9744 30.2684 21.9744 20.0877C21.9744 14.3027 21.9744 10.6234 21.9744 9.04991Z" fill="url(#paint20_radial_5148_65257)"/>
<path opacity="0.6" d="M33.3952 18.5452C33.2307 17.6003 34.4767 15.4288 34.8352 14.8086L35.9585 23.0389C34.8068 19.553 33.635 19.9223 33.3952 18.5452Z" fill="url(#paint21_linear_5148_65257)"/>
<path opacity="0.6" d="M28.3463 6.22565C26.3523 9.27421 25.528 9.10245 24.4992 9.10245C26.1917 6.15819 30.3779 -0.0712893 32.2371 -1.3541C34.561 -2.95761 38.0005 -1.19142 38.4188 3.15433C38.7535 6.63092 36.3273 13.3874 35.0724 16.331C34.6524 16.7816 33.8508 17.4797 34.1517 16.7235C36.2642 11.4148 38.24 2.19817 34.8437 0.682793C32.5962 -0.320045 30.3551 3.15433 28.3463 6.22565Z" fill="url(#paint22_linear_5148_65257)"/>
<mask id="mask11_5148_65257" style="mask-type:alpha" maskUnits="userSpaceOnUse" x="21" y="9" width="15" height="30">
<path d="M21.9688 9.78711C23.4192 9.78711 26.416 10.2141 24.7667 12.1522C23.1174 14.0904 23.0873 15.1643 23.0873 15.9198C23.0873 18.6407 25.7814 21.0515 28.0197 21.0515C29.4085 21.0515 30.1666 20.2648 30.9815 19.4271C32.3074 18.0644 34.2794 20.1644 34.9542 21.5804C36.1185 24.0234 35.6501 27.4635 32.224 31.8957C28.7979 36.3279 25.8618 38.9382 21.9688 38.9382C21.9688 34.5077 21.9688 11.1087 21.9688 9.78711Z" fill="white"/>
</mask>
<g mask="url(#mask11_5148_65257)">
<path d="M21.969 9.78711C23.4194 9.78711 26.4162 10.2141 24.7669 12.1522C23.1176 14.0904 23.0875 15.1643 23.0875 15.9198C23.0875 18.6407 25.7817 21.0515 28.0199 21.0515C29.4088 21.0515 30.1669 20.2648 30.9818 19.4271C32.3076 18.0644 34.2796 20.1644 34.9544 21.5804C36.1187 24.0234 35.6503 27.4635 32.2242 31.8957C28.7981 36.3279 25.8621 38.9382 21.969 38.9382C21.969 34.5077 21.969 11.1087 21.969 9.78711Z" fill="#FFEAD7"/>
</g>
<path opacity="0.6" fill-rule="evenodd" clip-rule="evenodd" d="M21.976 36.2415C27.3014 34.8837 33.1708 28.2314 33.1708 24.8554C33.1708 21.4794 30.8682 20.4007 29.8036 16.771C28.7391 13.1413 25.2082 11.7539 21.976 11.7539C21.4745 11.7539 20.3279 11.7539 18.5361 11.7539L18.7281 36.8485C19.7672 36.731 20.8499 36.5286 21.976 36.2415Z" fill="url(#paint23_linear_5148_65257)"/>
<path opacity="0.6" d="M21.9683 9.03906C26.5712 9.03906 29.0493 10.5428 31.598 13.5124C31.764 13.7029 31.9211 13.8923 32.071 14.0786C31.9127 13.8843 31.7553 13.6956 31.598 13.5124C29.8804 11.5403 27.2237 9.45226 21.9683 9.45226V9.03906Z" fill="url(#paint24_linear_5148_65257)"/>
</g>
<path opacity="0.1" fill-rule="evenodd" clip-rule="evenodd" d="M29.2078 23.1109C28.4296 23.2528 28.1131 26.1718 27.3337 27.7571C26.5408 29.3699 24.5523 29.5865 21.9536 29.5865C21.9536 29.1866 21.9536 28.6931 21.9536 28.1062C23.8966 28.4384 25.4052 27.8812 26.4794 26.4347C27.8676 24.5652 28.4254 22.7852 29.0373 22.7852C29.4841 22.7852 29.7113 23.019 29.2078 23.1109Z" fill="url(#paint25_linear_5148_65257)"/>
<path opacity="0.1" fill-rule="evenodd" clip-rule="evenodd" d="M25.0582 28.4238C25.0582 30.7199 25.3256 33.8121 21.9501 33.8121C21.5963 33.8121 20.8858 33.8121 19.8186 33.8121V28.4238H21.9501C23.2304 28.4238 24.2664 28.4238 25.0582 28.4238Z" fill="url(#paint26_linear_5148_65257)"/>
<mask id="mask12_5148_65257" style="mask-type:alpha" maskUnits="userSpaceOnUse" x="21" y="22" width="9" height="7">
<path d="M21.9607 26.8378C21.9607 27.1801 22.1473 27.7044 23.3222 27.7044C24.4971 27.7044 25.7132 27.0541 26.6019 25.7212C27.4906 24.3882 27.917 23.6011 28.411 22.8491C28.9848 21.9756 29.5196 22.3217 29.5923 22.5749C29.6651 22.828 29.3643 23.1626 28.9522 23.1626C28.6388 23.1626 28.4364 23.7004 28.0678 24.3444C27.1598 25.9309 27.1104 28.498 24.1606 28.498C23.4765 28.498 22.7432 28.498 21.9607 28.498C21.9607 27.9689 21.9607 27.4155 21.9607 26.8378Z" fill="white"/>
</mask>
<g mask="url(#mask12_5148_65257)">
<path opacity="0.8" d="M21.9536 26.8378C21.9536 27.1801 22.1402 27.7044 23.3151 27.7044C24.49 27.7044 25.7062 27.0541 26.5948 25.7212C27.4835 24.3882 27.9099 23.6011 28.4039 22.8491C28.9777 21.9756 29.5125 22.3217 29.5853 22.5749C29.658 22.828 29.3573 23.1626 28.9451 23.1626C28.6317 23.1626 28.4293 23.7004 28.0607 24.3444C27.1527 25.9309 27.1033 28.498 24.1535 28.498C23.4694 28.498 22.7361 28.498 21.9536 28.498C21.9536 27.9689 21.9536 27.4155 21.9536 26.8378Z" fill="url(#paint27_linear_5148_65257)"/>
<path opacity="0.2" d="M29.4414 23.2202C28.905 22.9376 28.7013 22.8197 27.9943 24.03C27.2872 25.2403 26.5546 28.1075 24.4123 28.1075C22.9841 28.1075 21.9855 28.1075 21.4165 28.1075" stroke="url(#paint28_linear_5148_65257)" stroke-width="0.257903"/>
</g>
<mask id="mask13_5148_65257" style="mask-type:alpha" maskUnits="userSpaceOnUse" x="21" y="26" width="5" height="8">
<path d="M21.9695 26.9434C22.0272 27.3018 22.2689 27.533 22.6946 27.6372C23.5858 27.8553 24.6328 27.5179 25.1765 27.1534C24.4494 27.8267 24.4494 28.316 24.4494 28.7726C24.4494 29.1255 24.4494 29.4999 24.4494 29.8958C24.4494 31.2582 24.0873 33.5189 21.9695 33.5189C21.9695 32.9805 21.9695 30.7886 21.9695 26.9434Z" fill="white"/>
</mask>
<g mask="url(#mask13_5148_65257)">
<path d="M21.9639 26.9434C22.0216 27.3018 22.2633 27.533 22.689 27.6372C23.5801 27.8553 24.6272 27.5179 25.1709 27.1534C24.4437 27.8267 24.4437 28.316 24.4437 28.7726C24.4437 29.1255 24.4437 29.4999 24.4437 29.8958C24.4437 31.2582 24.0817 33.5189 21.9639 33.5189C21.9639 32.9805 21.9639 30.7886 21.9639 26.9434Z" fill="url(#paint29_linear_5148_65257)"/>
<path opacity="0.2" fill-rule="evenodd" clip-rule="evenodd" d="M24.4424 28.5751C24.4424 30.2821 24.1804 31.2981 23.8957 31.8308C22.8271 33.8296 22.4831 32.482 22.5519 31.047C22.6524 28.951 23.1602 28.951 23.7947 28.4992C24.0591 28.311 24.3089 28.1128 24.431 27.8901C24.6465 27.4972 24.6439 27.1582 24.8358 27.1582C24.9838 27.1582 25.1471 27.1679 25.1667 27.1582C25.1667 27.6434 24.6363 27.8625 24.4424 28.5751Z" fill="white"/>
<g opacity="0.4">
<path fill-rule="evenodd" clip-rule="evenodd" d="M25.8044 26.3583C25.3636 26.9627 23.6505 29.6368 21.4966 28.3781L25.8044 26.3583Z" fill="black"/>
<path d="M25.8044 26.3583C25.3636 26.9627 23.6505 29.6368 21.4966 28.3781V26.2988L25.8044 26.3583Z" fill="black"/>
</g>
<path opacity="0.2" fill-rule="evenodd" clip-rule="evenodd" d="M21.9639 26.7441H24.4352C24.4352 26.9625 24.4352 27.2028 24.4352 27.465C24.4352 27.9675 23.8099 28.2409 23.2818 28.4136C22.084 28.8052 22.4748 30.0114 21.9639 30.0114C21.9639 29.7124 21.9639 28.6233 21.9639 26.7441Z" fill="url(#paint30_linear_5148_65257)"/>
</g>
<mask id="mask14_5148_65257" style="mask-type:alpha" maskUnits="userSpaceOnUse" x="21" y="22" width="4" height="5">
<path d="M21.9697 22.2852C23.061 22.2852 24.6687 22.5905 24.6687 24.0268C24.6687 25.4632 23.4094 26.229 22.8234 26.229C22.2375 26.229 22.259 26.6282 21.9697 26.6282C21.9697 25.9225 21.9697 23.1467 21.9697 22.2852Z" fill="white"/>
</mask>
<g mask="url(#mask14_5148_65257)">
<path d="M21.9697 22.2871C23.061 22.2871 24.6687 22.5924 24.6687 24.0288C24.6687 25.4651 23.4094 26.231 22.8234 26.231C22.2375 26.231 22.259 26.6302 21.9697 26.6302C21.9697 25.9245 21.9697 23.1487 21.9697 22.2871Z" fill="#414143"/>
<path opacity="0.4" fill-rule="evenodd" clip-rule="evenodd" d="M21.9718 22.7129C22.8329 22.7129 24.1016 22.9593 24.1016 24.1183C24.1016 25.2774 23.1079 25.8954 22.6455 25.8954C22.183 25.8954 22.2 26.2175 21.9718 26.2175C19.2728 26.2175 19.2728 22.7126 21.9718 22.7129Z" fill="url(#paint31_linear_5148_65257)"/>
</g>
<path opacity="0.2" fill-rule="evenodd" clip-rule="evenodd" d="M22.5544 24.8035C22.5544 24.979 22.6668 25.4332 23.1653 25.4332C23.804 25.4332 24.3109 25.3176 24.5676 24.7676C24.4144 24.8657 23.5775 25.3027 23.2654 24.6711C23.1824 24.5033 23.0922 24.4375 22.9306 24.4375C22.6811 24.4375 22.5544 24.6378 22.5544 24.8035Z" fill="url(#paint32_linear_5148_65257)"/>
<path opacity="0.1" fill-rule="evenodd" clip-rule="evenodd" d="M21.969 22.5587C22.4927 22.5587 22.7624 22.6086 23.3212 22.7845C23.8347 22.9462 24.195 22.7449 23.3932 22.4906C22.9654 22.3549 22.4907 22.2871 21.969 22.2871C21.969 22.6294 21.969 22.446 21.969 22.5587Z" fill="white"/>
<path opacity="0.2" fill-rule="evenodd" clip-rule="evenodd" d="M27.3979 19.7459C28.4565 19.7459 29.3148 18.9231 29.3148 17.9081C29.3148 16.8931 28.4565 16.0703 27.3979 16.0703C26.3392 16.0703 25.481 16.8931 25.481 17.9081C25.481 18.9231 26.3392 19.7459 27.3979 19.7459Z" fill="url(#paint33_radial_5148_65257)"/>
<mask id="mask15_5148_65257" style="mask-type:alpha" maskUnits="userSpaceOnUse" x="25" y="15" width="5" height="4">
<path d="M27.3864 18.8924C28.4451 18.8924 29.3033 18.0696 29.3033 17.0546C29.3033 16.0396 28.4451 15.2168 27.3864 15.2168C26.3277 15.2168 25.4695 16.0396 25.4695 17.0546C25.4695 18.0696 26.3277 18.8924 27.3864 18.8924Z" fill="white"/>
</mask>
<g mask="url(#mask15_5148_65257)">
<path d="M27.3915 18.8924C28.4502 18.8924 29.3084 18.0696 29.3084 17.0546C29.3084 16.0396 28.4502 15.2168 27.3915 15.2168C26.3328 15.2168 25.4746 16.0396 25.4746 17.0546C25.4746 18.0696 26.3328 18.8924 27.3915 18.8924Z" fill="url(#paint34_linear_5148_65257)"/>
<g filter="url(#filter2_f_5148_65257)">
<path fill-rule="evenodd" clip-rule="evenodd" d="M27.3945 18.4654C28.2179 18.4654 28.8854 17.8339 28.8854 17.0549C28.8854 16.276 28.2179 15.6445 27.3945 15.6445C26.5711 15.6445 25.9036 16.276 25.9036 17.0549C25.9036 17.8339 26.5711 18.4654 27.3945 18.4654Z" stroke="url(#paint35_linear_5148_65257)" stroke-width="0.343871"/>
</g>
</g>
<mask id="mask16_5148_65257" style="mask-type:alpha" maskUnits="userSpaceOnUse" x="25" y="16" width="4" height="3">
<path d="M27.2643 18.7206C28.0171 18.7206 28.6274 18.1466 28.6274 17.4384C28.6274 16.7303 28.0171 16.1562 27.2643 16.1562C26.5114 16.1562 25.9011 16.7303 25.9011 17.4384C25.9011 18.1466 26.5114 18.7206 27.2643 18.7206Z" fill="white"/>
</mask>
<g mask="url(#mask16_5148_65257)">
<path opacity="0.8" d="M27.2735 18.7206C28.0264 18.7206 28.6367 18.1466 28.6367 17.4384C28.6367 16.7303 28.0264 16.1562 27.2735 16.1562C26.5207 16.1562 25.9104 16.7303 25.9104 17.4384C25.9104 18.1466 26.5207 18.7206 27.2735 18.7206Z" fill="black"/>
<path opacity="0.1" fill-rule="evenodd" clip-rule="evenodd" d="M27.5258 18.1215C27.9022 18.1215 28.2074 17.8918 28.2074 17.6086C28.2074 17.3253 27.9022 17.0957 27.5258 17.0957C27.1494 17.0957 26.8442 17.3253 26.8442 17.6086C26.8442 17.8918 27.1494 18.1215 27.5258 18.1215Z" fill="white"/>
<path fill-rule="evenodd" clip-rule="evenodd" d="M26.9272 17.3538C27.1625 17.3538 27.3532 17.2007 27.3532 17.0118C27.3532 16.823 27.1625 16.6699 26.9272 16.6699C26.6919 16.6699 26.5012 16.823 26.5012 17.0118C26.5012 17.2007 26.6919 17.3538 26.9272 17.3538Z" fill="url(#paint36_linear_5148_65257)"/>
</g>
<mask id="mask17_5148_65257" style="mask-type:alpha" maskUnits="userSpaceOnUse" x="28" y="1" width="9" height="14">
<path d="M28.7819 6.7199C29.9473 3.78633 32.1643 0.277544 34.8542 1.24065C36.3598 1.77974 36.4821 4.49699 36.1129 7.75575C35.9332 9.34228 35.4605 10.9718 34.9935 12.315C33.5795 16.3819 32.3218 12.6486 31.4671 11.5517C30.2241 9.95642 27.1564 10.8116 28.7819 6.7199Z" fill="white"/>
</mask>
<g mask="url(#mask17_5148_65257)">
<path d="M28.7817 6.7199C29.9471 3.78633 32.1641 0.277544 34.8539 1.24065C36.3596 1.77974 36.4819 4.49699 36.1127 7.75575C35.9329 9.34228 35.4603 10.9718 34.9933 12.315C33.5792 16.3819 32.3215 12.6486 31.4668 11.5517C30.2238 9.95642 27.1562 10.8116 28.7817 6.7199Z" fill="url(#paint37_linear_5148_65257)"/>
<path opacity="0.2" fill-rule="evenodd" clip-rule="evenodd" d="M29.8497 10.5162C30.6539 6.42146 33.2158 3.35964 33.8574 3.59035C34.4989 3.82105 34.069 8.49223 32.3035 12.894C30.538 17.2958 29.0456 14.6109 29.8497 10.5162Z" fill="#A57163"/>
</g>
<g opacity="0.05" filter="url(#filter3_f_5148_65257)">
<path d="M27.7318 22.8945C26.6255 24.7016 25.124 27.4422 23.2454 27.4422C22.3359 27.4422 21.9122 27.0273 21.9745 26.1976" stroke="url(#paint38_linear_5148_65257)" stroke-width="0.515807" stroke-linecap="round"/>
</g>
</g>
<defs>
<filter id="filter0_f_5148_65257" x="14.559" y="15.1288" width="4.01343" height="3.85181" filterUnits="userSpaceOnUse" color-interpolation-filters="sRGB">
<feFlood flood-opacity="0" result="BackgroundImageFix"/>
<feBlend mode="normal" in="SourceGraphic" in2="BackgroundImageFix" result="shape"/>
<feGaussianBlur stdDeviation="0.171936" result="effect1_foregroundBlur_5148_65257"/>
</filter>
<filter id="filter1_f_5148_65257" x="15.5927" y="22.2928" width="6.9668" height="5.75024" filterUnits="userSpaceOnUse" color-interpolation-filters="sRGB">
<feFlood flood-opacity="0" result="BackgroundImageFix"/>
<feBlend mode="normal" in="SourceGraphic" in2="BackgroundImageFix" result="shape"/>
<feGaussianBlur stdDeviation="0.171936" result="effect1_foregroundBlur_5148_65257"/>
</filter>
<filter id="filter2_f_5148_65257" x="25.3878" y="15.1288" width="4.01343" height="3.85181" filterUnits="userSpaceOnUse" color-interpolation-filters="sRGB">
<feFlood flood-opacity="0" result="BackgroundImageFix"/>
<feBlend mode="normal" in="SourceGraphic" in2="BackgroundImageFix" result="shape"/>
<feGaussianBlur stdDeviation="0.171936" result="effect1_foregroundBlur_5148_65257"/>
</filter>
<filter id="filter3_f_5148_65257" x="21.3668" y="22.2928" width="6.9668" height="5.75024" filterUnits="userSpaceOnUse" color-interpolation-filters="sRGB">
<feFlood flood-opacity="0" result="BackgroundImageFix"/>
<feBlend mode="normal" in="SourceGraphic" in2="BackgroundImageFix" result="shape"/>
<feGaussianBlur stdDeviation="0.171936" result="effect1_foregroundBlur_5148_65257"/>
</filter>
<linearGradient id="paint0_linear_5148_65257" x1="22.001" y1="3.00781" x2="22.001" y2="41.5079" gradientUnits="userSpaceOnUse">
<stop stop-opacity="0"/>
<stop offset="1"/>
</linearGradient>
<radialGradient id="paint1_radial_5148_65257" cx="0" cy="0" r="1" gradientUnits="userSpaceOnUse" gradientTransform="translate(22.0264 23.18) rotate(-122.571) scale(27.5061 10.5889)">
<stop offset="0.138266" stop-color="#FDDFB1"/>
<stop offset="0.763547" stop-color="#FBB03B"/>
</radialGradient>
<linearGradient id="paint2_linear_5148_65257" x1="22.4647" y1="9.03906" x2="12.362" y2="14.0786" gradientUnits="userSpaceOnUse">
<stop stop-color="white"/>
<stop offset="1" stop-color="white" stop-opacity="0"/>
</linearGradient>
<linearGradient id="paint3_linear_5148_65257" x1="9.91015" y1="15.9952" x2="8.23315" y2="22.4356" gradientUnits="userSpaceOnUse">
<stop stop-color="white"/>
<stop offset="1" stop-color="white" stop-opacity="0"/>
</linearGradient>
<linearGradient id="paint4_linear_5148_65257" x1="18.1048" y1="11.7539" x2="18.1048" y2="36.8485" gradientUnits="userSpaceOnUse">
<stop offset="0.367766" stop-color="white" stop-opacity="0"/>
<stop offset="1" stop-color="white"/>
</linearGradient>
<linearGradient id="paint5_linear_5148_65257" x1="18.2362" y1="22.7871" x2="18.2362" y2="28.2232" gradientUnits="userSpaceOnUse">
<stop stop-opacity="0"/>
<stop offset="1"/>
</linearGradient>
<linearGradient id="paint6_linear_5148_65257" x1="21.5191" y1="28.4258" x2="21.5191" y2="32.7324" gradientUnits="userSpaceOnUse">
<stop offset="0.252249" stop-opacity="0"/>
<stop offset="1"/>
</linearGradient>
<linearGradient id="paint7_linear_5148_65257" x1="18.1851" y1="22.291" x2="18.1851" y2="28.4999" gradientUnits="userSpaceOnUse">
<stop stop-opacity="0.7"/>
<stop offset="1"/>
</linearGradient>
<linearGradient id="paint8_linear_5148_65257" x1="14.8424" y1="24.5093" x2="19.8038" y2="28.5556" gradientUnits="userSpaceOnUse">
<stop stop-color="white" stop-opacity="0.3"/>
<stop offset="1" stop-color="white"/>
</linearGradient>
<linearGradient id="paint9_linear_5148_65257" x1="20.3711" y1="26.9375" x2="20.3711" y2="33.5131" gradientUnits="userSpaceOnUse">
<stop stop-color="#E75152"/>
<stop offset="1" stop-color="#FE813F"/>
</linearGradient>
<linearGradient id="paint10_linear_5148_65257" x1="20.7389" y1="26.7383" x2="20.7389" y2="30.0056" gradientUnits="userSpaceOnUse">
<stop/>
<stop offset="1" stop-opacity="0.4"/>
</linearGradient>
<linearGradient id="paint11_linear_5148_65257" x1="21.9334" y1="22.7129" x2="21.9334" y2="26.2175" gradientUnits="userSpaceOnUse">
<stop stop-color="white"/>
<stop offset="1" stop-color="white" stop-opacity="0"/>
</linearGradient>
<linearGradient id="paint12_linear_5148_65257" x1="19.3908" y1="24.9334" x2="21.4041" y2="24.9334" gradientUnits="userSpaceOnUse">
<stop stop-opacity="0.2"/>
<stop offset="1"/>
</linearGradient>
<radialGradient id="paint13_radial_5148_65257" cx="0" cy="0" r="1" gradientUnits="userSpaceOnUse" gradientTransform="translate(16.5619 17.9101) rotate(90) scale(1.83781 1.9169)">
<stop offset="0.609225" stop-color="#CF5B25" stop-opacity="0"/>
<stop offset="1" stop-color="#CF5B25"/>
</radialGradient>
<linearGradient id="paint14_linear_5148_65257" x1="14.652" y1="15.5227" x2="18.3476" y2="18.8405" gradientUnits="userSpaceOnUse">
<stop stop-color="white"/>
<stop offset="1" stop-color="white" stop-opacity="0.6"/>
</linearGradient>
<linearGradient id="paint15_linear_5148_65257" x1="15.0748" y1="15.8357" x2="17.914" y2="18.4303" gradientUnits="userSpaceOnUse">
<stop stop-color="white"/>
<stop offset="1" stop-color="white" stop-opacity="0"/>
</linearGradient>
<linearGradient id="paint16_linear_5148_65257" x1="17.0333" y1="16.6699" x2="17.0333" y2="17.3538" gradientUnits="userSpaceOnUse">
<stop stop-color="white"/>
<stop offset="1" stop-color="white" stop-opacity="0.9"/>
</linearGradient>
<linearGradient id="paint17_linear_5148_65257" x1="7.90774" y1="1.3849" x2="11.6866" y2="14.159" gradientUnits="userSpaceOnUse">
<stop stop-color="white"/>
<stop offset="1" stop-color="white" stop-opacity="0.6"/>
</linearGradient>
<linearGradient id="paint18_linear_5148_65257" x1="19.0761" y1="22.8945" x2="19.0761" y2="27.4422" gradientUnits="userSpaceOnUse">
<stop stop-opacity="0"/>
<stop offset="1"/>
</linearGradient>
<linearGradient id="paint19_linear_5148_65257" x1="8.64666" y1="0.457321" x2="17.4" y2="15.3307" gradientUnits="userSpaceOnUse">
<stop stop-color="white"/>
<stop offset="1" stop-color="white" stop-opacity="0"/>
</linearGradient>
<radialGradient id="paint20_radial_5148_65257" cx="0" cy="0" r="1" gradientUnits="userSpaceOnUse" gradientTransform="translate(21.9313 23.18) rotate(-57.4287) scale(27.5061 10.5889)">
<stop offset="0.138266" stop-color="#FDDFB1"/>
<stop offset="0.763547" stop-color="#FBB03B"/>
</radialGradient>
<linearGradient id="paint21_linear_5148_65257" x1="34.1768" y1="15.9952" x2="35.8538" y2="22.4356" gradientUnits="userSpaceOnUse">
<stop stop-color="white"/>
<stop offset="1" stop-color="white" stop-opacity="0"/>
</linearGradient>
<linearGradient id="paint22_linear_5148_65257" x1="35.4422" y1="0.457348" x2="26.6889" y2="15.3307" gradientUnits="userSpaceOnUse">
<stop stop-color="white"/>
<stop offset="1" stop-color="white" stop-opacity="0"/>
</linearGradient>
<linearGradient id="paint23_linear_5148_65257" x1="25.8535" y1="11.7539" x2="25.8535" y2="36.8485" gradientUnits="userSpaceOnUse">
<stop offset="0.367766" stop-color="white" stop-opacity="0"/>
<stop offset="1" stop-color="white"/>
</linearGradient>
<linearGradient id="paint24_linear_5148_65257" x1="21.9683" y1="9.03906" x2="32.071" y2="14.0786" gradientUnits="userSpaceOnUse">
<stop stop-color="white"/>
<stop offset="1" stop-color="white" stop-opacity="0"/>
</linearGradient>
<linearGradient id="paint25_linear_5148_65257" x1="25.7238" y1="22.7852" x2="25.7238" y2="28.2212" gradientUnits="userSpaceOnUse">
<stop stop-opacity="0"/>
<stop offset="1"/>
</linearGradient>
<linearGradient id="paint26_linear_5148_65257" x1="22.4409" y1="28.4238" x2="22.4409" y2="32.7304" gradientUnits="userSpaceOnUse">
<stop offset="0.252249" stop-opacity="0"/>
<stop offset="1"/>
</linearGradient>
<linearGradient id="paint27_linear_5148_65257" x1="25.7749" y1="22.2891" x2="25.7749" y2="28.498" gradientUnits="userSpaceOnUse">
<stop stop-opacity="0.7"/>
<stop offset="1"/>
</linearGradient>
<linearGradient id="paint28_linear_5148_65257" x1="29.1296" y1="24.5074" x2="24.1682" y2="28.5536" gradientUnits="userSpaceOnUse">
<stop stop-color="white" stop-opacity="0.3"/>
<stop offset="1" stop-color="white"/>
</linearGradient>
<linearGradient id="paint29_linear_5148_65257" x1="23.5674" y1="26.9434" x2="23.5674" y2="33.5189" gradientUnits="userSpaceOnUse">
<stop stop-color="#E75152"/>
<stop offset="1" stop-color="#FE813F"/>
</linearGradient>
<linearGradient id="paint30_linear_5148_65257" x1="23.1995" y1="26.7441" x2="23.1995" y2="30.0114" gradientUnits="userSpaceOnUse">
<stop/>
<stop offset="1" stop-opacity="0.4"/>
</linearGradient>
<linearGradient id="paint31_linear_5148_65257" x1="22.0246" y1="22.7129" x2="22.0246" y2="26.2175" gradientUnits="userSpaceOnUse">
<stop stop-color="white"/>
<stop offset="1" stop-color="white" stop-opacity="0"/>
</linearGradient>
<linearGradient id="paint32_linear_5148_65257" x1="24.5676" y1="24.9354" x2="22.5544" y2="24.9354" gradientUnits="userSpaceOnUse">
<stop stop-opacity="0.2"/>
<stop offset="1"/>
</linearGradient>
<radialGradient id="paint33_radial_5148_65257" cx="0" cy="0" r="1" gradientUnits="userSpaceOnUse" gradientTransform="translate(27.3979 17.9081) rotate(90) scale(1.83781 1.9169)">
<stop offset="0.609225" stop-color="#CF5B25" stop-opacity="0"/>
<stop offset="1" stop-color="#CF5B25"/>
</radialGradient>
<linearGradient id="paint34_linear_5148_65257" x1="29.3084" y1="15.5227" x2="25.6129" y2="18.8405" gradientUnits="userSpaceOnUse">
<stop stop-color="white"/>
<stop offset="1" stop-color="white" stop-opacity="0.6"/>
</linearGradient>
<linearGradient id="paint35_linear_5148_65257" x1="28.8854" y1="15.8357" x2="26.0462" y2="18.4303" gradientUnits="userSpaceOnUse">
<stop stop-color="white"/>
<stop offset="1" stop-color="white" stop-opacity="0"/>
</linearGradient>
<linearGradient id="paint36_linear_5148_65257" x1="26.9272" y1="16.6699" x2="26.9272" y2="17.3538" gradientUnits="userSpaceOnUse">
<stop stop-color="white"/>
<stop offset="1" stop-color="white" stop-opacity="0.9"/>
</linearGradient>
<linearGradient id="paint37_linear_5148_65257" x1="36.0495" y1="1.3849" x2="32.2707" y2="14.159" gradientUnits="userSpaceOnUse">
<stop stop-color="white"/>
<stop offset="1" stop-color="white" stop-opacity="0.6"/>
</linearGradient>
<linearGradient id="paint38_linear_5148_65257" x1="24.8502" y1="22.8945" x2="24.8502" y2="27.4422" gradientUnits="userSpaceOnUse">
<stop stop-opacity="0"/>
<stop offset="1"/>
</linearGradient>
</defs>
</svg>
