<svg width="21" height="21" viewBox="0 0 21 21" fill="none" xmlns="http://www.w3.org/2000/svg">
<path opacity="0.4" d="M12.0727 2.27039L13.8327 5.79039C14.0727 6.28039 14.7127 6.75039 15.2527 6.84039L18.4427 7.37039C20.4827 7.71039 20.9627 9.19039 19.4927 10.6504L17.0127 13.1304C16.5927 13.5504 16.3627 14.3604 16.4927 14.9404L17.2027 18.0104C17.7627 20.4404 16.4727 21.3804 14.3227 20.1104L11.3327 18.3404C10.7927 18.0204 9.90274 18.0204 9.35274 18.3404L6.36274 20.1104C4.22274 21.3804 2.92274 20.4304 3.48274 18.0104L4.19274 14.9404C4.32274 14.3604 4.09274 13.5504 3.67274 13.1304L1.19274 10.6504C-0.267257 9.19039 0.202744 7.71039 2.24274 7.37039L5.43274 6.84039C5.96274 6.75039 6.60274 6.28039 6.84274 5.79039L8.60274 2.27039C9.56274 0.360391 11.1227 0.360391 12.0727 2.27039Z" fill="white"/>
</svg>
