<svg width="24" height="25" viewBox="0 0 24 25" fill="currentColor" xmlns="http://www.w3.org/2000/svg">
<path d="M22.56 12.4883C22.56 11.7083 22.49 10.9583 22.36 10.2383H12V14.4983H17.92C17.66 15.8683 16.88 17.0283 15.71 17.8083V20.5783H19.28C21.36 18.6583 22.56 15.8383 22.56 12.4883Z" fill="currentColor"/>
<path d="M12.0001 23.2379C14.9701 23.2379 17.4601 22.2579 19.2801 20.5779L15.7101 17.8079C14.7301 18.4679 13.4801 18.8679 12.0001 18.8679C9.14005 18.8679 6.71005 16.9379 5.84005 14.3379H2.18005V17.1779C3.99005 20.7679 7.70005 23.2379 12.0001 23.2379Z" fill="currentColor"/>
<path d="M5.84 14.3286C5.62 13.6686 5.49 12.9686 5.49 12.2386C5.49 11.5086 5.62 10.8086 5.84 10.1486V7.30859H2.18C1.43 8.78859 1 10.4586 1 12.2386C1 14.0186 1.43 15.6886 2.18 17.1686L5.03 14.9486L5.84 14.3286Z" fill="currentColor"/>
<path d="M12.0001 5.61828C13.6201 5.61828 15.0601 6.17828 16.2101 7.25828L19.3601 4.10828C17.4501 2.32828 14.9701 1.23828 12.0001 1.23828C7.70005 1.23828 3.99005 3.70828 2.18005 7.30828L5.84005 10.1483C6.71005 7.54828 9.14005 5.61828 12.0001 5.61828Z" fill="currentColor"/>
</svg>
