<svg width="108" height="48" viewBox="0 0 108 48" fill="none" xmlns="http://www.w3.org/2000/svg">
<mask id="mask0_4860_201946" style="mask-type:alpha" maskUnits="userSpaceOnUse" x="0" y="0" width="108" height="48">
<path d="M100.257 0C101.526 0 102.639 0.146982 103.636 0.49695C105.03 0.98621 106.183 1.87424 106.862 3.19238L106.876 3.22096L106.916 3.29512C107.252 3.94295 107.492 4.59187 107.615 5.26581L107.64 5.41061L107.661 5.55624C107.703 5.87526 107.73 6.23343 107.743 6.64544L107.75 6.89921L107.754 7.16662L107.755 7.44835L107.754 7.73008L107.75 7.99748L107.743 8.25126C107.73 8.66326 107.703 9.02144 107.661 9.34046C107.558 10.1194 107.3 10.8612 106.916 11.6016L106.835 11.7552C106.713 11.9827 106.578 12.1975 106.429 12.3994C107.176 13.3466 107.586 14.4939 107.691 15.7408L107.701 15.8747L107.706 15.9796L107.712 16.0431C107.718 16.1132 107.723 16.1855 107.727 16.2602L107.739 16.4914C107.74 16.5312 107.742 16.5716 107.743 16.6126L107.75 16.8667C107.752 16.9541 107.753 17.0442 107.754 17.1372L107.755 17.4115V31.6025C107.755 31.6971 107.754 31.7892 107.753 31.8789L107.747 32.1411C107.735 32.6094 107.708 33.0103 107.661 33.3645C107.558 34.1434 107.3 34.8852 106.916 35.6256L106.834 35.7801C106.172 37.0177 105.094 37.8512 103.796 38.3334L103.68 38.375L103.567 38.4137C102.582 38.7424 101.48 38.8805 100.216 38.8805C99.0115 38.8805 97.9452 38.7479 96.9849 38.4369L96.9358 38.4203C96.2006 40.6374 94.9014 42.5827 93.0546 44.1905C90.1748 46.6977 86.809 48 83.1162 48C80.3975 48 77.7897 47.3426 75.3479 46.049C74.1151 45.3959 73.1261 44.7304 72.3561 43.9917C71.1903 42.8735 70.453 41.5327 70.453 39.9089C70.453 37.8888 71.2251 36.0502 72.6443 34.562L72.7553 34.4476L72.9291 34.2605L72.7993 34.1309L72.6166 33.9431C70.1646 31.3871 68.8022 28.3356 68.6069 24.938C68.1943 24.8931 67.788 24.8129 67.3903 24.698L67.2205 24.6467L67.1713 24.6303L67.171 31.6025C67.1706 31.6971 67.1697 31.7892 67.1685 31.8789L67.1632 32.1411C67.1508 32.6094 67.1237 33.0103 67.077 33.3645C66.9741 34.1434 66.7155 34.8852 66.3314 35.6256L66.258 35.7644L66.2269 35.8219L66.1939 35.8784C65.4591 37.1367 64.301 37.9631 62.9176 38.4186C61.9343 38.7424 60.8374 38.8805 59.5912 38.8805C57.5168 38.8805 55.7811 38.4698 54.3918 37.4032L54.2341 37.2787L54.177 37.2294C53.5548 36.6915 53.0805 36.0573 52.7418 35.3518C51.7437 36.2636 50.6406 37.0191 49.4359 37.6094C47.2271 38.6915 44.8974 39.2421 42.4913 39.2421C40.0513 39.2421 37.6869 38.649 35.4472 37.4891C34.0424 36.7616 32.7781 35.8244 31.6609 34.6903C31.09 35.252 30.4454 35.7477 29.734 36.1772L28.7769 36.7535L28.3186 37.0283C28.0922 37.1639 27.8402 37.2953 27.5575 37.4257L27.3645 37.5126C27.3315 37.5271 27.2982 37.5415 27.2644 37.556L27.0571 37.6428C26.951 37.6863 26.8412 37.7298 26.7275 37.7736L26.4949 37.8614L26.2515 37.95L25.997 38.0395L25.7312 38.1302C25.6859 38.1455 25.6402 38.1607 25.5939 38.1761L25.3104 38.269L25.0147 38.3636L24.7064 38.46C22.9509 39.0042 21.2179 39.2823 19.5153 39.2823C17.8895 39.2823 16.2564 39.0722 14.6229 38.6563C12.9491 38.2301 11.2678 37.5325 9.57617 36.5752C7.85546 35.6014 6.30463 34.4089 4.93278 33.004C3.44511 31.4805 2.25938 29.5889 1.35901 27.3568C0.450438 25.1043 0 22.6778 0 20.1031C0 17.5212 0.445947 15.1235 1.35265 12.9358C2.24294 10.7877 3.41746 8.9556 4.88769 7.46727C6.21232 6.12632 7.71847 4.99403 9.39554 4.07643L9.76993 3.87458C12.9327 2.18921 16.1888 1.32574 19.4949 1.32574C21.1608 1.32574 22.8367 1.57712 24.513 2.07223C26.053 2.52707 27.2944 3.0131 28.2829 3.57977L29.3763 4.21034L29.6436 4.37268L29.8783 4.51733L30.098 4.65503L30.3029 4.78607L30.4935 4.91071C30.5241 4.93097 30.5541 4.95097 30.5836 4.97073L30.7533 5.08631L30.8648 5.16341L30.9707 5.24788C32.5523 6.5099 33.5001 8.22055 33.5001 10.2003C33.5001 11.0789 33.3269 11.9299 33.003 12.7487C35.7875 10.5422 39.0061 9.4007 42.5319 9.4007C46.387 9.4007 49.865 10.7594 52.7961 13.38L52.8439 13.2789L52.9173 13.1306L52.9437 13.0793C53.6451 11.7429 54.821 10.8552 56.242 10.3692C57.2414 10.0274 58.3586 9.88278 59.6319 9.88278C60.8079 9.88278 61.844 10.0035 62.7756 10.2857C63.0438 10.367 63.3039 10.4618 63.5546 10.5709L63.7039 10.6381L63.7858 10.6771L63.8882 10.6258C65.0236 10.0659 66.1486 9.73641 67.2897 9.6881L67.4387 9.6834L67.5819 9.68191C68.409 9.68191 69.1419 9.72774 69.7996 9.82926C70.4414 9.92833 71.1077 10.0882 71.8042 10.3055C72.9701 10.6692 73.9926 11.3128 74.8032 12.2053L74.8533 12.2611C77.0186 10.705 79.4278 9.88278 82.0182 9.88278C83.3652 9.88278 84.6498 10.1172 85.8445 10.5947L86.0081 10.662L86.013 10.6591C87.0584 10.0909 88.2622 9.83775 89.6096 9.80591L89.7657 9.80321L89.9072 9.80243C91.1134 9.80243 92.1072 9.88487 92.9728 10.0993C92.9011 9.83561 92.8472 9.56973 92.8116 9.30028C92.7649 8.94612 92.7378 8.54526 92.7254 8.07047L92.7201 7.80399L92.7176 7.52187L92.7176 7.27801C92.718 7.18345 92.7189 7.09137 92.7202 7.00164L92.7254 6.73939C92.7378 6.27108 92.7649 5.87023 92.8116 5.51606C92.9075 4.78985 93.1341 4.08877 93.4688 3.39608L93.5422 3.24777L93.5686 3.1965C94.27 1.86007 95.4459 0.972375 96.8669 0.486446C97.8663 0.144651 98.9835 0 100.257 0Z" fill="url(#paint0_linear_4860_201946)"/>
</mask>
<g mask="url(#mask0_4860_201946)">
<path d="M100.257 0C101.526 0 102.639 0.146982 103.636 0.49695C105.03 0.98621 106.183 1.87424 106.862 3.19238L106.876 3.22096L106.916 3.29512C107.252 3.94295 107.492 4.59187 107.615 5.26581L107.64 5.41061L107.661 5.55624C107.703 5.87526 107.73 6.23343 107.743 6.64544L107.75 6.89921L107.754 7.16662L107.755 7.44835L107.754 7.73008L107.75 7.99748L107.743 8.25126C107.73 8.66326 107.703 9.02144 107.661 9.34046C107.558 10.1194 107.3 10.8612 106.916 11.6016L106.835 11.7552C106.713 11.9827 106.578 12.1975 106.429 12.3994C107.176 13.3466 107.586 14.4939 107.691 15.7408L107.701 15.8747L107.706 15.9796L107.712 16.0431C107.718 16.1132 107.723 16.1855 107.727 16.2602L107.739 16.4914C107.74 16.5312 107.742 16.5716 107.743 16.6126L107.75 16.8667C107.752 16.9541 107.753 17.0442 107.754 17.1372L107.755 17.4115V31.6025C107.755 31.6971 107.754 31.7892 107.753 31.8789L107.747 32.1411C107.735 32.6094 107.708 33.0103 107.661 33.3645C107.558 34.1434 107.3 34.8852 106.916 35.6256L106.834 35.7801C106.172 37.0177 105.094 37.8512 103.796 38.3334L103.68 38.375L103.567 38.4137C102.582 38.7424 101.48 38.8805 100.216 38.8805C99.0115 38.8805 97.9452 38.7479 96.9849 38.4369L96.9358 38.4203C96.2006 40.6374 94.9014 42.5827 93.0546 44.1905C90.1748 46.6977 86.809 48 83.1162 48C80.3975 48 77.7897 47.3426 75.3479 46.049C74.1151 45.3959 73.1261 44.7304 72.3561 43.9917C71.1903 42.8735 70.453 41.5327 70.453 39.9089C70.453 37.8888 71.2251 36.0502 72.6443 34.562L72.7553 34.4476L72.9291 34.2605L72.7993 34.1309L72.6166 33.9431C70.1646 31.3871 68.8022 28.3356 68.6069 24.938C68.1943 24.8931 67.788 24.8129 67.3903 24.698L67.2205 24.6467L67.1713 24.6303L67.171 31.6025C67.1706 31.6971 67.1697 31.7892 67.1685 31.8789L67.1632 32.1411C67.1508 32.6094 67.1237 33.0103 67.077 33.3645C66.9741 34.1434 66.7155 34.8852 66.3314 35.6256L66.258 35.7644L66.2269 35.8219L66.1939 35.8784C65.4591 37.1367 64.301 37.9631 62.9176 38.4186C61.9343 38.7424 60.8374 38.8805 59.5912 38.8805C57.5168 38.8805 55.7811 38.4698 54.3918 37.4032L54.2341 37.2787L54.177 37.2294C53.5548 36.6915 53.0805 36.0573 52.7418 35.3518C51.7437 36.2636 50.6406 37.0191 49.4359 37.6094C47.2271 38.6915 44.8974 39.2421 42.4913 39.2421C40.0513 39.2421 37.6869 38.649 35.4472 37.4891C34.0424 36.7616 32.7781 35.8244 31.6609 34.6903C31.09 35.252 30.4454 35.7477 29.734 36.1772L28.7769 36.7535L28.3186 37.0283C28.0922 37.1639 27.8402 37.2953 27.5575 37.4257L27.3645 37.5126C27.3315 37.5271 27.2982 37.5415 27.2644 37.556L27.0571 37.6428C26.951 37.6863 26.8412 37.7298 26.7275 37.7736L26.4949 37.8614L26.2515 37.95L25.997 38.0395L25.7312 38.1302C25.6859 38.1455 25.6402 38.1607 25.5939 38.1761L25.3104 38.269L25.0147 38.3636L24.7064 38.46C22.9509 39.0042 21.2179 39.2823 19.5153 39.2823C17.8895 39.2823 16.2564 39.0722 14.6229 38.6563C12.9491 38.2301 11.2678 37.5325 9.57617 36.5752C7.85546 35.6014 6.30463 34.4089 4.93278 33.004C3.44511 31.4805 2.25938 29.5889 1.35901 27.3568C0.450438 25.1043 0 22.6778 0 20.1031C0 17.5212 0.445947 15.1235 1.35265 12.9358C2.24294 10.7877 3.41746 8.9556 4.88769 7.46727C6.21232 6.12632 7.71847 4.99403 9.39554 4.07643L9.76993 3.87458C12.9327 2.18921 16.1888 1.32574 19.4949 1.32574C21.1608 1.32574 22.8367 1.57712 24.513 2.07223C26.053 2.52707 27.2944 3.0131 28.2829 3.57977L29.3763 4.21034L29.6436 4.37268L29.8783 4.51733L30.098 4.65503L30.3029 4.78607L30.4935 4.91071C30.5241 4.93097 30.5541 4.95097 30.5836 4.97073L30.7533 5.08631L30.8648 5.16341L30.9707 5.24788C32.5523 6.5099 33.5001 8.22055 33.5001 10.2003C33.5001 11.0789 33.3269 11.9299 33.003 12.7487C35.7875 10.5422 39.0061 9.4007 42.5319 9.4007C46.387 9.4007 49.865 10.7594 52.7961 13.38L52.8439 13.2789L52.9173 13.1306L52.9437 13.0793C53.6451 11.7429 54.821 10.8552 56.242 10.3692C57.2414 10.0274 58.3586 9.88278 59.6319 9.88278C60.8079 9.88278 61.844 10.0035 62.7756 10.2857C63.0438 10.367 63.3039 10.4618 63.5546 10.5709L63.7039 10.6381L63.7858 10.6771L63.8882 10.6258C65.0236 10.0659 66.1486 9.73641 67.2897 9.6881L67.4387 9.6834L67.5819 9.68191C68.409 9.68191 69.1419 9.72774 69.7996 9.82926C70.4414 9.92833 71.1077 10.0882 71.8042 10.3055C72.9701 10.6692 73.9926 11.3128 74.8032 12.2053L74.8533 12.2611C77.0186 10.705 79.4278 9.88278 82.0182 9.88278C83.3652 9.88278 84.6498 10.1172 85.8445 10.5947L86.0081 10.662L86.013 10.6591C87.0584 10.0909 88.2622 9.83775 89.6096 9.80591L89.7657 9.80321L89.9072 9.80243C91.1134 9.80243 92.1072 9.88487 92.9728 10.0993C92.9011 9.83561 92.8472 9.56973 92.8116 9.30028C92.7649 8.94612 92.7378 8.54526 92.7254 8.07047L92.7201 7.80399L92.7176 7.52187L92.7176 7.27801C92.718 7.18345 92.7189 7.09137 92.7202 7.00164L92.7254 6.73939C92.7378 6.27108 92.7649 5.87023 92.8116 5.51606C92.9075 4.78985 93.1341 4.08877 93.4688 3.39608L93.5422 3.24777L93.5686 3.1965C94.27 1.86007 95.4459 0.972375 96.8669 0.486446C97.8663 0.144651 98.9835 0 100.257 0Z" fill="url(#paint1_linear_4860_201946)"/>
<mask id="path-3-outside-1_4860_201946" maskUnits="userSpaceOnUse" x="1.96289" y="1.91211" width="104" height="44" fill="black">
<rect fill="white" x="1.96289" y="1.91211" width="104" height="44"/>
<path d="M89.9092 13.7145C90.9665 13.7145 91.7392 13.7949 92.2271 13.9556C92.7151 14.1163 93.0608 14.3908 93.2641 14.7792C93.4674 15.1675 93.5894 15.509 93.6301 15.8036C93.6708 16.0982 93.6911 16.5535 93.6911 17.1695V33.8015L93.6902 33.9576C93.654 36.9655 92.5699 39.3976 90.4379 41.2538C88.2691 43.1419 85.8292 44.086 83.1182 44.086C81.0578 44.086 79.0923 43.5905 77.2217 42.5996C75.3512 41.6086 74.4159 40.7114 74.4159 39.9079C74.4159 38.8634 74.8225 37.9394 75.6358 37.1359C76.1509 36.5735 76.5508 36.1851 76.8354 35.9709C77.1201 35.7566 77.4522 35.6495 77.8317 35.6495C78.2113 35.6495 78.6044 35.8102 79.011 36.1316C80.3123 37.1225 81.722 37.618 83.2402 37.618C84.2704 37.618 85.1108 37.2163 85.7614 36.4128C86.412 35.6093 86.7374 34.6451 86.7374 33.5203V32.3151L86.6748 32.3946C85.6413 33.6807 84.022 34.3238 81.8169 34.3238C79.5668 34.3238 77.459 33.2993 75.4935 31.2504C73.528 29.2016 72.5453 26.8112 72.5453 24.0794C72.5453 21.3476 73.5348 18.9505 75.5138 16.8883C77.4928 14.826 79.6616 13.7949 82.0202 13.7949C82.942 13.7949 83.7824 13.9623 84.5415 14.2971C85.3005 14.6318 85.8224 14.9398 86.1071 15.2211C86.3917 15.5023 86.6154 15.7634 86.778 16.0045C86.8594 15.2545 87.1372 14.6854 87.6117 14.2971C88.0861 13.9087 88.8519 13.7145 89.9092 13.7145ZM19.4969 5.23785C20.7711 5.23785 22.0656 5.43202 23.3804 5.82037C24.6953 6.20872 25.6916 6.60376 26.3693 7.0055L27.3453 7.56793L27.4482 7.63025C27.8869 7.8967 28.2322 8.11698 28.4839 8.29106C29.1888 8.8535 29.5412 9.48959 29.5412 10.1993C29.5412 10.9091 29.2565 11.6523 28.6872 12.429C27.6299 13.8752 26.6811 14.5984 25.8407 14.5984C25.3527 14.5984 24.6614 14.3038 23.7668 13.7145C22.6281 12.8039 21.11 12.3486 19.2123 12.3486C17.4501 12.3486 15.7151 12.9512 14.0072 14.1565C13.1939 14.7457 12.5161 15.5759 11.9739 16.6472C11.4317 17.7185 11.1606 18.9305 11.1606 20.283C11.1606 21.6355 11.4317 22.8474 11.9739 23.9187C12.5161 24.99 13.2074 25.8337 14.0478 26.4497C15.7015 27.6281 17.423 28.2173 19.2123 28.2173C20.0527 28.2173 20.8457 28.1102 21.5912 27.8959C22.3367 27.6817 22.8721 27.4674 23.1975 27.2531L23.9294 26.7309L24.0271 26.6745C24.8973 26.1764 25.5154 25.9274 25.8813 25.9274C26.7218 25.9274 27.6299 26.6773 28.6059 28.1771C29.2023 29.1145 29.5005 29.8645 29.5005 30.4269C29.5005 30.9893 29.3175 31.458 28.9516 31.833C28.5856 32.2079 28.1586 32.5427 27.6706 32.8373C27.1826 33.1319 26.715 33.4131 26.2677 33.681C25.8203 33.9488 24.9054 34.297 23.5228 34.7255C22.1402 35.154 20.805 35.3683 19.5173 35.3683C18.2295 35.3683 16.9283 35.2009 15.6134 34.8661C14.2986 34.5313 12.9431 33.9689 11.5469 33.1788C10.1508 32.3887 8.89692 31.4245 7.7854 30.2863C6.67389 29.148 5.75893 27.6884 5.04051 25.9073C4.3221 24.1263 3.96289 22.1912 3.96289 20.1022C3.96289 18.0131 4.31532 16.1183 5.02018 14.4176C5.72504 12.7169 6.62645 11.3108 7.72441 10.1993C8.82236 9.08785 10.0762 8.15715 11.4859 7.40724C14.1427 5.96098 16.813 5.23785 19.4969 5.23785ZM42.5339 13.3128C45.4618 13.3128 48.0508 14.3506 50.301 16.4263C52.5511 18.5019 53.6762 21.1467 53.6762 24.3606C53.6762 26.5836 53.0933 28.5588 51.9276 30.2863C50.7618 32.0138 49.3453 33.2859 47.6781 34.1028C46.0108 34.9197 44.2825 35.3281 42.4933 35.3281C40.704 35.3281 38.969 34.8929 37.2882 34.0225C35.6073 33.152 34.1908 31.8665 33.0387 30.1658C31.8865 28.4651 31.3104 26.5434 31.3104 24.4008C31.3104 21.1869 32.449 18.5354 34.7263 16.4464C37.0035 14.3573 39.6061 13.3128 42.5339 13.3128ZM67.5839 13.594C68.221 13.594 68.7564 13.6275 69.1901 13.6945C69.6239 13.7614 70.0983 13.8752 70.6134 14.0359C71.1285 14.1966 71.5555 14.4712 71.8944 14.8595C72.2332 15.2478 72.4027 15.8705 72.4027 16.7276C72.4027 17.5846 72.1451 18.522 71.63 19.5398C71.1149 20.5575 70.3694 21.0664 69.3935 21.0664C68.9055 21.0664 68.4378 20.9592 67.9905 20.745C67.5432 20.5307 66.9536 20.4236 66.2216 20.4236C65.4896 20.4236 64.8051 20.678 64.168 21.1869C63.5309 21.6958 63.2124 22.3118 63.2124 23.0349V31.4714L63.2121 31.5851C63.2098 32.1446 63.1895 32.5687 63.1514 32.8574C63.1107 33.1654 62.9819 33.5203 62.7651 33.922C62.3584 34.6184 61.3011 34.9665 59.5932 34.9665C58.2919 34.9665 57.3566 34.7389 56.7873 34.2836C56.3535 33.9086 56.1096 33.3328 56.0553 32.5561L56.0556 17.1763C56.058 16.6169 56.0782 16.1928 56.1163 15.904C56.157 15.596 56.2722 15.2545 56.462 14.8796C56.8415 14.1565 57.8988 13.7949 59.6339 13.7949C61.2605 13.7949 62.2771 14.1029 62.6837 14.7189C62.9819 15.1474 63.131 15.5893 63.131 16.0446C63.2666 15.8571 63.4631 15.6295 63.7207 15.3617C63.9782 15.0938 64.5272 14.7323 65.3676 14.277C66.208 13.8217 66.9468 13.594 67.5839 13.594ZM100.259 13.8351C101.56 13.8351 102.482 14.0627 103.024 14.518C103.485 14.893 103.729 15.4688 103.756 16.2455C103.783 16.5133 103.797 16.9017 103.797 17.4105V31.4714L103.796 31.5851C103.794 32.1446 103.774 32.5687 103.736 32.8574C103.695 33.1654 103.566 33.5203 103.349 33.922C102.997 34.6184 101.953 34.9665 100.218 34.9665C98.5102 34.9665 97.4664 34.605 97.0869 33.8818C96.8971 33.4801 96.7819 33.1319 96.7412 32.8373C96.703 32.56 96.6827 32.1286 96.6804 31.5429L96.6805 17.2165C96.6829 16.657 96.7031 16.2329 96.7412 15.9442C96.7819 15.6362 96.8971 15.2813 97.0869 14.8796C97.4664 14.1832 98.5237 13.8351 100.259 13.8351ZM42.4933 20.3834C41.5173 20.3834 40.6091 20.7182 39.7687 21.3878C38.9283 22.0573 38.5081 23.0416 38.5081 24.3405C38.5081 25.6395 38.9419 26.6238 39.8094 27.2933C40.6769 27.9361 41.558 28.2575 42.4526 28.2575C43.3472 28.2575 44.2419 27.9227 45.1365 27.2531C46.0311 26.5836 46.4784 25.5926 46.4784 24.2803C46.4784 22.9679 46.0582 21.9904 45.2178 21.3476C44.3774 20.7048 43.4692 20.3834 42.4933 20.3834ZM83.0368 20.6245C81.9796 20.6245 81.1256 20.986 80.4749 21.7091C79.8243 22.4323 79.499 23.2358 79.499 24.1196C79.499 24.9766 79.8446 25.7533 80.5359 26.4497C81.2272 27.146 82.0677 27.4942 83.0572 27.4942C84.0467 27.4942 84.8668 27.1393 85.5174 26.4296C86.1681 25.7198 86.4934 24.9431 86.4934 24.0995C86.4934 23.2558 86.1816 22.4658 85.5581 21.7292C84.9345 20.9927 84.0941 20.6245 83.0368 20.6245ZM19.0142 16.4338C21.2018 16.4338 22.9751 18.1858 22.9751 20.3469C22.9751 22.508 21.2018 24.2599 19.0142 24.2599C16.8267 24.2599 15.0534 22.508 15.0534 20.3469C15.0534 18.1858 16.8267 16.4338 19.0142 16.4338ZM100.259 3.91211C101.967 3.91211 102.997 4.27367 103.349 4.99681C103.566 5.39854 103.695 5.75341 103.736 6.06141C103.776 6.36941 103.797 6.83141 103.797 7.44741C103.797 8.06341 103.776 8.52541 103.736 8.83341C103.695 9.14141 103.566 9.49628 103.349 9.89802C103.16 10.273 102.807 10.5408 102.292 10.7015C101.777 10.8622 101.092 10.9425 100.238 10.9425C99.3845 10.9425 98.6999 10.8622 98.1848 10.7015C97.6697 10.5408 97.3105 10.2596 97.1072 9.85785C96.9039 9.45611 96.7819 9.10124 96.7412 8.79324C96.7031 8.50449 96.6829 8.08039 96.6805 7.52093V7.29354C96.6829 6.73409 96.7031 6.30999 96.7412 6.02124C96.7819 5.71324 96.8971 5.37176 97.0869 4.99681C97.4664 4.27367 98.5237 3.91211 100.259 3.91211Z"/>
</mask>
<path d="M89.9092 13.7145C90.9665 13.7145 91.7392 13.7949 92.2271 13.9556C92.7151 14.1163 93.0608 14.3908 93.2641 14.7792C93.4674 15.1675 93.5894 15.509 93.6301 15.8036C93.6708 16.0982 93.6911 16.5535 93.6911 17.1695V33.8015L93.6902 33.9576C93.654 36.9655 92.5699 39.3976 90.4379 41.2538C88.2691 43.1419 85.8292 44.086 83.1182 44.086C81.0578 44.086 79.0923 43.5905 77.2217 42.5996C75.3512 41.6086 74.4159 40.7114 74.4159 39.9079C74.4159 38.8634 74.8225 37.9394 75.6358 37.1359C76.1509 36.5735 76.5508 36.1851 76.8354 35.9709C77.1201 35.7566 77.4522 35.6495 77.8317 35.6495C78.2113 35.6495 78.6044 35.8102 79.011 36.1316C80.3123 37.1225 81.722 37.618 83.2402 37.618C84.2704 37.618 85.1108 37.2163 85.7614 36.4128C86.412 35.6093 86.7374 34.6451 86.7374 33.5203V32.3151L86.6748 32.3946C85.6413 33.6807 84.022 34.3238 81.8169 34.3238C79.5668 34.3238 77.459 33.2993 75.4935 31.2504C73.528 29.2016 72.5453 26.8112 72.5453 24.0794C72.5453 21.3476 73.5348 18.9505 75.5138 16.8883C77.4928 14.826 79.6616 13.7949 82.0202 13.7949C82.942 13.7949 83.7824 13.9623 84.5415 14.2971C85.3005 14.6318 85.8224 14.9398 86.1071 15.2211C86.3917 15.5023 86.6154 15.7634 86.778 16.0045C86.8594 15.2545 87.1372 14.6854 87.6117 14.2971C88.0861 13.9087 88.8519 13.7145 89.9092 13.7145ZM19.4969 5.23785C20.7711 5.23785 22.0656 5.43202 23.3804 5.82037C24.6953 6.20872 25.6916 6.60376 26.3693 7.0055L27.3453 7.56793L27.4482 7.63025C27.8869 7.8967 28.2322 8.11698 28.4839 8.29106C29.1888 8.8535 29.5412 9.48959 29.5412 10.1993C29.5412 10.9091 29.2565 11.6523 28.6872 12.429C27.6299 13.8752 26.6811 14.5984 25.8407 14.5984C25.3527 14.5984 24.6614 14.3038 23.7668 13.7145C22.6281 12.8039 21.11 12.3486 19.2123 12.3486C17.4501 12.3486 15.7151 12.9512 14.0072 14.1565C13.1939 14.7457 12.5161 15.5759 11.9739 16.6472C11.4317 17.7185 11.1606 18.9305 11.1606 20.283C11.1606 21.6355 11.4317 22.8474 11.9739 23.9187C12.5161 24.99 13.2074 25.8337 14.0478 26.4497C15.7015 27.6281 17.423 28.2173 19.2123 28.2173C20.0527 28.2173 20.8457 28.1102 21.5912 27.8959C22.3367 27.6817 22.8721 27.4674 23.1975 27.2531L23.9294 26.7309L24.0271 26.6745C24.8973 26.1764 25.5154 25.9274 25.8813 25.9274C26.7218 25.9274 27.6299 26.6773 28.6059 28.1771C29.2023 29.1145 29.5005 29.8645 29.5005 30.4269C29.5005 30.9893 29.3175 31.458 28.9516 31.833C28.5856 32.2079 28.1586 32.5427 27.6706 32.8373C27.1826 33.1319 26.715 33.4131 26.2677 33.681C25.8203 33.9488 24.9054 34.297 23.5228 34.7255C22.1402 35.154 20.805 35.3683 19.5173 35.3683C18.2295 35.3683 16.9283 35.2009 15.6134 34.8661C14.2986 34.5313 12.9431 33.9689 11.5469 33.1788C10.1508 32.3887 8.89692 31.4245 7.7854 30.2863C6.67389 29.148 5.75893 27.6884 5.04051 25.9073C4.3221 24.1263 3.96289 22.1912 3.96289 20.1022C3.96289 18.0131 4.31532 16.1183 5.02018 14.4176C5.72504 12.7169 6.62645 11.3108 7.72441 10.1993C8.82236 9.08785 10.0762 8.15715 11.4859 7.40724C14.1427 5.96098 16.813 5.23785 19.4969 5.23785ZM42.5339 13.3128C45.4618 13.3128 48.0508 14.3506 50.301 16.4263C52.5511 18.5019 53.6762 21.1467 53.6762 24.3606C53.6762 26.5836 53.0933 28.5588 51.9276 30.2863C50.7618 32.0138 49.3453 33.2859 47.6781 34.1028C46.0108 34.9197 44.2825 35.3281 42.4933 35.3281C40.704 35.3281 38.969 34.8929 37.2882 34.0225C35.6073 33.152 34.1908 31.8665 33.0387 30.1658C31.8865 28.4651 31.3104 26.5434 31.3104 24.4008C31.3104 21.1869 32.449 18.5354 34.7263 16.4464C37.0035 14.3573 39.6061 13.3128 42.5339 13.3128ZM67.5839 13.594C68.221 13.594 68.7564 13.6275 69.1901 13.6945C69.6239 13.7614 70.0983 13.8752 70.6134 14.0359C71.1285 14.1966 71.5555 14.4712 71.8944 14.8595C72.2332 15.2478 72.4027 15.8705 72.4027 16.7276C72.4027 17.5846 72.1451 18.522 71.63 19.5398C71.1149 20.5575 70.3694 21.0664 69.3935 21.0664C68.9055 21.0664 68.4378 20.9592 67.9905 20.745C67.5432 20.5307 66.9536 20.4236 66.2216 20.4236C65.4896 20.4236 64.8051 20.678 64.168 21.1869C63.5309 21.6958 63.2124 22.3118 63.2124 23.0349V31.4714L63.2121 31.5851C63.2098 32.1446 63.1895 32.5687 63.1514 32.8574C63.1107 33.1654 62.9819 33.5203 62.7651 33.922C62.3584 34.6184 61.3011 34.9665 59.5932 34.9665C58.2919 34.9665 57.3566 34.7389 56.7873 34.2836C56.3535 33.9086 56.1096 33.3328 56.0553 32.5561L56.0556 17.1763C56.058 16.6169 56.0782 16.1928 56.1163 15.904C56.157 15.596 56.2722 15.2545 56.462 14.8796C56.8415 14.1565 57.8988 13.7949 59.6339 13.7949C61.2605 13.7949 62.2771 14.1029 62.6837 14.7189C62.9819 15.1474 63.131 15.5893 63.131 16.0446C63.2666 15.8571 63.4631 15.6295 63.7207 15.3617C63.9782 15.0938 64.5272 14.7323 65.3676 14.277C66.208 13.8217 66.9468 13.594 67.5839 13.594ZM100.259 13.8351C101.56 13.8351 102.482 14.0627 103.024 14.518C103.485 14.893 103.729 15.4688 103.756 16.2455C103.783 16.5133 103.797 16.9017 103.797 17.4105V31.4714L103.796 31.5851C103.794 32.1446 103.774 32.5687 103.736 32.8574C103.695 33.1654 103.566 33.5203 103.349 33.922C102.997 34.6184 101.953 34.9665 100.218 34.9665C98.5102 34.9665 97.4664 34.605 97.0869 33.8818C96.8971 33.4801 96.7819 33.1319 96.7412 32.8373C96.703 32.56 96.6827 32.1286 96.6804 31.5429L96.6805 17.2165C96.6829 16.657 96.7031 16.2329 96.7412 15.9442C96.7819 15.6362 96.8971 15.2813 97.0869 14.8796C97.4664 14.1832 98.5237 13.8351 100.259 13.8351ZM42.4933 20.3834C41.5173 20.3834 40.6091 20.7182 39.7687 21.3878C38.9283 22.0573 38.5081 23.0416 38.5081 24.3405C38.5081 25.6395 38.9419 26.6238 39.8094 27.2933C40.6769 27.9361 41.558 28.2575 42.4526 28.2575C43.3472 28.2575 44.2419 27.9227 45.1365 27.2531C46.0311 26.5836 46.4784 25.5926 46.4784 24.2803C46.4784 22.9679 46.0582 21.9904 45.2178 21.3476C44.3774 20.7048 43.4692 20.3834 42.4933 20.3834ZM83.0368 20.6245C81.9796 20.6245 81.1256 20.986 80.4749 21.7091C79.8243 22.4323 79.499 23.2358 79.499 24.1196C79.499 24.9766 79.8446 25.7533 80.5359 26.4497C81.2272 27.146 82.0677 27.4942 83.0572 27.4942C84.0467 27.4942 84.8668 27.1393 85.5174 26.4296C86.1681 25.7198 86.4934 24.9431 86.4934 24.0995C86.4934 23.2558 86.1816 22.4658 85.5581 21.7292C84.9345 20.9927 84.0941 20.6245 83.0368 20.6245ZM19.0142 16.4338C21.2018 16.4338 22.9751 18.1858 22.9751 20.3469C22.9751 22.508 21.2018 24.2599 19.0142 24.2599C16.8267 24.2599 15.0534 22.508 15.0534 20.3469C15.0534 18.1858 16.8267 16.4338 19.0142 16.4338ZM100.259 3.91211C101.967 3.91211 102.997 4.27367 103.349 4.99681C103.566 5.39854 103.695 5.75341 103.736 6.06141C103.776 6.36941 103.797 6.83141 103.797 7.44741C103.797 8.06341 103.776 8.52541 103.736 8.83341C103.695 9.14141 103.566 9.49628 103.349 9.89802C103.16 10.273 102.807 10.5408 102.292 10.7015C101.777 10.8622 101.092 10.9425 100.238 10.9425C99.3845 10.9425 98.6999 10.8622 98.1848 10.7015C97.6697 10.5408 97.3105 10.2596 97.1072 9.85785C96.9039 9.45611 96.7819 9.10124 96.7412 8.79324C96.7031 8.50449 96.6829 8.08039 96.6805 7.52093V7.29354C96.6829 6.73409 96.7031 6.30999 96.7412 6.02124C96.7819 5.71324 96.8971 5.37176 97.0869 4.99681C97.4664 4.27367 98.5237 3.91211 100.259 3.91211Z" fill="url(#paint2_linear_4860_201946)"/>
<path d="M89.9092 13.7145C90.9665 13.7145 91.7392 13.7949 92.2271 13.9556C92.7151 14.1163 93.0608 14.3908 93.2641 14.7792C93.4674 15.1675 93.5894 15.509 93.6301 15.8036C93.6708 16.0982 93.6911 16.5535 93.6911 17.1695V33.8015L93.6902 33.9576C93.654 36.9655 92.5699 39.3976 90.4379 41.2538C88.2691 43.1419 85.8292 44.086 83.1182 44.086C81.0578 44.086 79.0923 43.5905 77.2217 42.5996C75.3512 41.6086 74.4159 40.7114 74.4159 39.9079C74.4159 38.8634 74.8225 37.9394 75.6358 37.1359C76.1509 36.5735 76.5508 36.1851 76.8354 35.9709C77.1201 35.7566 77.4522 35.6495 77.8317 35.6495C78.2113 35.6495 78.6044 35.8102 79.011 36.1316C80.3123 37.1225 81.722 37.618 83.2402 37.618C84.2704 37.618 85.1108 37.2163 85.7614 36.4128C86.412 35.6093 86.7374 34.6451 86.7374 33.5203V32.3151L86.6748 32.3946C85.6413 33.6807 84.022 34.3238 81.8169 34.3238C79.5668 34.3238 77.459 33.2993 75.4935 31.2504C73.528 29.2016 72.5453 26.8112 72.5453 24.0794C72.5453 21.3476 73.5348 18.9505 75.5138 16.8883C77.4928 14.826 79.6616 13.7949 82.0202 13.7949C82.942 13.7949 83.7824 13.9623 84.5415 14.2971C85.3005 14.6318 85.8224 14.9398 86.1071 15.2211C86.3917 15.5023 86.6154 15.7634 86.778 16.0045C86.8594 15.2545 87.1372 14.6854 87.6117 14.2971C88.0861 13.9087 88.8519 13.7145 89.9092 13.7145ZM19.4969 5.23785C20.7711 5.23785 22.0656 5.43202 23.3804 5.82037C24.6953 6.20872 25.6916 6.60376 26.3693 7.0055L27.3453 7.56793L27.4482 7.63025C27.8869 7.8967 28.2322 8.11698 28.4839 8.29106C29.1888 8.8535 29.5412 9.48959 29.5412 10.1993C29.5412 10.9091 29.2565 11.6523 28.6872 12.429C27.6299 13.8752 26.6811 14.5984 25.8407 14.5984C25.3527 14.5984 24.6614 14.3038 23.7668 13.7145C22.6281 12.8039 21.11 12.3486 19.2123 12.3486C17.4501 12.3486 15.7151 12.9512 14.0072 14.1565C13.1939 14.7457 12.5161 15.5759 11.9739 16.6472C11.4317 17.7185 11.1606 18.9305 11.1606 20.283C11.1606 21.6355 11.4317 22.8474 11.9739 23.9187C12.5161 24.99 13.2074 25.8337 14.0478 26.4497C15.7015 27.6281 17.423 28.2173 19.2123 28.2173C20.0527 28.2173 20.8457 28.1102 21.5912 27.8959C22.3367 27.6817 22.8721 27.4674 23.1975 27.2531L23.9294 26.7309L24.0271 26.6745C24.8973 26.1764 25.5154 25.9274 25.8813 25.9274C26.7218 25.9274 27.6299 26.6773 28.6059 28.1771C29.2023 29.1145 29.5005 29.8645 29.5005 30.4269C29.5005 30.9893 29.3175 31.458 28.9516 31.833C28.5856 32.2079 28.1586 32.5427 27.6706 32.8373C27.1826 33.1319 26.715 33.4131 26.2677 33.681C25.8203 33.9488 24.9054 34.297 23.5228 34.7255C22.1402 35.154 20.805 35.3683 19.5173 35.3683C18.2295 35.3683 16.9283 35.2009 15.6134 34.8661C14.2986 34.5313 12.9431 33.9689 11.5469 33.1788C10.1508 32.3887 8.89692 31.4245 7.7854 30.2863C6.67389 29.148 5.75893 27.6884 5.04051 25.9073C4.3221 24.1263 3.96289 22.1912 3.96289 20.1022C3.96289 18.0131 4.31532 16.1183 5.02018 14.4176C5.72504 12.7169 6.62645 11.3108 7.72441 10.1993C8.82236 9.08785 10.0762 8.15715 11.4859 7.40724C14.1427 5.96098 16.813 5.23785 19.4969 5.23785ZM42.5339 13.3128C45.4618 13.3128 48.0508 14.3506 50.301 16.4263C52.5511 18.5019 53.6762 21.1467 53.6762 24.3606C53.6762 26.5836 53.0933 28.5588 51.9276 30.2863C50.7618 32.0138 49.3453 33.2859 47.6781 34.1028C46.0108 34.9197 44.2825 35.3281 42.4933 35.3281C40.704 35.3281 38.969 34.8929 37.2882 34.0225C35.6073 33.152 34.1908 31.8665 33.0387 30.1658C31.8865 28.4651 31.3104 26.5434 31.3104 24.4008C31.3104 21.1869 32.449 18.5354 34.7263 16.4464C37.0035 14.3573 39.6061 13.3128 42.5339 13.3128ZM67.5839 13.594C68.221 13.594 68.7564 13.6275 69.1901 13.6945C69.6239 13.7614 70.0983 13.8752 70.6134 14.0359C71.1285 14.1966 71.5555 14.4712 71.8944 14.8595C72.2332 15.2478 72.4027 15.8705 72.4027 16.7276C72.4027 17.5846 72.1451 18.522 71.63 19.5398C71.1149 20.5575 70.3694 21.0664 69.3935 21.0664C68.9055 21.0664 68.4378 20.9592 67.9905 20.745C67.5432 20.5307 66.9536 20.4236 66.2216 20.4236C65.4896 20.4236 64.8051 20.678 64.168 21.1869C63.5309 21.6958 63.2124 22.3118 63.2124 23.0349V31.4714L63.2121 31.5851C63.2098 32.1446 63.1895 32.5687 63.1514 32.8574C63.1107 33.1654 62.9819 33.5203 62.7651 33.922C62.3584 34.6184 61.3011 34.9665 59.5932 34.9665C58.2919 34.9665 57.3566 34.7389 56.7873 34.2836C56.3535 33.9086 56.1096 33.3328 56.0553 32.5561L56.0556 17.1763C56.058 16.6169 56.0782 16.1928 56.1163 15.904C56.157 15.596 56.2722 15.2545 56.462 14.8796C56.8415 14.1565 57.8988 13.7949 59.6339 13.7949C61.2605 13.7949 62.2771 14.1029 62.6837 14.7189C62.9819 15.1474 63.131 15.5893 63.131 16.0446C63.2666 15.8571 63.4631 15.6295 63.7207 15.3617C63.9782 15.0938 64.5272 14.7323 65.3676 14.277C66.208 13.8217 66.9468 13.594 67.5839 13.594ZM100.259 13.8351C101.56 13.8351 102.482 14.0627 103.024 14.518C103.485 14.893 103.729 15.4688 103.756 16.2455C103.783 16.5133 103.797 16.9017 103.797 17.4105V31.4714L103.796 31.5851C103.794 32.1446 103.774 32.5687 103.736 32.8574C103.695 33.1654 103.566 33.5203 103.349 33.922C102.997 34.6184 101.953 34.9665 100.218 34.9665C98.5102 34.9665 97.4664 34.605 97.0869 33.8818C96.8971 33.4801 96.7819 33.1319 96.7412 32.8373C96.703 32.56 96.6827 32.1286 96.6804 31.5429L96.6805 17.2165C96.6829 16.657 96.7031 16.2329 96.7412 15.9442C96.7819 15.6362 96.8971 15.2813 97.0869 14.8796C97.4664 14.1832 98.5237 13.8351 100.259 13.8351ZM42.4933 20.3834C41.5173 20.3834 40.6091 20.7182 39.7687 21.3878C38.9283 22.0573 38.5081 23.0416 38.5081 24.3405C38.5081 25.6395 38.9419 26.6238 39.8094 27.2933C40.6769 27.9361 41.558 28.2575 42.4526 28.2575C43.3472 28.2575 44.2419 27.9227 45.1365 27.2531C46.0311 26.5836 46.4784 25.5926 46.4784 24.2803C46.4784 22.9679 46.0582 21.9904 45.2178 21.3476C44.3774 20.7048 43.4692 20.3834 42.4933 20.3834ZM83.0368 20.6245C81.9796 20.6245 81.1256 20.986 80.4749 21.7091C79.8243 22.4323 79.499 23.2358 79.499 24.1196C79.499 24.9766 79.8446 25.7533 80.5359 26.4497C81.2272 27.146 82.0677 27.4942 83.0572 27.4942C84.0467 27.4942 84.8668 27.1393 85.5174 26.4296C86.1681 25.7198 86.4934 24.9431 86.4934 24.0995C86.4934 23.2558 86.1816 22.4658 85.5581 21.7292C84.9345 20.9927 84.0941 20.6245 83.0368 20.6245ZM19.0142 16.4338C21.2018 16.4338 22.9751 18.1858 22.9751 20.3469C22.9751 22.508 21.2018 24.2599 19.0142 24.2599C16.8267 24.2599 15.0534 22.508 15.0534 20.3469C15.0534 18.1858 16.8267 16.4338 19.0142 16.4338ZM100.259 3.91211C101.967 3.91211 102.997 4.27367 103.349 4.99681C103.566 5.39854 103.695 5.75341 103.736 6.06141C103.776 6.36941 103.797 6.83141 103.797 7.44741C103.797 8.06341 103.776 8.52541 103.736 8.83341C103.695 9.14141 103.566 9.49628 103.349 9.89802C103.16 10.273 102.807 10.5408 102.292 10.7015C101.777 10.8622 101.092 10.9425 100.238 10.9425C99.3845 10.9425 98.6999 10.8622 98.1848 10.7015C97.6697 10.5408 97.3105 10.2596 97.1072 9.85785C96.9039 9.45611 96.7819 9.10124 96.7412 8.79324C96.7031 8.50449 96.6829 8.08039 96.6805 7.52093V7.29354C96.6829 6.73409 96.7031 6.30999 96.7412 6.02124C96.7819 5.71324 96.8971 5.37176 97.0869 4.99681C97.4664 4.27367 98.5237 3.91211 100.259 3.91211Z" stroke="black" stroke-opacity="0.12" stroke-width="2.4" mask="url(#path-3-outside-1_4860_201946)"/>
<path d="M89.9092 13.7145C90.9665 13.7145 91.7392 13.7949 92.2271 13.9556C92.7151 14.1163 93.0608 14.3908 93.2641 14.7792C93.4674 15.1675 93.5894 15.509 93.6301 15.8036C93.6708 16.0982 93.6911 16.5535 93.6911 17.1695V33.8015L93.6902 33.9576C93.654 36.9655 92.5699 39.3976 90.4379 41.2538C88.2691 43.1419 85.8292 44.086 83.1182 44.086C81.0578 44.086 79.0923 43.5905 77.2217 42.5996C75.3512 41.6086 74.4159 40.7114 74.4159 39.9079C74.4159 38.8634 74.8225 37.9394 75.6358 37.1359C76.1509 36.5735 76.5508 36.1851 76.8354 35.9709C77.1201 35.7566 77.4522 35.6495 77.8317 35.6495C78.2113 35.6495 78.6044 35.8102 79.011 36.1316C80.3123 37.1225 81.722 37.618 83.2402 37.618C84.2704 37.618 85.1108 37.2163 85.7614 36.4128C86.412 35.6093 86.7374 34.6451 86.7374 33.5203V32.3151L86.6748 32.3946C85.6413 33.6807 84.022 34.3238 81.8169 34.3238C79.5668 34.3238 77.459 33.2993 75.4935 31.2504C73.528 29.2016 72.5453 26.8112 72.5453 24.0794C72.5453 21.3476 73.5348 18.9505 75.5138 16.8883C77.4928 14.826 79.6616 13.7949 82.0202 13.7949C82.942 13.7949 83.7824 13.9623 84.5415 14.2971C85.3005 14.6318 85.8224 14.9398 86.1071 15.2211C86.3917 15.5023 86.6154 15.7634 86.778 16.0045C86.8594 15.2545 87.1372 14.6854 87.6117 14.2971C88.0861 13.9087 88.8519 13.7145 89.9092 13.7145ZM19.4969 5.23785C20.7711 5.23785 22.0656 5.43202 23.3804 5.82037C24.6953 6.20872 25.6916 6.60376 26.3693 7.0055L27.3453 7.56793L27.4482 7.63025C27.8869 7.8967 28.2322 8.11698 28.4839 8.29106C29.1888 8.8535 29.5412 9.48959 29.5412 10.1993C29.5412 10.9091 29.2565 11.6523 28.6872 12.429C27.6299 13.8752 26.6811 14.5984 25.8407 14.5984C25.3527 14.5984 24.6614 14.3038 23.7668 13.7145C22.6281 12.8039 21.11 12.3486 19.2123 12.3486C17.4501 12.3486 15.7151 12.9512 14.0072 14.1565C13.1939 14.7457 12.5161 15.5759 11.9739 16.6472C11.4317 17.7185 11.1606 18.9305 11.1606 20.283C11.1606 21.6355 11.4317 22.8474 11.9739 23.9187C12.5161 24.99 13.2074 25.8337 14.0478 26.4497C15.7015 27.6281 17.423 28.2173 19.2123 28.2173C20.0527 28.2173 20.8457 28.1102 21.5912 27.8959C22.3367 27.6817 22.8721 27.4674 23.1975 27.2531L23.9294 26.7309L24.0271 26.6745C24.8973 26.1764 25.5154 25.9274 25.8813 25.9274C26.7218 25.9274 27.6299 26.6773 28.6059 28.1771C29.2023 29.1145 29.5005 29.8645 29.5005 30.4269C29.5005 30.9893 29.3175 31.458 28.9516 31.833C28.5856 32.2079 28.1586 32.5427 27.6706 32.8373C27.1826 33.1319 26.715 33.4131 26.2677 33.681C25.8203 33.9488 24.9054 34.297 23.5228 34.7255C22.1402 35.154 20.805 35.3683 19.5173 35.3683C18.2295 35.3683 16.9283 35.2009 15.6134 34.8661C14.2986 34.5313 12.9431 33.9689 11.5469 33.1788C10.1508 32.3887 8.89692 31.4245 7.7854 30.2863C6.67389 29.148 5.75893 27.6884 5.04051 25.9073C4.3221 24.1263 3.96289 22.1912 3.96289 20.1022C3.96289 18.0131 4.31532 16.1183 5.02018 14.4176C5.72504 12.7169 6.62645 11.3108 7.72441 10.1993C8.82236 9.08785 10.0762 8.15715 11.4859 7.40724C14.1427 5.96098 16.813 5.23785 19.4969 5.23785ZM42.5339 13.3128C45.4618 13.3128 48.0508 14.3506 50.301 16.4263C52.5511 18.5019 53.6762 21.1467 53.6762 24.3606C53.6762 26.5836 53.0933 28.5588 51.9276 30.2863C50.7618 32.0138 49.3453 33.2859 47.6781 34.1028C46.0108 34.9197 44.2825 35.3281 42.4933 35.3281C40.704 35.3281 38.969 34.8929 37.2882 34.0225C35.6073 33.152 34.1908 31.8665 33.0387 30.1658C31.8865 28.4651 31.3104 26.5434 31.3104 24.4008C31.3104 21.1869 32.449 18.5354 34.7263 16.4464C37.0035 14.3573 39.6061 13.3128 42.5339 13.3128ZM67.5839 13.594C68.221 13.594 68.7564 13.6275 69.1901 13.6945C69.6239 13.7614 70.0983 13.8752 70.6134 14.0359C71.1285 14.1966 71.5555 14.4712 71.8944 14.8595C72.2332 15.2478 72.4027 15.8705 72.4027 16.7276C72.4027 17.5846 72.1451 18.522 71.63 19.5398C71.1149 20.5575 70.3694 21.0664 69.3935 21.0664C68.9055 21.0664 68.4378 20.9592 67.9905 20.745C67.5432 20.5307 66.9536 20.4236 66.2216 20.4236C65.4896 20.4236 64.8051 20.678 64.168 21.1869C63.5309 21.6958 63.2124 22.3118 63.2124 23.0349V31.4714L63.2121 31.5851C63.2098 32.1446 63.1895 32.5687 63.1514 32.8574C63.1107 33.1654 62.9819 33.5203 62.7651 33.922C62.3584 34.6184 61.3011 34.9665 59.5932 34.9665C58.2919 34.9665 57.3566 34.7389 56.7873 34.2836C56.3535 33.9086 56.1096 33.3328 56.0553 32.5561L56.0556 17.1763C56.058 16.6169 56.0782 16.1928 56.1163 15.904C56.157 15.596 56.2722 15.2545 56.462 14.8796C56.8415 14.1565 57.8988 13.7949 59.6339 13.7949C61.2605 13.7949 62.2771 14.1029 62.6837 14.7189C62.9819 15.1474 63.131 15.5893 63.131 16.0446C63.2666 15.8571 63.4631 15.6295 63.7207 15.3617C63.9782 15.0938 64.5272 14.7323 65.3676 14.277C66.208 13.8217 66.9468 13.594 67.5839 13.594ZM100.259 13.8351C101.56 13.8351 102.482 14.0627 103.024 14.518C103.485 14.893 103.729 15.4688 103.756 16.2455C103.783 16.5133 103.797 16.9017 103.797 17.4105V31.4714L103.796 31.5851C103.794 32.1446 103.774 32.5687 103.736 32.8574C103.695 33.1654 103.566 33.5203 103.349 33.922C102.997 34.6184 101.953 34.9665 100.218 34.9665C98.5102 34.9665 97.4664 34.605 97.0869 33.8818C96.8971 33.4801 96.7819 33.1319 96.7412 32.8373C96.703 32.56 96.6827 32.1286 96.6804 31.5429L96.6805 17.2165C96.6829 16.657 96.7031 16.2329 96.7412 15.9442C96.7819 15.6362 96.8971 15.2813 97.0869 14.8796C97.4664 14.1832 98.5237 13.8351 100.259 13.8351ZM42.4933 20.3834C41.5173 20.3834 40.6091 20.7182 39.7687 21.3878C38.9283 22.0573 38.5081 23.0416 38.5081 24.3405C38.5081 25.6395 38.9419 26.6238 39.8094 27.2933C40.6769 27.9361 41.558 28.2575 42.4526 28.2575C43.3472 28.2575 44.2419 27.9227 45.1365 27.2531C46.0311 26.5836 46.4784 25.5926 46.4784 24.2803C46.4784 22.9679 46.0582 21.9904 45.2178 21.3476C44.3774 20.7048 43.4692 20.3834 42.4933 20.3834ZM83.0368 20.6245C81.9796 20.6245 81.1256 20.986 80.4749 21.7091C79.8243 22.4323 79.499 23.2358 79.499 24.1196C79.499 24.9766 79.8446 25.7533 80.5359 26.4497C81.2272 27.146 82.0677 27.4942 83.0572 27.4942C84.0467 27.4942 84.8668 27.1393 85.5174 26.4296C86.1681 25.7198 86.4934 24.9431 86.4934 24.0995C86.4934 23.2558 86.1816 22.4658 85.5581 21.7292C84.9345 20.9927 84.0941 20.6245 83.0368 20.6245ZM19.0142 16.4338C21.2018 16.4338 22.9751 18.1858 22.9751 20.3469C22.9751 22.508 21.2018 24.2599 19.0142 24.2599C16.8267 24.2599 15.0534 22.508 15.0534 20.3469C15.0534 18.1858 16.8267 16.4338 19.0142 16.4338ZM100.259 3.91211C101.967 3.91211 102.997 4.27367 103.349 4.99681C103.566 5.39854 103.695 5.75341 103.736 6.06141C103.776 6.36941 103.797 6.83141 103.797 7.44741C103.797 8.06341 103.776 8.52541 103.736 8.83341C103.695 9.14141 103.566 9.49628 103.349 9.89802C103.16 10.273 102.807 10.5408 102.292 10.7015C101.777 10.8622 101.092 10.9425 100.238 10.9425C99.3845 10.9425 98.6999 10.8622 98.1848 10.7015C97.6697 10.5408 97.3105 10.2596 97.1072 9.85785C96.9039 9.45611 96.7819 9.10124 96.7412 8.79324C96.7031 8.50449 96.6829 8.08039 96.6805 7.52093V7.29354C96.6829 6.73409 96.7031 6.30999 96.7412 6.02124C96.7819 5.71324 96.8971 5.37176 97.0869 4.99681C97.4664 4.27367 98.5237 3.91211 100.259 3.91211Z" fill="url(#paint3_linear_4860_201946)"/>
</g>
<defs>
<linearGradient id="paint0_linear_4860_201946" x1="53.8777" y1="0" x2="53.8777" y2="48" gradientUnits="userSpaceOnUse">
<stop stop-color="#FFBB55"/>
<stop offset="0.999481" stop-color="#FB9A41"/>
</linearGradient>
<linearGradient id="paint1_linear_4860_201946" x1="53.8777" y1="0" x2="53.8777" y2="48" gradientUnits="userSpaceOnUse">
<stop stop-color="#FFBB55"/>
<stop offset="0.999481" stop-color="#FB9A41"/>
</linearGradient>
<linearGradient id="paint2_linear_4860_201946" x1="53.8798" y1="3.91211" x2="53.8798" y2="44.086" gradientUnits="userSpaceOnUse">
<stop stop-color="white"/>
<stop offset="0.999481" stop-color="#FFF6EC"/>
</linearGradient>
<linearGradient id="paint3_linear_4860_201946" x1="53.8798" y1="3.91211" x2="53.8798" y2="44.086" gradientUnits="userSpaceOnUse">
<stop stop-color="white"/>
<stop offset="0.999481" stop-color="#FFF6EC"/>
</linearGradient>
</defs>
</svg>
