<svg width="24" height="24" viewBox="0 0 24 24" fill="none" xmlns="http://www.w3.org/2000/svg">
<path fill-rule="evenodd" clip-rule="evenodd" d="M8.64504 3.09509C9.65276 2.08735 11.1151 1.75 12.8324 1.75H16.7174C18.4348 1.75 19.8971 2.08735 20.9048 3.09509C21.9125 4.10282 22.2499 5.56514 22.2499 7.28252V11.1675C22.2499 12.8849 21.9125 14.3472 20.9048 15.355C19.8971 16.3627 18.4348 16.7001 16.7174 16.7001H16.6999V16.7173C16.6999 18.4347 16.3625 19.897 15.3548 20.9047C14.3471 21.9125 12.8848 22.2498 11.1674 22.2498H7.28246C5.56509 22.2498 4.10279 21.9125 3.09507 20.9047C2.08735 19.897 1.75 18.4347 1.75 16.7173V12.8323C1.75 11.1149 2.08735 9.65259 3.09507 8.64486C4.10279 7.63712 5.56509 7.29977 7.28246 7.29977H7.29997V7.28252C7.29997 5.56514 7.63732 4.10282 8.64504 3.09509ZM14.6683 12.0506C14.6771 12.1515 14.6842 12.2565 14.6893 12.3659C14.6963 12.5133 14.6999 12.6687 14.6999 12.8323V16.7173C14.6999 18.2374 14.3897 19.0414 13.9406 19.4905C13.4915 19.9397 12.6875 20.2498 11.1674 20.2498H7.28246C5.76236 20.2498 4.95843 19.9397 4.50929 19.4905C4.06015 19.0414 3.75 18.2374 3.75 16.7173V12.8323C3.75 11.3122 4.06015 10.5082 4.50929 10.0591C4.95843 9.60992 5.76236 9.29977 7.28246 9.29977H8.27716L8.29997 9.30002H11.1674C12.6876 9.30002 13.4915 9.61017 13.9406 10.0593C14.3055 10.4243 14.5787 11.0234 14.6683 12.0506ZM16.6999 12.8325C16.6999 12.5457 16.6905 12.266 16.6701 11.9943C16.5686 10.6393 16.1943 9.48434 15.3548 8.64486C14.3471 7.63712 12.8848 7.29977 11.1674 7.29977H9.29997V7.28252C9.29997 5.76239 9.61012 4.95844 10.0593 4.50929C10.5084 4.06015 11.3123 3.75 12.8324 3.75H16.7174C18.2375 3.75 19.0414 4.06015 19.4906 4.50929C19.9397 4.95844 20.2499 5.76239 20.2499 7.28252V11.1675C20.2499 12.6877 19.9397 13.4916 19.4906 13.9408C19.0414 14.3899 18.2375 14.7001 16.7174 14.7001H16.6999V12.8325ZM12.4565 13.5009C12.749 13.2077 12.7484 12.7328 12.4552 12.4403C12.1619 12.1477 11.687 12.1484 11.3945 12.4416L8.32694 15.5171L7.05438 14.2445C6.76149 13.9516 6.28662 13.9516 5.99372 14.2445C5.70083 14.5374 5.70083 15.0123 5.99372 15.3052L7.7973 17.1087C7.93807 17.2495 8.12903 17.3285 8.32811 17.3284C8.52719 17.3283 8.71805 17.249 8.85864 17.1081L12.4565 13.5009Z" fill="white"/>
</svg>
