<svg width="24" height="24" viewBox="0 0 24 24" fill="none" xmlns="http://www.w3.org/2000/svg">
<path d="M21.54 5.84961C21.54 8.05875 19.7492 9.84961 17.54 9.84961C15.3309 9.84961 13.54 8.05875 13.54 5.84961C13.54 3.64047 15.3309 1.84961 17.54 1.84961C19.7492 1.84961 21.54 3.64047 21.54 5.84961Z" stroke="currentColor" stroke-width="3"/>
<path d="M6.45996 8.34961C7.84067 8.34961 8.95996 7.23032 8.95996 5.84961C8.95996 4.4689 7.84067 3.34961 6.45996 3.34961C5.07925 3.34961 3.95996 4.4689 3.95996 5.84961C3.95996 7.23032 5.07925 8.34961 6.45996 8.34961Z" fill="currentColor"/>
<path d="M17.54 20.6504C18.9208 20.6504 20.04 19.5311 20.04 18.1504C20.04 16.7697 18.9208 15.6504 17.54 15.6504C16.1593 15.6504 15.04 16.7697 15.04 18.1504C15.04 19.5311 16.1593 20.6504 17.54 20.6504Z" fill="currentColor"/>
<path d="M6.45996 22.1504C8.6691 22.1504 10.46 20.3595 10.46 18.1504C10.46 15.9413 8.6691 14.1504 6.45996 14.1504C4.25082 14.1504 2.45996 15.9413 2.45996 18.1504C2.45996 20.3595 4.25082 22.1504 6.45996 22.1504Z" fill="currentColor"/>
</svg>
