<svg width="24" height="24" viewBox="0 0 24 24" fill="currentColor" xmlns="http://www.w3.org/2000/svg">
<path fill-rule="evenodd" clip-rule="evenodd" d="M4.18118 1.53014L16.2084 8.15639L13.3673 10.8719L3.93931 1.85686C3.76962 1.69373 3.96649 1.41342 4.17368 1.52592L4.18118 1.53014ZM2.25 21.2102V2.78828C2.25012 2.74831 2.26204 2.70927 2.28427 2.67605C2.30649 2.64283 2.33803 2.61691 2.37492 2.60154C2.41182 2.58617 2.45243 2.58204 2.49166 2.58966C2.5309 2.59728 2.56701 2.61631 2.59547 2.64437L12.1875 11.9997L2.59547 21.3541C2.56701 21.3821 2.5309 21.4012 2.49166 21.4088C2.45243 21.4164 2.41182 21.4123 2.37492 21.3969C2.33803 21.3815 2.30649 21.3556 2.28427 21.3224C2.26204 21.2892 2.25012 21.2501 2.25 21.2102ZM3.93986 22.1429C3.76923 22.306 3.96611 22.5863 4.17423 22.4738L4.18173 22.4696L16.208 15.8434L13.3669 13.127L3.93986 22.1429ZM17.7048 8.97852L21.0634 10.8282C21.977 11.333 21.977 12.6671 21.0634 13.172L17.7048 15.0202L14.5469 12.0001L17.7048 8.97852Z" fill="currentColor"/>
</svg>
