<svg width="25" height="26" viewBox="0 0 25 26" fill="none" xmlns="http://www.w3.org/2000/svg">
<path fill-rule="evenodd" clip-rule="evenodd" d="M12.4178 4.11574C11.6785 4.79405 11.1721 5.93862 11.0224 7.90472C10.9752 8.52425 10.4347 8.98823 9.81521 8.94105C9.19568 8.89387 8.7317 8.3534 8.77888 7.73387C8.949 5.49997 9.55692 3.68704 10.8966 2.45785C12.234 1.23074 14.0899 0.779297 16.3078 0.779297H16.4419C18.8919 0.779297 20.8968 1.33227 22.2435 2.85507C23.5587 4.34231 24.0256 6.51505 24.0256 9.20763V16.8143C24.0256 19.5069 23.5587 21.6796 22.2435 23.1669C20.8968 24.6897 18.8919 25.2426 16.4419 25.2426H16.3078C14.1061 25.2426 12.2618 24.7974 10.927 23.5898C9.58791 22.3785 8.97131 20.5907 8.78976 18.3884C8.73871 17.7692 9.1993 17.2258 9.81852 17.1748C10.4377 17.1237 10.9811 17.5843 11.0321 18.2035C11.1911 20.1312 11.6991 21.2543 12.4364 21.9213C13.1779 22.5921 14.3618 22.9926 16.3078 22.9926H16.4419C18.6038 22.9926 19.8283 22.5014 20.558 21.6763C21.3191 20.8156 21.7756 19.3367 21.7756 16.8143V9.20763C21.7756 6.68521 21.3191 5.20629 20.558 4.34561C19.8283 3.52049 18.6038 3.0293 16.4419 3.0293H16.3078C14.347 3.0293 13.1593 3.43535 12.4178 4.11574ZM3.86248 11.8743L5.85031 9.88644C6.28965 9.4471 6.28965 8.73479 5.85031 8.29545C5.41097 7.85611 4.69866 7.85611 4.25932 8.29545L0.350989 12.2038C-0.0883506 12.6431 -0.0883506 13.3554 0.350989 13.7948L4.25932 17.7031C4.69866 18.1424 5.41097 18.1424 5.85031 17.7031C6.28965 17.2638 6.28965 16.5515 5.85031 16.1121L3.86247 14.1243H15.7298C16.3511 14.1243 16.8548 13.6206 16.8548 12.9993C16.8548 12.3779 16.3511 11.8743 15.7298 11.8743H3.86248Z" fill="#0158FF"/>
</svg>
