<svg width="25" height="26" viewBox="0 0 25 26" fill="none" xmlns="http://www.w3.org/2000/svg">
<g opacity="0.4">
<path fill-rule="evenodd" clip-rule="evenodd" d="M12.417 4.11574C11.6777 4.79405 11.1714 5.93862 11.0217 7.90472C10.9745 8.52425 10.434 8.98823 9.81448 8.94105C9.19495 8.89387 8.73097 8.3534 8.77815 7.73387C8.94827 5.49997 9.55619 3.68704 10.8959 2.45785C12.2333 1.23074 14.0892 0.779297 16.307 0.779297H16.4412C18.8911 0.779297 20.896 1.33227 22.2427 2.85507C23.558 4.34231 24.0249 6.51505 24.0249 9.20763V16.8143C24.0249 19.5069 23.558 21.6796 22.2427 23.1669C20.896 24.6897 18.8911 25.2426 16.4412 25.2426H16.307C14.1054 25.2426 12.2611 24.7974 10.9262 23.5898C9.58718 22.3785 8.97058 20.5907 8.78902 18.3884C8.73798 17.7692 9.19857 17.2258 9.81779 17.1748C10.437 17.1237 10.9804 17.5843 11.0314 18.2035C11.1903 20.1312 11.6983 21.2543 12.4357 21.9213C13.1772 22.5921 14.3611 22.9926 16.307 22.9926H16.4412C18.6031 22.9926 19.8276 22.5014 20.5573 21.6763C21.3184 20.8156 21.7749 19.3367 21.7749 16.8143V9.20763C21.7749 6.68521 21.3184 5.20629 20.5573 4.34561C19.8276 3.52049 18.6031 3.0293 16.4412 3.0293H16.307C14.3463 3.0293 13.1586 3.43535 12.417 4.11574ZM3.86175 11.8743L5.84958 9.88644C6.28892 9.4471 6.28892 8.73479 5.84958 8.29545C5.41024 7.85611 4.69793 7.85611 4.25859 8.29545L0.350257 12.2038C-0.089083 12.6431 -0.089083 13.3554 0.350257 13.7948L4.25859 17.7031C4.69793 18.1424 5.41024 18.1424 5.84958 17.7031C6.28892 17.2638 6.28892 16.5515 5.84958 16.1121L3.86173 14.1243H15.7291C16.3504 14.1243 16.8541 13.6206 16.8541 12.9993C16.8541 12.3779 16.3504 11.8743 15.7291 11.8743H3.86175Z" fill="white"/>
</g>
</svg>
