<svg width="26" height="26" viewBox="0 0 26 26" fill="none" xmlns="http://www.w3.org/2000/svg"><path fill-rule="evenodd" clip-rule="evenodd" d="M9.93024 8.07078C10.0972 6.23737 10.6516 5.18791 11.4867 4.54734C12.3705 3.86935 13.8046 3.46289 16.1281 3.46289H16.2839C18.8531 3.46289 20.3289 3.95859 21.1855 4.76839C22.0244 5.56146 22.5365 6.91266 22.5365 9.3057V16.6931C22.5365 19.0861 22.0244 20.4374 21.1855 21.2304C20.3289 22.0402 18.8531 22.5359 16.2839 22.5359H16.1281C13.8224 22.5359 12.3929 22.1351 11.5083 21.4661C10.6738 20.835 10.1184 19.8046 9.94135 18.0094C9.8736 17.3224 9.26174 16.8204 8.57472 16.8881C7.88769 16.9558 7.38567 17.5677 7.45341 18.2547C7.67191 20.4705 8.42286 22.2671 10.0003 23.4601C11.5277 24.6152 13.6158 25.0359 16.1281 25.0359H16.2839C19.072 25.0359 21.3475 24.5176 22.9029 23.0471C24.476 21.5599 25.0365 19.3647 25.0365 16.6931V9.3057C25.0365 6.63407 24.476 4.43887 22.9029 2.9517C21.3475 1.48126 19.072 0.962891 16.2839 0.962891H16.1281C13.5977 0.962891 11.4962 1.38922 9.96504 2.56374C8.38511 3.77569 7.64509 5.59848 7.44055 7.844C7.37793 8.53151 7.8845 9.13961 8.57201 9.20224C9.25952 9.26486 9.86762 8.75829 9.93024 8.07078ZM12.8171 8.50194C13.3053 8.01378 14.0967 8.01378 14.5849 8.50194L18.1984 12.1154C18.6865 12.6036 18.6865 13.395 18.1984 13.8832L14.5849 17.4967C14.0967 17.9848 13.3053 17.9848 12.8171 17.4967C12.329 17.0085 12.329 16.2171 12.8171 15.7289L14.2966 14.2494H2.21349C1.52313 14.2494 0.963486 13.6898 0.963486 12.9994C0.963486 12.3091 1.52313 11.7494 2.21349 11.7494H14.2968L12.8171 10.2697C12.329 9.78155 12.329 8.99009 12.8171 8.50194Z" fill="#0158FF"/></svg>
