<svg width="25" height="24" fill="none" xmlns="http://www.w3.org/2000/svg"><path d="M16.498 6.7h0c.053.108.18.262.37.402s.376.218.5.239l-.87-.64Zm0 0-.002-.005-1.76-3.518v-.001c-.53-1.064-1.356-1.848-2.402-1.848-1.045 0-1.875.783-2.41 1.846v.001l-1.76 3.52h0l-.003.006c-.053.108-.179.261-.37.402a1.272 1.272 0 0 1-.492.238l-3.187.53h0c-1.15.192-2.116.751-2.43 1.731-.312.98.15 1.996.973 2.819l2.48 2.48c.097.098.207.281.275.521.068.238.074.454.043.593v.002l-.709 3.064s0 0 0 0c-.295 1.278-.193 2.546.716 3.21.909.662 2.149.375 3.278-.295l2.984-1.767.002-.001c.134-.078.355-.137.615-.137s.477.06.604.135h0l2.99 1.77h0c1.13.668 2.371.96 3.28.298.91-.663 1.007-1.934.713-3.212h0l-.71-3.065v-.002a1.284 1.284 0 0 1 .044-.593 1.25 1.25 0 0 1 .275-.521l2.478-2.478.001-.001c.829-.823 1.291-1.84.976-2.82-.315-.98-1.282-1.54-2.432-1.731h0l-3.19-.53-.87-.64Z" fill="#FFBA54" stroke="#0159FF" stroke-width="1.5" stroke-linecap="round" stroke-linejoin="round"/><path d="m14.065 3.51 1.76 3.52c.24.49.88.96 1.42 1.05l3.19.53c2.04.34 2.52 1.82 1.05 3.28l-2.48 2.48c-.42.42-.65 1.23-.52 1.81l.71 3.07c.56 2.43-.73 3.37-2.88 2.1l-2.99-1.77c-.54-.32-1.43-.32-1.98 0l-2.99 1.77c-2.14 1.27-3.44.32-2.88-2.1l.71-3.07c.13-.58-.1-1.39-.52-1.81l-2.48-2.48c-1.46-1.46-.99-2.94 1.05-3.28l3.19-.53c.53-.09 1.17-.56 1.41-1.05l1.76-3.52c.96-1.91 2.52-1.91 3.47 0Z" fill="url(#a)"/><defs><linearGradient id="a" x1="22.335" y1="12.001" x2="2.335" y2="12.001" gradientUnits="userSpaceOnUse"><stop offset=".499" stop-color="#0159FF"/><stop offset=".508" stop-color="#FFBA54"/></linearGradient></defs></svg>