<svg width="25" height="24" viewBox="0 0 25 24" fill="none" xmlns="http://www.w3.org/2000/svg">
<path d="M16.497 6.70071L16.497 6.70073C16.5497 6.80835 16.6756 6.96151 16.8662 7.10213C17.0561 7.24226 17.2427 7.32006 17.3663 7.34077L16.497 6.70071ZM16.497 6.70071L16.4942 6.69522L14.7349 3.17662C14.7348 3.1764 14.7347 3.17618 14.7346 3.17596C14.2054 2.11232 13.3781 1.32812 12.3322 1.32812C11.2873 1.32812 10.4575 2.11098 9.92329 3.17381L9.92259 3.17521L8.16258 6.69522L8.16256 6.6952L8.15986 6.70073C8.10703 6.80858 7.98074 6.96207 7.79045 7.10317C7.60081 7.24378 7.41684 7.32073 7.2989 7.34103C7.29855 7.34109 7.2982 7.34115 7.29784 7.34121L4.11048 7.87077L4.11011 7.87083C2.96 8.06251 1.99449 8.62216 1.68145 9.60248C1.36863 10.5821 1.83007 11.598 2.65308 12.421L5.13307 14.901C5.23068 14.9986 5.34003 15.1824 5.40862 15.422C5.47678 15.6601 5.48254 15.8761 5.452 16.0146C5.45185 16.0153 5.45171 16.0159 5.45156 16.0166L4.74271 19.0815C4.74271 19.0816 4.7427 19.0816 4.74269 19.0816C4.44714 20.3589 4.54968 21.6269 5.45883 22.2902C6.36741 22.9532 7.60705 22.6657 8.73617 21.9956L11.7206 20.2289C11.7212 20.2285 11.7219 20.2281 11.7225 20.2278C11.8567 20.1503 12.0778 20.0906 12.3372 20.0906C12.5984 20.0906 12.815 20.1511 12.9411 20.2258L12.9413 20.226L15.9313 21.996L15.932 21.9964C17.0624 22.6641 18.303 22.9565 19.2115 22.2942C20.1213 21.6309 20.2188 20.3605 19.9242 19.0822L19.9241 19.0816L19.2152 16.0166C19.2151 16.0159 19.215 16.0153 19.2148 16.0146C19.1843 15.8761 19.19 15.6601 19.2582 15.422C19.3268 15.1824 19.4361 14.9986 19.5337 14.901L22.0119 12.4228C22.0123 12.4224 22.0126 12.4221 22.0129 12.4217C22.8411 11.5988 23.304 10.5821 22.9887 9.60112C22.6738 8.62141 21.7061 8.06239 20.5567 7.87083L20.5563 7.87077L17.3667 7.34083L16.497 6.70071Z" fill="#FFBA54" stroke="#0159FF" stroke-width="1.5" stroke-linecap="round" stroke-linejoin="round"/>
</svg>
