<?xml version="1.0" encoding="utf-8"?><svg viewBox="0 0 108 48" xmlns="http://www.w3.org/2000/svg" xmlns:xlink="http://www.w3.org/1999/xlink"><style>:root>svg{display:none}:root>svg:target{display:block}</style><svg fill="none" viewBox="0 0 44 44" id="corgi-icon" xmlns="http://www.w3.org/2000/svg"><rect width="44" height="44" rx="22" fill="#fff"/><path opacity=".2" fill-rule="evenodd" clip-rule="evenodd" d="M19.5 12.058h5.003c1.004 0 1.84-.54 2.641-1.637.278-.38.654-.943 1.07-1.568.786-1.179 1.719-2.579 2.429-3.396 1.086-1.25 2.152-2.45 3.501-2.45 1.35 0 2.638 1.118 2.638 5.192 0 4.654-1.24 7.668-2.141 9.862-.854 2.077-1.405 3.418-.314 4.717.683.812 2.941 3.909.572 8.359-2.57 4.826-9.114 10.37-12.898 10.37-3.784 0-10.329-5.544-12.898-10.37-2.369-4.45-.11-7.547.572-8.36 1.091-1.298.54-2.639-.314-4.716-.902-2.194-2.141-5.208-2.141-9.862 0-4.074 1.288-5.191 2.638-5.191 1.35 0 2.415 1.198 3.501 2.45.71.816 1.643 2.216 2.429 3.395a50.28 50.28 0 0 0 1.07 1.568c.802 1.096 1.637 1.637 2.641 1.637Z" fill="url(#aa)"/><mask id="ab" style="mask-type:alpha" maskUnits="userSpaceOnUse" x="7" y="0" width="15" height="39"><path d="M21.99 9.05h-2.502c-1.004 0-1.84-.54-2.641-1.637-.802-1.096-2.412-3.713-3.498-4.964C12.262 1.2 11.196 0 9.847 0c-1.35 0-2.638 1.117-2.638 5.191 0 9.061 4.699 11.909 2.455 14.579-.682.812-2.94 3.909-.572 8.359C11.662 32.955 18.206 38.5 21.99 38.5V9.05Z" fill="#fff"/></mask><g mask="url(#ab)"><mask id="ac" style="mask-type:alpha" maskUnits="userSpaceOnUse" x="7" y="0" width="15" height="39"><path d="M21.978 9.05h-2.502c-1.004 0-1.84-.54-2.642-1.637-.801-1.096-2.412-3.713-3.498-4.964C12.25 1.2 11.184 0 9.834 0c-1.35 0-2.638 1.117-2.638 5.191 0 9.061 4.7 11.909 2.456 14.579-.683.812-2.941 3.909-.572 8.359C11.65 32.955 18.194 38.5 21.978 38.5V9.05Z" fill="#fff"/></mask><g mask="url(#ac)"><path d="M21.983 9.05h-2.501c-1.005 0-1.84-.54-2.642-1.637-.802-1.096-2.412-3.713-3.498-4.964C12.255 1.2 11.19 0 9.84 0 8.49 0 7.202 1.117 7.202 5.191c0 9.061 4.7 11.909 2.455 14.579-.682.812-2.94 3.909-.571 8.359C11.655 32.955 18.199 38.5 21.983 38.5V9.05Z" fill="url(#ad)"/><path opacity=".6" d="M22.05 9.04c-4.603 0-7.081 1.503-9.63 4.472 1.718-1.972 4.374-4.06 9.63-4.06V9.04Z" fill="url(#ae)"/><path opacity=".6" d="M10.692 18.545c.164-.945-1.082-3.116-1.44-3.736l-1.124 8.23c1.152-3.486 2.324-3.117 2.564-4.494Z" fill="url(#af)"/><mask id="ag" style="mask-type:alpha" maskUnits="userSpaceOnUse" x="8" y="9" width="14" height="30"><path d="M21.988 9.787c-1.45 0-4.447.427-2.798 2.365 1.65 1.938 1.68 3.012 1.68 3.768 0 2.72-2.695 5.132-4.933 5.132-1.389 0-2.147-.787-2.962-1.625-1.326-1.363-3.298.737-3.972 2.153-1.165 2.443-.696 5.884 2.73 10.316s6.362 7.042 10.255 7.042V9.788Z" fill="#fff"/></mask><g mask="url(#ag)"><path d="M21.988 9.787c-1.45 0-4.447.427-2.798 2.365 1.65 1.938 1.68 3.012 1.68 3.768 0 2.72-2.695 5.132-4.933 5.132-1.389 0-2.147-.787-2.962-1.625-1.326-1.363-3.298.737-3.972 2.153-1.165 2.443-.696 5.884 2.73 10.316s6.362 7.042 10.255 7.042V9.788Z" fill="#FFEAD7"/></g><path opacity=".6" fill-rule="evenodd" clip-rule="evenodd" d="M21.982 36.242c-5.325-1.358-11.194-8.01-11.194-11.387 0-3.376 2.302-4.454 3.367-8.084 1.064-3.63 4.595-5.017 7.827-5.017h3.44l-.192 25.095a24.157 24.157 0 0 1-3.248-.607Z" fill="url(#ah)"/></g><path opacity=".1" fill-rule="evenodd" clip-rule="evenodd" d="M14.752 23.113c.778.142 1.095 3.06 1.874 4.646.793 1.613 2.782 1.83 5.38 1.83v-1.48c-1.943.331-3.451-.226-4.525-1.672-1.389-1.87-1.947-3.65-2.558-3.65-.447 0-.674.234-.17.326Z" fill="url(#ai)"/><path opacity=".1" fill-rule="evenodd" clip-rule="evenodd" d="M18.902 28.426c0 2.296-.268 5.388 3.108 5.388h2.131v-5.388h-5.239Z" fill="url(#aj)"/><mask id="ak" style="mask-type:alpha" maskUnits="userSpaceOnUse" x="14" y="22" width="8" height="7"><path d="M22 26.84c0 .342-.187.866-1.362.866s-2.39-.65-3.28-1.983c-.888-1.333-1.315-2.12-1.809-2.872-.573-.873-1.108-.527-1.18-.274-.074.253.227.587.64.587.313 0 .515.538.884 1.182.908 1.587.957 4.154 3.907 4.154H22v-1.66Z" fill="#fff"/></mask><g mask="url(#ak)"><path opacity=".8" d="M22.006 26.84c0 .342-.186.866-1.361.866s-2.391-.65-3.28-1.983c-.889-1.333-1.315-2.12-1.809-2.872-.574-.873-1.108-.527-1.181-.274-.073.253.228.587.64.587.313 0 .516.538.884 1.182.908 1.587.958 4.154 3.908 4.154h2.2v-1.66Z" fill="url(#al)"/><path opacity=".2" d="M14.53 23.222c.537-.283.74-.4 1.448.81.707 1.21 1.44 4.078 3.582 4.078h2.995" stroke="url(#am)" stroke-width=".258"/></g><mask id="an" style="mask-type:alpha" maskUnits="userSpaceOnUse" x="18" y="26" width="4" height="8"><path d="M21.97 26.938c-.058.358-.3.59-.726.693-.891.218-1.938-.119-2.482-.483.727.673.727 1.162.727 1.619v1.123c0 1.362.362 3.623 2.48 3.623v-6.575Z" fill="#fff"/></mask><g mask="url(#an)"><path d="M21.975 26.938c-.058.358-.3.59-.726.693-.89.218-1.938-.119-2.481-.483.727.673.727 1.162.727 1.619v1.123c0 1.362.362 3.623 2.48 3.623v-6.575Z" fill="url(#ao)"/><path opacity=".2" fill-rule="evenodd" clip-rule="evenodd" d="M21.975 26.738h-2.472v.721c0 .503.626.776 1.154.949 1.198.391.807 1.598 1.318 1.598v-3.268Z" fill="url(#ap)"/><path opacity=".2" fill-rule="evenodd" clip-rule="evenodd" d="M19.496 28.57c0 1.706.262 2.722.546 3.255 1.069 1.999 1.413.651 1.344-.784-.1-2.096-.608-2.096-1.243-2.548-.264-.188-.514-.386-.636-.609-.216-.393-.213-.732-.405-.732-.148 0-.311.01-.33 0 0 .485.53.705.724 1.417Z" fill="#fff"/><g opacity=".4" fill="#000"><path fill-rule="evenodd" clip-rule="evenodd" d="M18.134 26.352c.44.605 2.154 3.279 4.307 2.02l-4.307-2.02Z"/><path d="M18.134 26.352c.44.605 2.154 3.279 4.307 2.02v-2.079l-4.307.06Z"/></g></g><mask id="aq" style="mask-type:alpha" maskUnits="userSpaceOnUse" x="19" y="22" width="3" height="5"><path d="M21.988 22.285c-1.091 0-2.699.305-2.699 1.742 0 1.436 1.26 2.202 1.845 2.202.586 0 .565.4.854.4v-4.344Z" fill="#fff"/></mask><g mask="url(#aq)"><path d="M21.988 22.287c-1.091 0-2.699.305-2.699 1.742 0 1.436 1.26 2.202 1.846 2.202.585 0 .564.4.853.4v-4.344Z" fill="#414143"/><path opacity=".1" fill-rule="evenodd" clip-rule="evenodd" d="M21.966 22.559c-.523 0-.793.05-1.352.226-.513.161-.874-.04-.072-.294a4.695 4.695 0 0 1 1.424-.204v.272Z" fill="#fff"/><path opacity=".4" fill-rule="evenodd" clip-rule="evenodd" d="M21.986 22.713c-.86 0-2.13.246-2.13 1.405 0 1.16.994 1.777 1.456 1.777.463 0 .446.323.674.323 2.7 0 2.7-3.505 0-3.505Z" fill="url(#ar)"/></g><path opacity=".2" fill-rule="evenodd" clip-rule="evenodd" d="M21.404 24.802c0 .175-.112.63-.61.63-.64 0-1.146-.116-1.403-.666.153.098.99.535 1.302-.097.083-.168.173-.233.335-.233.25 0 .376.2.376.366Z" fill="url(#as)"/><path opacity=".2" fill-rule="evenodd" clip-rule="evenodd" d="M16.562 19.748c-1.059 0-1.917-.823-1.917-1.838 0-1.015.858-1.838 1.917-1.838 1.058 0 1.917.823 1.917 1.838 0 1.015-.858 1.838-1.917 1.838Z" fill="url(#at)"/><mask id="au" style="mask-type:alpha" maskUnits="userSpaceOnUse" x="14" y="15" width="5" height="4"><path d="M16.575 18.892c-1.06 0-1.917-.822-1.917-1.837 0-1.015.858-1.838 1.917-1.838 1.058 0 1.916.823 1.916 1.838 0 1.015-.858 1.837-1.916 1.837Z" fill="#fff"/></mask><g mask="url(#au)"><path d="M16.569 18.892c-1.059 0-1.917-.822-1.917-1.837 0-1.015.858-1.838 1.917-1.838 1.059 0 1.917.823 1.917 1.838 0 1.015-.858 1.837-1.917 1.837Z" fill="url(#av)"/><g filter="url(#aw)"><path clip-rule="evenodd" d="M16.566 18.465c-.824 0-1.491-.631-1.491-1.41 0-.779.667-1.41 1.49-1.41.824 0 1.492.631 1.492 1.41 0 .779-.668 1.41-1.491 1.41Z" stroke="url(#ax)" stroke-width=".344"/></g></g><mask id="ay" style="mask-type:alpha" maskUnits="userSpaceOnUse" x="15" y="16" width="4" height="3"><path d="M16.697 18.72c-.753 0-1.363-.573-1.363-1.282 0-.708.61-1.282 1.363-1.282s1.363.574 1.363 1.282c0 .709-.61 1.283-1.363 1.283Z" fill="#fff"/></mask><g mask="url(#ay)"><path opacity=".8" d="M16.687 18.72c-.753 0-1.363-.573-1.363-1.282 0-.708.61-1.282 1.363-1.282s1.363.574 1.363 1.282c0 .709-.61 1.283-1.363 1.283Z" fill="#000"/><path opacity=".1" fill-rule="evenodd" clip-rule="evenodd" d="M16.435 18.122c-.376 0-.681-.23-.681-.513 0-.284.305-.513.681-.513.377 0 .682.23.682.513 0 .283-.305.512-.682.512Z" fill="#fff"/><path fill-rule="evenodd" clip-rule="evenodd" d="M17.033 17.354c-.235 0-.426-.153-.426-.342 0-.189.191-.342.426-.342s.426.153.426.342c0 .189-.19.342-.426.342Z" fill="url(#az)"/></g><mask id="aA" style="mask-type:alpha" maskUnits="userSpaceOnUse" x="7" y="1" width="9" height="14"><path d="M15.176 6.72C14.01 3.786 11.793.278 9.103 1.24c-1.505.54-1.628 3.257-1.258 6.516.18 1.586.652 3.216 1.119 4.559 1.414 4.067 2.672.334 3.526-.763 1.243-1.596 4.311-.74 2.686-4.832Z" fill="#fff"/></mask><g mask="url(#aA)"><path d="M15.176 6.72C14.01 3.786 11.793.278 9.103 1.24c-1.505.54-1.628 3.257-1.258 6.516.18 1.586.652 3.216 1.119 4.559 1.414 4.067 2.672.334 3.526-.763 1.243-1.596 4.311-.74 2.686-4.832Z" fill="url(#aB)"/><path opacity=".2" fill-rule="evenodd" clip-rule="evenodd" d="M14.108 10.516C13.304 6.421 10.742 3.36 10.1 3.59c-.641.231-.211 4.902 1.554 9.304 1.765 4.402 3.258 1.717 2.454-2.378Z" fill="#A57163"/></g><g opacity=".05" filter="url(#aC)"><path d="M16.195 22.895c1.106 1.807 2.607 4.547 4.486 4.547.91 0 1.333-.415 1.27-1.244" stroke="url(#aD)" stroke-width=".516" stroke-linecap="round"/></g><path opacity=".6" d="M15.765 6.173c1.994 3.048 2.849 2.877 3.877 2.877-1.692-2.945-5.878-9.174-7.737-10.457C9.58-3.01 6.14-1.244 5.723 3.102c-.335 3.476 2.091 10.233 3.346 13.176.42.45 1.222 1.149.92.393C7.878 11.362 5.872 2.145 9.268.63c2.248-1.004 4.489 2.47 6.498 5.542Z" fill="url(#aE)"/></g><mask id="aF" style="mask-type:alpha" maskUnits="userSpaceOnUse" x="21" y="0" width="16" height="39"><path d="M21.969 9.05h2.502c1.004 0 1.84-.54 2.641-1.637.802-1.096 2.412-3.713 3.498-4.964C31.697 1.2 32.763 0 34.112 0c1.35 0 2.638 1.117 2.638 5.191 0 9.061-4.699 11.909-2.455 14.579.682.812 2.94 3.909.572 8.359-2.57 4.826-9.114 10.371-12.898 10.371V9.05Z" fill="#fff"/></mask><g mask="url(#aF)"><mask id="aG" style="mask-type:alpha" maskUnits="userSpaceOnUse" x="21" y="0" width="16" height="39"><path d="M21.98 9.05h2.502c1.004 0 1.84-.54 2.641-1.637.802-1.096 2.412-3.713 3.498-4.964C31.708 1.2 32.774 0 34.123 0c1.35 0 2.638 1.117 2.638 5.191 0 9.061-4.699 11.909-2.455 14.579.682.812 2.94 3.909.572 8.359C32.307 32.955 25.763 38.5 21.98 38.5V9.05Z" fill="#fff"/></mask><g mask="url(#aG)"><path d="M21.974 9.05h2.502c1.004 0 1.84-.54 2.642-1.637.802-1.096 2.412-3.713 3.498-4.964C31.702 1.2 32.768 0 34.118 0c1.35 0 2.638 1.117 2.638 5.191 0 9.061-4.7 11.909-2.456 14.579.683.812 2.941 3.909.572 8.359C32.302 32.955 25.76 38.5 21.974 38.5V9.05Z" fill="url(#aH)"/><path opacity=".6" d="M33.395 18.545c-.164-.945 1.082-3.116 1.44-3.736l1.123 8.23c-1.151-3.486-2.323-3.117-2.563-4.494Z" fill="url(#aI)"/><path opacity=".6" d="M28.346 6.226c-1.994 3.048-2.818 2.876-3.847 2.876 1.693-2.944 5.879-9.173 7.738-10.456 2.324-1.604 5.764.163 6.182 4.508.335 3.477-2.092 10.233-3.347 13.177-.42.45-1.221 1.149-.92.393 2.112-5.31 4.088-14.526.692-16.041-2.248-1.003-4.489 2.471-6.498 5.543Z" fill="url(#aJ)"/><mask id="aK" style="mask-type:alpha" maskUnits="userSpaceOnUse" x="21" y="9" width="15" height="30"><path d="M21.969 9.787c1.45 0 4.447.427 2.798 2.365-1.65 1.938-1.68 3.012-1.68 3.768 0 2.72 2.694 5.132 4.933 5.132 1.389 0 2.147-.787 2.962-1.625 1.325-1.363 3.297.737 3.972 2.153 1.164 2.443.696 5.884-2.73 10.316s-6.362 7.042-10.255 7.042V9.788Z" fill="#fff"/></mask><g mask="url(#aK)"><path d="M21.969 9.787c1.45 0 4.447.427 2.798 2.365-1.65 1.938-1.68 3.012-1.68 3.768 0 2.72 2.695 5.132 4.933 5.132 1.389 0 2.147-.787 2.962-1.625 1.326-1.363 3.298.737 3.972 2.153 1.165 2.443.696 5.884-2.73 10.316s-6.362 7.042-10.255 7.042V9.788Z" fill="#FFEAD7"/></g><path opacity=".6" fill-rule="evenodd" clip-rule="evenodd" d="M21.976 36.242c5.325-1.358 11.195-8.01 11.195-11.387 0-3.376-2.303-4.454-3.367-8.084-1.065-3.63-4.596-5.017-7.828-5.017h-3.44l.192 25.095c1.04-.118 2.122-.32 3.248-.607Z" fill="url(#aL)"/><path opacity=".6" d="M21.968 9.04c4.603 0 7.081 1.503 9.63 4.472-1.718-1.972-4.374-4.06-9.63-4.06V9.04Z" fill="url(#aM)"/></g><path opacity=".1" fill-rule="evenodd" clip-rule="evenodd" d="M29.208 23.11c-.778.143-1.095 3.062-1.874 4.647-.793 1.613-2.782 1.83-5.38 1.83v-1.48c1.943.331 3.451-.226 4.525-1.672 1.389-1.87 1.946-3.65 2.558-3.65.447 0 .674.234.17.326Z" fill="url(#aN)"/><path opacity=".1" fill-rule="evenodd" clip-rule="evenodd" d="M25.058 28.424c0 2.296.268 5.388-3.108 5.388H19.82v-5.388h5.239Z" fill="url(#aO)"/><mask id="aP" style="mask-type:alpha" maskUnits="userSpaceOnUse" x="21" y="22" width="9" height="7"><path d="M21.96 26.838c0 .342.187.866 1.362.866s2.391-.65 3.28-1.983c.889-1.333 1.315-2.12 1.809-2.872.574-.873 1.109-.527 1.181-.274.073.253-.228.588-.64.588-.313 0-.516.537-.884 1.181-.908 1.587-.958 4.154-3.907 4.154h-2.2v-1.66Z" fill="#fff"/></mask><g mask="url(#aP)"><path opacity=".8" d="M21.954 26.838c0 .342.186.866 1.361.866s2.391-.65 3.28-1.983c.889-1.333 1.315-2.12 1.809-2.872.574-.873 1.108-.527 1.181-.274.073.253-.228.588-.64.588-.313 0-.516.537-.884 1.181-.908 1.587-.958 4.154-3.907 4.154h-2.2v-1.66Z" fill="url(#aQ)"/><path opacity=".2" d="M29.441 23.22c-.536-.282-.74-.4-1.447.81-.707 1.21-1.44 4.078-3.582 4.078h-2.995" stroke="url(#aR)" stroke-width=".258"/></g><mask id="aS" style="mask-type:alpha" maskUnits="userSpaceOnUse" x="21" y="26" width="5" height="8"><path d="M21.97 26.943c.057.359.299.59.725.694.89.218 1.938-.12 2.482-.484-.728.674-.728 1.163-.728 1.62v1.123c0 1.362-.362 3.623-2.48 3.623v-6.576Z" fill="#fff"/></mask><g mask="url(#aS)"><path d="M21.964 26.943c.058.359.3.59.725.694.891.218 1.938-.12 2.482-.484-.727.674-.727 1.163-.727 1.62v1.123c0 1.362-.362 3.623-2.48 3.623v-6.576Z" fill="url(#aT)"/><path opacity=".2" fill-rule="evenodd" clip-rule="evenodd" d="M24.442 28.575c0 1.707-.262 2.723-.546 3.256-1.069 1.999-1.413.651-1.344-.784.1-2.096.608-2.096 1.243-2.548.264-.188.514-.386.636-.609.215-.393.213-.732.405-.732.148 0 .311.01.33 0 0 .485-.53.704-.724 1.417Z" fill="#fff"/><g opacity=".4" fill="#000"><path fill-rule="evenodd" clip-rule="evenodd" d="M25.804 26.358c-.44.605-2.153 3.279-4.307 2.02l4.307-2.02Z"/><path d="M25.804 26.358c-.44.605-2.153 3.279-4.307 2.02v-2.08l4.307.06Z"/></g><path opacity=".2" fill-rule="evenodd" clip-rule="evenodd" d="M21.964 26.744h2.471v.721c0 .503-.625.776-1.153.949-1.198.391-.807 1.597-1.318 1.597v-3.267Z" fill="url(#aU)"/></g><mask id="aV" style="mask-type:alpha" maskUnits="userSpaceOnUse" x="21" y="22" width="4" height="5"><path d="M21.97 22.285c1.091 0 2.699.305 2.699 1.742 0 1.436-1.26 2.202-1.846 2.202-.585 0-.564.4-.853.4v-4.344Z" fill="#fff"/></mask><g mask="url(#aV)"><path d="M21.97 22.287c1.091 0 2.699.305 2.699 1.742 0 1.436-1.26 2.202-1.846 2.202-.585 0-.564.4-.853.4v-4.344Z" fill="#414143"/><path opacity=".4" fill-rule="evenodd" clip-rule="evenodd" d="M21.972 22.713c.86 0 2.13.246 2.13 1.405 0 1.16-.994 1.777-1.457 1.777-.462 0-.445.323-.673.323-2.7 0-2.7-3.505 0-3.505Z" fill="url(#aW)"/></g><path opacity=".2" fill-rule="evenodd" clip-rule="evenodd" d="M22.554 24.803c0 .176.113.63.611.63.639 0 1.146-.115 1.403-.665-.154.098-.99.535-1.303-.097-.083-.168-.173-.233-.334-.233-.25 0-.377.2-.377.366Z" fill="url(#aX)"/><path opacity=".1" fill-rule="evenodd" clip-rule="evenodd" d="M21.969 22.559c.524 0 .793.05 1.352.226.514.161.874-.04.072-.294a4.695 4.695 0 0 0-1.424-.204v.272Z" fill="#fff"/><path opacity=".2" fill-rule="evenodd" clip-rule="evenodd" d="M27.398 19.746c1.058 0 1.917-.823 1.917-1.838 0-1.015-.859-1.838-1.917-1.838-1.059 0-1.917.823-1.917 1.838 0 1.015.858 1.838 1.917 1.838Z" fill="url(#aY)"/><mask id="aZ" style="mask-type:alpha" maskUnits="userSpaceOnUse" x="25" y="15" width="5" height="4"><path d="M27.386 18.892c1.06 0 1.917-.822 1.917-1.837 0-1.015-.858-1.838-1.917-1.838-1.058 0-1.916.823-1.916 1.838 0 1.015.858 1.837 1.916 1.837Z" fill="#fff"/></mask><g mask="url(#aZ)"><path d="M27.392 18.892c1.058 0 1.916-.822 1.916-1.837 0-1.015-.858-1.838-1.916-1.838-1.06 0-1.917.823-1.917 1.838 0 1.015.858 1.837 1.916 1.837Z" fill="url(#aaa)"/><g filter="url(#aab)"><path clip-rule="evenodd" d="M27.395 18.465c.823 0 1.49-.631 1.49-1.41 0-.779-.667-1.41-1.49-1.41-.824 0-1.491.631-1.491 1.41 0 .779.667 1.41 1.49 1.41Z" stroke="url(#aac)" stroke-width=".344"/></g></g><mask id="aad" style="mask-type:alpha" maskUnits="userSpaceOnUse" x="25" y="16" width="4" height="3"><path d="M27.264 18.72c.753 0 1.363-.573 1.363-1.282 0-.708-.61-1.282-1.363-1.282s-1.363.574-1.363 1.282c0 .709.61 1.283 1.363 1.283Z" fill="#fff"/></mask><g mask="url(#aad)"><path opacity=".8" d="M27.273 18.72c.753 0 1.364-.573 1.364-1.282 0-.708-.61-1.282-1.364-1.282-.752 0-1.363.574-1.363 1.282 0 .709.61 1.283 1.363 1.283Z" fill="#000"/><path opacity=".1" fill-rule="evenodd" clip-rule="evenodd" d="M27.526 18.122c.376 0 .681-.23.681-.513 0-.284-.305-.513-.681-.513-.377 0-.682.23-.682.513 0 .283.305.512.682.512Z" fill="#fff"/><path fill-rule="evenodd" clip-rule="evenodd" d="M26.927 17.354c.236 0 .426-.153.426-.342 0-.189-.19-.342-.426-.342-.235 0-.426.153-.426.342 0 .189.19.342.426.342Z" fill="url(#aae)"/></g><mask id="aaf" style="mask-type:alpha" maskUnits="userSpaceOnUse" x="28" y="1" width="9" height="14"><path d="M28.782 6.72c1.165-2.934 3.382-6.442 6.072-5.48 1.506.54 1.628 3.257 1.259 6.516-.18 1.586-.652 3.216-1.12 4.559-1.413 4.067-2.671.334-3.526-.763-1.243-1.596-4.31-.74-2.685-4.832Z" fill="#fff"/></mask><g mask="url(#aaf)"><path d="M28.782 6.72c1.165-2.934 3.382-6.442 6.072-5.48 1.506.54 1.628 3.257 1.259 6.516-.18 1.586-.653 3.216-1.12 4.559-1.414 4.067-2.672.334-3.526-.763-1.243-1.596-4.31-.74-2.685-4.832Z" fill="url(#aag)"/><path opacity=".2" fill-rule="evenodd" clip-rule="evenodd" d="M29.85 10.516c.804-4.095 3.366-7.156 4.007-6.926.642.231.212 4.902-1.553 9.304-1.766 4.402-3.258 1.717-2.454-2.378Z" fill="#A57163"/></g><g opacity=".05" filter="url(#aah)"><path d="M27.732 22.895c-1.107 1.807-2.608 4.547-4.487 4.547-.91 0-1.333-.415-1.27-1.244" stroke="url(#aai)" stroke-width=".516" stroke-linecap="round"/></g></g><defs><linearGradient id="aa" x1="22.001" y1="3.008" x2="22.001" y2="41.508" gradientUnits="userSpaceOnUse"><stop stop-opacity="0"/><stop offset="1"/></linearGradient><linearGradient id="ae" x1="22.465" y1="9.039" x2="12.362" y2="14.079" gradientUnits="userSpaceOnUse"><stop stop-color="#fff"/><stop offset="1" stop-color="#fff" stop-opacity="0"/></linearGradient><linearGradient id="af" x1="9.91" y1="15.995" x2="8.233" y2="22.436" gradientUnits="userSpaceOnUse"><stop stop-color="#fff"/><stop offset="1" stop-color="#fff" stop-opacity="0"/></linearGradient><linearGradient id="ah" x1="18.105" y1="11.754" x2="18.105" y2="36.849" gradientUnits="userSpaceOnUse"><stop offset=".368" stop-color="#fff" stop-opacity="0"/><stop offset="1" stop-color="#fff"/></linearGradient><linearGradient id="ai" x1="18.236" y1="22.787" x2="18.236" y2="28.223" gradientUnits="userSpaceOnUse"><stop stop-opacity="0"/><stop offset="1"/></linearGradient><linearGradient id="aj" x1="21.519" y1="28.426" x2="21.519" y2="32.732" gradientUnits="userSpaceOnUse"><stop offset=".252" stop-opacity="0"/><stop offset="1"/></linearGradient><linearGradient id="al" x1="18.185" y1="22.291" x2="18.185" y2="28.5" gradientUnits="userSpaceOnUse"><stop stop-opacity=".7"/><stop offset="1"/></linearGradient><linearGradient id="am" x1="14.842" y1="24.509" x2="19.804" y2="28.556" gradientUnits="userSpaceOnUse"><stop stop-color="#fff" stop-opacity=".3"/><stop offset="1" stop-color="#fff"/></linearGradient><linearGradient id="ao" x1="20.371" y1="26.938" x2="20.371" y2="33.513" gradientUnits="userSpaceOnUse"><stop stop-color="#E75152"/><stop offset="1" stop-color="#FE813F"/></linearGradient><linearGradient id="ap" x1="20.739" y1="26.738" x2="20.739" y2="30.006" gradientUnits="userSpaceOnUse"><stop/><stop offset="1" stop-opacity=".4"/></linearGradient><linearGradient id="ar" x1="21.933" y1="22.713" x2="21.933" y2="26.218" gradientUnits="userSpaceOnUse"><stop stop-color="#fff"/><stop offset="1" stop-color="#fff" stop-opacity="0"/></linearGradient><linearGradient id="as" x1="19.391" y1="24.933" x2="21.404" y2="24.933" gradientUnits="userSpaceOnUse"><stop stop-opacity=".2"/><stop offset="1"/></linearGradient><linearGradient id="av" x1="14.652" y1="15.523" x2="18.348" y2="18.84" gradientUnits="userSpaceOnUse"><stop stop-color="#fff"/><stop offset="1" stop-color="#fff" stop-opacity=".6"/></linearGradient><linearGradient id="ax" x1="15.075" y1="15.836" x2="17.914" y2="18.43" gradientUnits="userSpaceOnUse"><stop stop-color="#fff"/><stop offset="1" stop-color="#fff" stop-opacity="0"/></linearGradient><linearGradient id="az" x1="17.033" y1="16.67" x2="17.033" y2="17.354" gradientUnits="userSpaceOnUse"><stop stop-color="#fff"/><stop offset="1" stop-color="#fff" stop-opacity=".9"/></linearGradient><linearGradient id="aB" x1="7.908" y1="1.385" x2="11.687" y2="14.159" gradientUnits="userSpaceOnUse"><stop stop-color="#fff"/><stop offset="1" stop-color="#fff" stop-opacity=".6"/></linearGradient><linearGradient id="aD" x1="19.076" y1="22.895" x2="19.076" y2="27.442" gradientUnits="userSpaceOnUse"><stop stop-opacity="0"/><stop offset="1"/></linearGradient><linearGradient id="aE" x1="8.647" y1=".457" x2="17.4" y2="15.331" gradientUnits="userSpaceOnUse"><stop stop-color="#fff"/><stop offset="1" stop-color="#fff" stop-opacity="0"/></linearGradient><linearGradient id="aI" x1="34.177" y1="15.995" x2="35.854" y2="22.436" gradientUnits="userSpaceOnUse"><stop stop-color="#fff"/><stop offset="1" stop-color="#fff" stop-opacity="0"/></linearGradient><linearGradient id="aJ" x1="35.442" y1=".457" x2="26.689" y2="15.331" gradientUnits="userSpaceOnUse"><stop stop-color="#fff"/><stop offset="1" stop-color="#fff" stop-opacity="0"/></linearGradient><linearGradient id="aL" x1="25.854" y1="11.754" x2="25.854" y2="36.849" gradientUnits="userSpaceOnUse"><stop offset=".368" stop-color="#fff" stop-opacity="0"/><stop offset="1" stop-color="#fff"/></linearGradient><linearGradient id="aM" x1="21.968" y1="9.039" x2="32.071" y2="14.079" gradientUnits="userSpaceOnUse"><stop stop-color="#fff"/><stop offset="1" stop-color="#fff" stop-opacity="0"/></linearGradient><linearGradient id="aN" x1="25.724" y1="22.785" x2="25.724" y2="28.221" gradientUnits="userSpaceOnUse"><stop stop-opacity="0"/><stop offset="1"/></linearGradient><linearGradient id="aO" x1="22.441" y1="28.424" x2="22.441" y2="32.73" gradientUnits="userSpaceOnUse"><stop offset=".252" stop-opacity="0"/><stop offset="1"/></linearGradient><linearGradient id="aQ" x1="25.775" y1="22.289" x2="25.775" y2="28.498" gradientUnits="userSpaceOnUse"><stop stop-opacity=".7"/><stop offset="1"/></linearGradient><linearGradient id="aR" x1="29.13" y1="24.507" x2="24.168" y2="28.554" gradientUnits="userSpaceOnUse"><stop stop-color="#fff" stop-opacity=".3"/><stop offset="1" stop-color="#fff"/></linearGradient><linearGradient id="aT" x1="23.567" y1="26.943" x2="23.567" y2="33.519" gradientUnits="userSpaceOnUse"><stop stop-color="#E75152"/><stop offset="1" stop-color="#FE813F"/></linearGradient><linearGradient id="aU" x1="23.2" y1="26.744" x2="23.2" y2="30.011" gradientUnits="userSpaceOnUse"><stop/><stop offset="1" stop-opacity=".4"/></linearGradient><linearGradient id="aW" x1="22.025" y1="22.713" x2="22.025" y2="26.218" gradientUnits="userSpaceOnUse"><stop stop-color="#fff"/><stop offset="1" stop-color="#fff" stop-opacity="0"/></linearGradient><linearGradient id="aX" x1="24.568" y1="24.935" x2="22.554" y2="24.935" gradientUnits="userSpaceOnUse"><stop stop-opacity=".2"/><stop offset="1"/></linearGradient><linearGradient id="aaa" x1="29.308" y1="15.523" x2="25.613" y2="18.84" gradientUnits="userSpaceOnUse"><stop stop-color="#fff"/><stop offset="1" stop-color="#fff" stop-opacity=".6"/></linearGradient><linearGradient id="aac" x1="28.885" y1="15.836" x2="26.046" y2="18.43" gradientUnits="userSpaceOnUse"><stop stop-color="#fff"/><stop offset="1" stop-color="#fff" stop-opacity="0"/></linearGradient><linearGradient id="aae" x1="26.927" y1="16.67" x2="26.927" y2="17.354" gradientUnits="userSpaceOnUse"><stop stop-color="#fff"/><stop offset="1" stop-color="#fff" stop-opacity=".9"/></linearGradient><linearGradient id="aag" x1="36.05" y1="1.385" x2="32.271" y2="14.159" gradientUnits="userSpaceOnUse"><stop stop-color="#fff"/><stop offset="1" stop-color="#fff" stop-opacity=".6"/></linearGradient><linearGradient id="aai" x1="24.85" y1="22.895" x2="24.85" y2="27.442" gradientUnits="userSpaceOnUse"><stop stop-opacity="0"/><stop offset="1"/></linearGradient><radialGradient id="ad" cx="0" cy="0" r="1" gradientUnits="userSpaceOnUse" gradientTransform="matrix(-14.80775 -23.18008 8.92353 -5.70047 22.026 23.18)"><stop offset=".138" stop-color="#FDDFB1"/><stop offset=".764" stop-color="#FBB03B"/></radialGradient><radialGradient id="at" cx="0" cy="0" r="1" gradientUnits="userSpaceOnUse" gradientTransform="matrix(0 1.83781 -1.9169 0 16.562 17.91)"><stop offset=".609" stop-color="#CF5B25" stop-opacity="0"/><stop offset="1" stop-color="#CF5B25"/></radialGradient><radialGradient id="aH" cx="0" cy="0" r="1" gradientUnits="userSpaceOnUse" gradientTransform="matrix(14.80787 -23.18 8.9235 5.70052 21.931 23.18)"><stop offset=".138" stop-color="#FDDFB1"/><stop offset=".764" stop-color="#FBB03B"/></radialGradient><radialGradient id="aY" cx="0" cy="0" r="1" gradientUnits="userSpaceOnUse" gradientTransform="matrix(0 1.83781 -1.9169 0 27.398 17.908)"><stop offset=".609" stop-color="#CF5B25" stop-opacity="0"/><stop offset="1" stop-color="#CF5B25"/></radialGradient><filter id="aw" x="14.559" y="15.129" width="4.013" height="3.852" filterUnits="userSpaceOnUse" color-interpolation-filters="sRGB"><feFlood flood-opacity="0" result="BackgroundImageFix"/><feBlend in="SourceGraphic" in2="BackgroundImageFix" result="shape"/><feGaussianBlur stdDeviation=".172" result="effect1_foregroundBlur_5148_65257"/></filter><filter id="aC" x="15.593" y="22.293" width="6.967" height="5.75" filterUnits="userSpaceOnUse" color-interpolation-filters="sRGB"><feFlood flood-opacity="0" result="BackgroundImageFix"/><feBlend in="SourceGraphic" in2="BackgroundImageFix" result="shape"/><feGaussianBlur stdDeviation=".172" result="effect1_foregroundBlur_5148_65257"/></filter><filter id="aab" x="25.388" y="15.129" width="4.013" height="3.852" filterUnits="userSpaceOnUse" color-interpolation-filters="sRGB"><feFlood flood-opacity="0" result="BackgroundImageFix"/><feBlend in="SourceGraphic" in2="BackgroundImageFix" result="shape"/><feGaussianBlur stdDeviation=".172" result="effect1_foregroundBlur_5148_65257"/></filter><filter id="aah" x="21.367" y="22.293" width="6.967" height="5.75" filterUnits="userSpaceOnUse" color-interpolation-filters="sRGB"><feFlood flood-opacity="0" result="BackgroundImageFix"/><feBlend in="SourceGraphic" in2="BackgroundImageFix" result="shape"/><feGaussianBlur stdDeviation=".172" result="effect1_foregroundBlur_5148_65257"/></filter></defs></svg><svg fill="none" viewBox="0 0 21 21" id="empty-star" xmlns="http://www.w3.org/2000/svg"><path opacity=".4" d="m12.073 2.27 1.76 3.52c.24.49.88.96 1.42 1.05l3.19.53c2.04.34 2.52 1.82 1.05 3.28l-2.48 2.48c-.42.42-.65 1.23-.52 1.81l.71 3.07c.56 2.43-.73 3.37-2.88 2.1l-2.99-1.77c-.54-.32-1.43-.32-1.98 0l-2.99 1.77c-2.14 1.27-3.44.32-2.88-2.1l.71-3.07c.13-.58-.1-1.39-.52-1.81l-2.48-2.48c-1.46-1.46-.99-2.94 1.05-3.28l3.19-.53c.53-.09 1.17-.56 1.41-1.05l1.76-3.52c.96-1.91 2.52-1.91 3.47 0Z" fill="#fff"/></svg><svg fill="currentColor" viewBox="0 0 24 25" id="google-icon" xmlns="http://www.w3.org/2000/svg"><path d="M22.56 12.488c0-.78-.07-1.53-.2-2.25H12v4.26h5.92c-.26 1.37-1.04 2.53-2.21 3.31v2.77h3.57c2.08-1.92 3.28-4.74 3.28-8.09Z"/><path d="M12 23.238c2.97 0 5.46-.98 7.28-2.66l-3.57-2.77c-.98.66-2.23 1.06-3.71 1.06-2.86 0-5.29-1.93-6.16-4.53H2.18v2.84c1.81 3.59 5.52 6.06 9.82 6.06Z"/><path d="M5.84 14.329c-.22-.66-.35-1.36-.35-2.09 0-.73.13-1.43.35-2.09v-2.84H2.18C1.43 8.789 1 10.459 1 12.239c0 1.78.43 3.45 1.18 4.93l2.85-2.22.81-.62Z"/><path d="M12 5.618c1.62 0 3.06.56 4.21 1.64l3.15-3.15c-1.91-1.78-4.39-2.87-7.36-2.87-4.3 0-8.01 2.47-9.82 6.07l3.66 2.84c.87-2.6 3.3-4.53 6.16-4.53Z"/></svg><svg fill="none" viewBox="0 0 108 48" id="logo-website" xmlns="http://www.w3.org/2000/svg"><mask id="db" style="mask-type:alpha" maskUnits="userSpaceOnUse" x="0" y="0" width="108" height="48"><path d="M100.257 0c1.269 0 2.382.147 3.379.497 1.394.49 2.547 1.377 3.226 2.695l.014.029.04.074c.336.648.576 1.297.699 1.97l.025.146.021.145c.042.32.069.677.082 1.09l.007.253.004.268.001.281-.001.282-.004.267-.007.254c-.013.412-.04.77-.082 1.09-.103.778-.361 1.52-.745 2.26l-.081.154a5.303 5.303 0 0 1-.406.644c.747.948 1.157 2.095 1.262 3.342l.01.134.005.105.006.063c.006.07.011.143.015.217l.012.231.004.122.007.254.004.27.001.274v14.191l-.002.277-.006.262c-.012.468-.039.87-.086 1.224-.103.778-.361 1.52-.745 2.26l-.082.155c-.662 1.238-1.74 2.071-3.038 2.553l-.116.042-.113.039c-.985.328-2.087.466-3.351.466-1.204 0-2.27-.132-3.231-.443l-.05-.017c-.734 2.217-2.034 4.163-3.88 5.77-2.88 2.508-6.246 3.81-9.939 3.81-2.719 0-5.326-.657-7.768-1.951-1.233-.653-2.222-1.319-2.992-2.057-1.166-1.118-1.903-2.46-1.903-4.083 0-2.02.772-3.859 2.191-5.347l.111-.114.174-.188-.13-.13-.182-.187c-2.452-2.556-3.815-5.607-4.01-9.005a7.176 7.176 0 0 1-1.217-.24l-.17-.051-.049-.017v6.973c0 .094-.001.186-.003.276l-.005.262c-.012.468-.04.87-.086 1.224-.103.778-.361 1.52-.746 2.26l-.073.14-.031.057-.033.056c-.735 1.259-1.893 2.085-3.276 2.54-.984.324-2.08.462-3.327.462-2.074 0-3.81-.41-5.2-1.477l-.157-.124-.057-.05a5.754 5.754 0 0 1-1.435-1.877 14.055 14.055 0 0 1-3.306 2.257c-2.209 1.082-4.539 1.633-6.945 1.633-2.44 0-4.804-.593-7.044-1.753a14.934 14.934 0 0 1-3.786-2.799 10.4 10.4 0 0 1-1.927 1.487l-.957.577-.458.274a8.005 8.005 0 0 1-.761.398l-.194.087-.1.043-.207.087a16.6 16.6 0 0 1-.33.13l-.232.088-.244.089-.254.09-.266.09-.137.046-.284.093-.295.095-.309.096c-1.755.544-3.488.822-5.19.822-1.626 0-3.26-.21-4.893-.626-1.674-.426-3.355-1.123-5.047-2.08a20.735 20.735 0 0 1-4.643-3.572c-1.488-1.523-2.674-3.415-3.574-5.647C.45 25.104 0 22.677 0 20.103c0-2.582.446-4.98 1.353-7.167.89-2.148 2.064-3.98 3.535-5.469a19.38 19.38 0 0 1 4.508-3.39l.374-.202c3.163-1.686 6.419-2.55 9.725-2.55 1.666 0 3.342.252 5.018.747 1.54.455 2.781.941 3.77 1.508l1.093.63.268.163.234.144.22.138.205.131.19.125.09.06.17.115.112.077.106.085C32.552 6.51 33.5 8.22 33.5 10.2c0 .879-.174 1.73-.498 2.549 2.785-2.207 6.003-3.348 9.529-3.348 3.855 0 7.333 1.358 10.264 3.979l.048-.101.073-.148.027-.052c.701-1.336 1.877-2.224 3.298-2.71 1-.342 2.117-.486 3.39-.486 1.176 0 2.212.12 3.144.403.268.081.528.176.779.285l.149.067.082.04.102-.052c1.136-.56 2.26-.89 3.402-.938l.149-.005.143-.001c.827 0 1.56.046 2.218.147.641.1 1.308.26 2.004.476a6.716 6.716 0 0 1 3 1.9l.05.056c2.165-1.556 4.574-2.378 7.164-2.378 1.347 0 2.632.234 3.826.712l.164.067.005-.003c1.045-.568 2.25-.821 3.597-.853l.156-.003h.141c1.206 0 2.2.082 3.066.296a6.07 6.07 0 0 1-.161-.799 11.825 11.825 0 0 1-.087-1.23l-.005-.266-.002-.282v-.244c0-.095 0-.187.002-.276l.005-.263c.013-.468.04-.869.087-1.223a6.942 6.942 0 0 1 .657-2.12l.073-.148.027-.052C94.27 1.86 95.446.972 96.867.486c1-.341 2.117-.486 3.39-.486Z" fill="url(#da)"/></mask><g mask="url(#db)"><path d="M100.257 0c1.269 0 2.382.147 3.379.497 1.394.49 2.547 1.377 3.226 2.695l.014.029.04.074c.336.648.576 1.297.699 1.97l.025.146.021.145c.042.32.069.677.082 1.09l.007.253.004.268.001.281-.001.282-.004.267-.007.254c-.013.412-.04.77-.082 1.09-.103.778-.361 1.52-.745 2.26l-.081.154a5.303 5.303 0 0 1-.406.644c.747.948 1.157 2.095 1.262 3.342l.01.134.005.105.006.063c.006.07.011.143.015.217l.012.231.004.122.007.254.004.27.001.274v14.191l-.002.277-.006.262c-.012.468-.039.87-.086 1.224-.103.778-.361 1.52-.745 2.26l-.082.155c-.662 1.238-1.74 2.071-3.038 2.553l-.116.042-.113.039c-.985.328-2.087.466-3.351.466-1.204 0-2.27-.132-3.231-.443l-.05-.017c-.734 2.217-2.034 4.163-3.88 5.77-2.88 2.508-6.246 3.81-9.939 3.81-2.719 0-5.326-.657-7.768-1.951-1.233-.653-2.222-1.319-2.992-2.057-1.166-1.118-1.903-2.46-1.903-4.083 0-2.02.772-3.859 2.191-5.347l.111-.114.174-.188-.13-.13-.182-.187c-2.452-2.556-3.815-5.607-4.01-9.005a7.176 7.176 0 0 1-1.217-.24l-.17-.051-.049-.017v6.973c0 .094-.001.186-.003.276l-.005.262c-.012.468-.04.87-.086 1.224-.103.778-.361 1.52-.746 2.26l-.073.14-.031.057-.033.056c-.735 1.259-1.893 2.085-3.276 2.54-.984.324-2.08.462-3.327.462-2.074 0-3.81-.41-5.2-1.477l-.157-.124-.057-.05a5.754 5.754 0 0 1-1.435-1.877 14.055 14.055 0 0 1-3.306 2.257c-2.209 1.082-4.539 1.633-6.945 1.633-2.44 0-4.804-.593-7.044-1.753a14.934 14.934 0 0 1-3.786-2.799 10.4 10.4 0 0 1-1.927 1.487l-.957.577-.458.274a8.005 8.005 0 0 1-.761.398l-.194.087-.1.043-.207.087a16.6 16.6 0 0 1-.33.13l-.232.088-.244.089-.254.09-.266.09-.137.046-.284.093-.295.095-.309.096c-1.755.544-3.488.822-5.19.822-1.626 0-3.26-.21-4.893-.626-1.674-.426-3.355-1.123-5.047-2.08a20.735 20.735 0 0 1-4.643-3.572c-1.488-1.523-2.674-3.415-3.574-5.647C.45 25.104 0 22.677 0 20.103c0-2.582.446-4.98 1.353-7.167.89-2.148 2.064-3.98 3.535-5.469a19.38 19.38 0 0 1 4.508-3.39l.374-.202c3.163-1.686 6.419-2.55 9.725-2.55 1.666 0 3.342.252 5.018.747 1.54.455 2.781.941 3.77 1.508l1.093.63.268.163.234.144.22.138.205.131.19.125.09.06.17.115.112.077.106.085C32.552 6.51 33.5 8.22 33.5 10.2c0 .879-.174 1.73-.498 2.549 2.785-2.207 6.003-3.348 9.529-3.348 3.855 0 7.333 1.358 10.264 3.979l.048-.101.073-.148.027-.052c.701-1.336 1.877-2.224 3.298-2.71 1-.342 2.117-.486 3.39-.486 1.176 0 2.212.12 3.144.403.268.081.528.176.779.285l.149.067.082.04.102-.052c1.136-.56 2.26-.89 3.402-.938l.149-.005.143-.001c.827 0 1.56.046 2.218.147.641.1 1.308.26 2.004.476a6.716 6.716 0 0 1 3 1.9l.05.056c2.165-1.556 4.574-2.378 7.164-2.378 1.347 0 2.632.234 3.826.712l.164.067.005-.003c1.045-.568 2.25-.821 3.597-.853l.156-.003h.141c1.206 0 2.2.082 3.066.296a6.07 6.07 0 0 1-.161-.799 11.825 11.825 0 0 1-.087-1.23l-.005-.266-.002-.282v-.244c0-.095 0-.187.002-.276l.005-.263c.013-.468.04-.869.087-1.223a6.942 6.942 0 0 1 .657-2.12l.073-.148.027-.052C94.27 1.86 95.446.972 96.867.486c1-.341 2.117-.486 3.39-.486Z" fill="url(#dc)"/><mask id="de" maskUnits="userSpaceOnUse" x="1.963" y="1.912" width="104" height="44" fill="#000"><path fill="#fff" d="M1.963 1.912h104v44h-104z"/><path d="M89.91 13.714c1.056 0 1.83.08 2.317.242.488.16.834.435 1.037.823.203.389.325.73.366 1.025.04.294.061.75.061 1.365v16.789c-.037 3.008-1.121 5.44-3.253 7.296-2.169 1.888-4.609 2.832-7.32 2.832-2.06 0-4.026-.495-5.896-1.486s-2.806-1.889-2.806-2.692c0-1.045.407-1.969 1.22-2.772.515-.563.915-.95 1.2-1.165a1.61 1.61 0 0 1 .996-.321c.38 0 .772.16 1.179.482 1.301.99 2.711 1.486 4.23 1.486 1.03 0 1.87-.402 2.52-1.205.651-.804.976-1.768.976-2.893v-1.205l-.062.08c-1.034 1.286-2.653 1.929-4.858 1.929-2.25 0-4.358-1.025-6.323-3.074-1.966-2.048-2.949-4.439-2.949-7.17 0-2.732.99-5.13 2.969-7.192 1.979-2.062 4.148-3.093 6.506-3.093.922 0 1.762.167 2.522.502.758.335 1.28.643 1.565.924.285.281.508.542.671.784.081-.75.36-1.32.834-1.708.474-.388 1.24-.583 2.297-.583ZM19.496 5.238c1.274 0 2.569.194 3.883.582 1.315.389 2.312.784 2.99 1.185l.975.563.103.062a21.8 21.8 0 0 1 1.036.661c.705.563 1.057 1.199 1.057 1.908 0 .71-.285 1.453-.854 2.23-1.057 1.446-2.006 2.17-2.846 2.17-.488 0-1.18-.295-2.074-.885-1.139-.91-2.657-1.365-4.555-1.365-1.762 0-3.497.602-5.205 1.807-.813.59-1.49 1.42-2.033 2.491-.542 1.072-.813 2.284-.813 3.636 0 1.352.27 2.564.813 3.636.542 1.071 1.233 1.915 2.074 2.53 1.653 1.18 3.375 1.768 5.164 1.768.84 0 1.634-.107 2.38-.321.745-.214 1.28-.429 1.606-.643l.731-.522.098-.057c.87-.498 1.488-.747 1.854-.747.84 0 1.749.75 2.725 2.25.596.938.894 1.688.894 2.25s-.183 1.031-.548 1.406c-.366.375-.793.71-1.281 1.004-.488.295-.956.576-1.403.844-.448.268-1.363.616-2.745 1.044-1.383.429-2.718.643-4.006.643-1.287 0-2.589-.167-3.904-.502-1.314-.335-2.67-.897-4.066-1.687a16.784 16.784 0 0 1-3.762-2.893c-1.111-1.138-2.026-2.598-2.744-4.379-.719-1.78-1.078-3.716-1.078-5.805 0-2.089.352-3.984 1.057-5.684.705-1.701 1.606-3.107 2.704-4.219a15.452 15.452 0 0 1 3.762-2.792c2.657-1.446 5.327-2.17 8.01-2.17Zm23.037 8.075c2.928 0 5.517 1.038 7.767 3.113 2.25 2.076 3.375 4.72 3.375 7.935 0 2.223-.583 4.198-1.748 5.925-1.166 1.728-2.583 3-4.25 3.817-1.667.817-3.395 1.225-5.185 1.225-1.789 0-3.524-.435-5.205-1.306-1.68-.87-3.097-2.155-4.25-3.856-1.151-1.7-1.728-3.623-1.728-5.765 0-3.214 1.139-5.866 3.416-7.955 2.278-2.089 4.88-3.133 7.808-3.133Zm25.05.281c.637 0 1.172.034 1.606.1.434.067.908.181 1.423.342.516.16.942.435 1.281.824.34.388.509 1.01.509 1.868 0 .857-.258 1.794-.773 2.812-.515 1.018-1.26 1.526-2.236 1.526a3.21 3.21 0 0 1-1.404-.321c-.447-.214-1.036-.321-1.768-.321s-1.417.254-2.054.763c-.637.509-.956 1.125-.956 1.848v8.55c-.002.56-.023.984-.06 1.272-.041.308-.17.663-.387 1.065-.407.696-1.464 1.045-3.172 1.045-1.301 0-2.236-.228-2.806-.683-.434-.375-.677-.951-.732-1.728v-15.38c.003-.56.023-.983.061-1.272.041-.308.156-.65.346-1.024.38-.724 1.437-1.085 3.172-1.085 1.627 0 2.643.308 3.05.924.298.428.447.87.447 1.326.136-.188.332-.416.59-.683.257-.268.806-.63 1.647-1.085.84-.455 1.579-.683 2.216-.683Zm32.675.241c1.301 0 2.223.228 2.765.683.461.375.705.95.732 1.727.027.268.041.657.041 1.165v14.061l-.001.114c-.002.56-.022.984-.06 1.272-.041.308-.17.663-.387 1.065-.352.696-1.396 1.045-3.131 1.045-1.708 0-2.752-.362-3.131-1.085-.19-.402-.305-.75-.346-1.045-.038-.277-.058-.708-.06-1.294V17.217c.002-.56.022-.984.06-1.273.04-.308.156-.663.346-1.064.38-.697 1.437-1.045 3.172-1.045Zm-57.766 6.548c-.976 0-1.884.335-2.724 1.005-.84.67-1.26 1.654-1.26 2.952 0 1.3.433 2.284 1.3 2.953.868.643 1.749.965 2.644.965.894 0 1.789-.335 2.683-1.005.895-.67 1.342-1.66 1.342-2.973 0-1.312-.42-2.29-1.26-2.932-.84-.643-1.749-.965-2.725-.965Zm40.544.242c-1.057 0-1.911.361-2.562 1.084-.65.723-.976 1.527-.976 2.41 0 .858.346 1.634 1.037 2.33.691.697 1.532 1.045 2.521 1.045.99 0 1.81-.355 2.46-1.064.651-.71.976-1.487.976-2.33 0-.844-.311-1.634-.935-2.37-.624-.737-1.464-1.105-2.521-1.105Zm-64.023-4.191c2.188 0 3.961 1.752 3.961 3.913 0 2.161-1.773 3.913-3.96 3.913-2.188 0-3.962-1.752-3.962-3.913 0-2.161 1.774-3.913 3.961-3.913ZM100.26 3.912c1.708 0 2.738.362 3.09 1.085.217.402.346.756.387 1.064.04.308.061.77.061 1.386 0 .616-.021 1.078-.061 1.386-.041.308-.17.663-.387 1.065-.189.375-.542.643-1.057.803-.515.161-1.2.242-2.054.242-.853 0-1.538-.08-2.053-.242-.515-.16-.874-.441-1.078-.843-.203-.402-.325-.757-.366-1.065a10.868 10.868 0 0 1-.06-1.272v-.227c.002-.56.022-.984.06-1.273.04-.308.156-.65.346-1.024.38-.723 1.437-1.085 3.172-1.085Z"/></mask><path d="M89.91 13.714c1.056 0 1.83.08 2.317.242.488.16.834.435 1.037.823.203.389.325.73.366 1.025.04.294.061.75.061 1.365v16.789c-.037 3.008-1.121 5.44-3.253 7.296-2.169 1.888-4.609 2.832-7.32 2.832-2.06 0-4.026-.495-5.896-1.486s-2.806-1.889-2.806-2.692c0-1.045.407-1.969 1.22-2.772.515-.563.915-.95 1.2-1.165a1.61 1.61 0 0 1 .996-.321c.38 0 .772.16 1.179.482 1.301.99 2.711 1.486 4.23 1.486 1.03 0 1.87-.402 2.52-1.205.651-.804.976-1.768.976-2.893v-1.205l-.062.08c-1.034 1.286-2.653 1.929-4.858 1.929-2.25 0-4.358-1.025-6.323-3.074-1.966-2.048-2.949-4.439-2.949-7.17 0-2.732.99-5.13 2.969-7.192 1.979-2.062 4.148-3.093 6.506-3.093.922 0 1.762.167 2.522.502.758.335 1.28.643 1.565.924.285.281.508.542.671.784.081-.75.36-1.32.834-1.708.474-.388 1.24-.583 2.297-.583ZM19.496 5.238c1.274 0 2.569.194 3.883.582 1.315.389 2.312.784 2.99 1.185l.975.563.103.062a21.8 21.8 0 0 1 1.036.661c.705.563 1.057 1.199 1.057 1.908 0 .71-.285 1.453-.854 2.23-1.057 1.446-2.006 2.17-2.846 2.17-.488 0-1.18-.295-2.074-.885-1.139-.91-2.657-1.365-4.555-1.365-1.762 0-3.497.602-5.205 1.807-.813.59-1.49 1.42-2.033 2.491-.542 1.072-.813 2.284-.813 3.636 0 1.352.27 2.564.813 3.636.542 1.071 1.233 1.915 2.074 2.53 1.653 1.18 3.375 1.768 5.164 1.768.84 0 1.634-.107 2.38-.321.745-.214 1.28-.429 1.606-.643l.731-.522.098-.057c.87-.498 1.488-.747 1.854-.747.84 0 1.749.75 2.725 2.25.596.938.894 1.688.894 2.25s-.183 1.031-.548 1.406c-.366.375-.793.71-1.281 1.004-.488.295-.956.576-1.403.844-.448.268-1.363.616-2.745 1.044-1.383.429-2.718.643-4.006.643-1.287 0-2.589-.167-3.904-.502-1.314-.335-2.67-.897-4.066-1.687a16.784 16.784 0 0 1-3.762-2.893c-1.111-1.138-2.026-2.598-2.744-4.379-.719-1.78-1.078-3.716-1.078-5.805 0-2.089.352-3.984 1.057-5.684.705-1.701 1.606-3.107 2.704-4.219a15.452 15.452 0 0 1 3.762-2.792c2.657-1.446 5.327-2.17 8.01-2.17Zm23.037 8.075c2.928 0 5.517 1.038 7.767 3.113 2.25 2.076 3.375 4.72 3.375 7.935 0 2.223-.583 4.198-1.748 5.925-1.166 1.728-2.583 3-4.25 3.817-1.667.817-3.395 1.225-5.185 1.225-1.789 0-3.524-.435-5.205-1.306-1.68-.87-3.097-2.155-4.25-3.856-1.151-1.7-1.728-3.623-1.728-5.765 0-3.214 1.139-5.866 3.416-7.955 2.278-2.089 4.88-3.133 7.808-3.133Zm25.05.281c.637 0 1.172.034 1.606.1.434.067.908.181 1.423.342.516.16.942.435 1.281.824.34.388.509 1.01.509 1.868 0 .857-.258 1.794-.773 2.812-.515 1.018-1.26 1.526-2.236 1.526a3.21 3.21 0 0 1-1.404-.321c-.447-.214-1.036-.321-1.768-.321s-1.417.254-2.054.763c-.637.509-.956 1.125-.956 1.848v8.55c-.002.56-.023.984-.06 1.272-.041.308-.17.663-.387 1.065-.407.696-1.464 1.045-3.172 1.045-1.301 0-2.236-.228-2.806-.683-.434-.375-.677-.951-.732-1.728v-15.38c.003-.56.023-.983.061-1.272.041-.308.156-.65.346-1.024.38-.724 1.437-1.085 3.172-1.085 1.627 0 2.643.308 3.05.924.298.428.447.87.447 1.326.136-.188.332-.416.59-.683.257-.268.806-.63 1.647-1.085.84-.455 1.579-.683 2.216-.683Zm32.675.241c1.301 0 2.223.228 2.765.683.461.375.705.95.732 1.727.027.268.041.657.041 1.165v14.061l-.001.114c-.002.56-.022.984-.06 1.272-.041.308-.17.663-.387 1.065-.352.696-1.396 1.045-3.131 1.045-1.708 0-2.752-.362-3.131-1.085-.19-.402-.305-.75-.346-1.045-.038-.277-.058-.708-.06-1.294V17.217c.002-.56.022-.984.06-1.273.04-.308.156-.663.346-1.064.38-.697 1.437-1.045 3.172-1.045Zm-57.766 6.548c-.976 0-1.884.335-2.724 1.005-.84.67-1.26 1.654-1.26 2.952 0 1.3.433 2.284 1.3 2.953.868.643 1.749.965 2.644.965.894 0 1.789-.335 2.683-1.005.895-.67 1.342-1.66 1.342-2.973 0-1.312-.42-2.29-1.26-2.932-.84-.643-1.749-.965-2.725-.965Zm40.544.242c-1.057 0-1.911.361-2.562 1.084-.65.723-.976 1.527-.976 2.41 0 .858.346 1.634 1.037 2.33.691.697 1.532 1.045 2.521 1.045.99 0 1.81-.355 2.46-1.064.651-.71.976-1.487.976-2.33 0-.844-.311-1.634-.935-2.37-.624-.737-1.464-1.105-2.521-1.105Zm-64.023-4.191c2.188 0 3.961 1.752 3.961 3.913 0 2.161-1.773 3.913-3.96 3.913-2.188 0-3.962-1.752-3.962-3.913 0-2.161 1.774-3.913 3.961-3.913ZM100.26 3.912c1.708 0 2.738.362 3.09 1.085.217.402.346.756.387 1.064.04.308.061.77.061 1.386 0 .616-.021 1.078-.061 1.386-.041.308-.17.663-.387 1.065-.189.375-.542.643-1.057.803-.515.161-1.2.242-2.054.242-.853 0-1.538-.08-2.053-.242-.515-.16-.874-.441-1.078-.843-.203-.402-.325-.757-.366-1.065a10.868 10.868 0 0 1-.06-1.272v-.227c.002-.56.022-.984.06-1.273.04-.308.156-.65.346-1.024.38-.723 1.437-1.085 3.172-1.085Z" fill="url(#dd)"/><path d="M89.91 13.714c1.056 0 1.83.08 2.317.242.488.16.834.435 1.037.823.203.389.325.73.366 1.025.04.294.061.75.061 1.365v16.789c-.037 3.008-1.121 5.44-3.253 7.296-2.169 1.888-4.609 2.832-7.32 2.832-2.06 0-4.026-.495-5.896-1.486s-2.806-1.889-2.806-2.692c0-1.045.407-1.969 1.22-2.772.515-.563.915-.95 1.2-1.165a1.61 1.61 0 0 1 .996-.321c.38 0 .772.16 1.179.482 1.301.99 2.711 1.486 4.23 1.486 1.03 0 1.87-.402 2.52-1.205.651-.804.976-1.768.976-2.893v-1.205l-.062.08c-1.034 1.286-2.653 1.929-4.858 1.929-2.25 0-4.358-1.025-6.323-3.074-1.966-2.048-2.949-4.439-2.949-7.17 0-2.732.99-5.13 2.969-7.192 1.979-2.062 4.148-3.093 6.506-3.093.922 0 1.762.167 2.522.502.758.335 1.28.643 1.565.924.285.281.508.542.671.784.081-.75.36-1.32.834-1.708.474-.388 1.24-.583 2.297-.583ZM19.496 5.238c1.274 0 2.569.194 3.883.582 1.315.389 2.312.784 2.99 1.185l.975.563.103.062a21.8 21.8 0 0 1 1.036.661c.705.563 1.057 1.199 1.057 1.908 0 .71-.285 1.453-.854 2.23-1.057 1.446-2.006 2.17-2.846 2.17-.488 0-1.18-.295-2.074-.885-1.139-.91-2.657-1.365-4.555-1.365-1.762 0-3.497.602-5.205 1.807-.813.59-1.49 1.42-2.033 2.491-.542 1.072-.813 2.284-.813 3.636 0 1.352.27 2.564.813 3.636.542 1.071 1.233 1.915 2.074 2.53 1.653 1.18 3.375 1.768 5.164 1.768.84 0 1.634-.107 2.38-.321.745-.214 1.28-.429 1.606-.643l.731-.522.098-.057c.87-.498 1.488-.747 1.854-.747.84 0 1.749.75 2.725 2.25.596.938.894 1.688.894 2.25s-.183 1.031-.548 1.406c-.366.375-.793.71-1.281 1.004-.488.295-.956.576-1.403.844-.448.268-1.363.616-2.745 1.044-1.383.429-2.718.643-4.006.643-1.287 0-2.589-.167-3.904-.502-1.314-.335-2.67-.897-4.066-1.687a16.784 16.784 0 0 1-3.762-2.893c-1.111-1.138-2.026-2.598-2.744-4.379-.719-1.78-1.078-3.716-1.078-5.805 0-2.089.352-3.984 1.057-5.684.705-1.701 1.606-3.107 2.704-4.219a15.452 15.452 0 0 1 3.762-2.792c2.657-1.446 5.327-2.17 8.01-2.17Zm23.037 8.075c2.928 0 5.517 1.038 7.767 3.113 2.25 2.076 3.375 4.72 3.375 7.935 0 2.223-.583 4.198-1.748 5.925-1.166 1.728-2.583 3-4.25 3.817-1.667.817-3.395 1.225-5.185 1.225-1.789 0-3.524-.435-5.205-1.306-1.68-.87-3.097-2.155-4.25-3.856-1.151-1.7-1.728-3.623-1.728-5.765 0-3.214 1.139-5.866 3.416-7.955 2.278-2.089 4.88-3.133 7.808-3.133Zm25.05.281c.637 0 1.172.034 1.606.1.434.067.908.181 1.423.342.516.16.942.435 1.281.824.34.388.509 1.01.509 1.868 0 .857-.258 1.794-.773 2.812-.515 1.018-1.26 1.526-2.236 1.526a3.21 3.21 0 0 1-1.404-.321c-.447-.214-1.036-.321-1.768-.321s-1.417.254-2.054.763c-.637.509-.956 1.125-.956 1.848v8.55c-.002.56-.023.984-.06 1.272-.041.308-.17.663-.387 1.065-.407.696-1.464 1.045-3.172 1.045-1.301 0-2.236-.228-2.806-.683-.434-.375-.677-.951-.732-1.728v-15.38c.003-.56.023-.983.061-1.272.041-.308.156-.65.346-1.024.38-.724 1.437-1.085 3.172-1.085 1.627 0 2.643.308 3.05.924.298.428.447.87.447 1.326.136-.188.332-.416.59-.683.257-.268.806-.63 1.647-1.085.84-.455 1.579-.683 2.216-.683Zm32.675.241c1.301 0 2.223.228 2.765.683.461.375.705.95.732 1.727.027.268.041.657.041 1.165v14.061l-.001.114c-.002.56-.022.984-.06 1.272-.041.308-.17.663-.387 1.065-.352.696-1.396 1.045-3.131 1.045-1.708 0-2.752-.362-3.131-1.085-.19-.402-.305-.75-.346-1.045-.038-.277-.058-.708-.06-1.294V17.217c.002-.56.022-.984.06-1.273.04-.308.156-.663.346-1.064.38-.697 1.437-1.045 3.172-1.045Zm-57.766 6.548c-.976 0-1.884.335-2.724 1.005-.84.67-1.26 1.654-1.26 2.952 0 1.3.433 2.284 1.3 2.953.868.643 1.749.965 2.644.965.894 0 1.789-.335 2.683-1.005.895-.67 1.342-1.66 1.342-2.973 0-1.312-.42-2.29-1.26-2.932-.84-.643-1.749-.965-2.725-.965Zm40.544.242c-1.057 0-1.911.361-2.562 1.084-.65.723-.976 1.527-.976 2.41 0 .858.346 1.634 1.037 2.33.691.697 1.532 1.045 2.521 1.045.99 0 1.81-.355 2.46-1.064.651-.71.976-1.487.976-2.33 0-.844-.311-1.634-.935-2.37-.624-.737-1.464-1.105-2.521-1.105Zm-64.023-4.191c2.188 0 3.961 1.752 3.961 3.913 0 2.161-1.773 3.913-3.96 3.913-2.188 0-3.962-1.752-3.962-3.913 0-2.161 1.774-3.913 3.961-3.913ZM100.26 3.912c1.708 0 2.738.362 3.09 1.085.217.402.346.756.387 1.064.04.308.061.77.061 1.386 0 .616-.021 1.078-.061 1.386-.041.308-.17.663-.387 1.065-.189.375-.542.643-1.057.803-.515.161-1.2.242-2.054.242-.853 0-1.538-.08-2.053-.242-.515-.16-.874-.441-1.078-.843-.203-.402-.325-.757-.366-1.065a10.868 10.868 0 0 1-.06-1.272v-.227c.002-.56.022-.984.06-1.273.04-.308.156-.65.346-1.024.38-.723 1.437-1.085 3.172-1.085Z" stroke="#000" stroke-opacity=".12" stroke-width="2.4" mask="url(#de)"/><path d="M89.91 13.714c1.056 0 1.83.08 2.317.242.488.16.834.435 1.037.823.203.389.325.73.366 1.025.04.294.061.75.061 1.365v16.789c-.037 3.008-1.121 5.44-3.253 7.296-2.169 1.888-4.609 2.832-7.32 2.832-2.06 0-4.026-.495-5.896-1.486s-2.806-1.889-2.806-2.692c0-1.045.407-1.969 1.22-2.772.515-.563.915-.95 1.2-1.165a1.61 1.61 0 0 1 .996-.321c.38 0 .772.16 1.179.482 1.301.99 2.711 1.486 4.23 1.486 1.03 0 1.87-.402 2.52-1.205.651-.804.976-1.768.976-2.893v-1.205l-.062.08c-1.034 1.286-2.653 1.929-4.858 1.929-2.25 0-4.358-1.025-6.323-3.074-1.966-2.048-2.949-4.439-2.949-7.17 0-2.732.99-5.13 2.969-7.192 1.979-2.062 4.148-3.093 6.506-3.093.922 0 1.762.167 2.522.502.758.335 1.28.643 1.565.924.285.281.508.542.671.784.081-.75.36-1.32.834-1.708.474-.388 1.24-.583 2.297-.583ZM19.496 5.238c1.274 0 2.569.194 3.883.582 1.315.389 2.312.784 2.99 1.185l.975.563.103.062a21.8 21.8 0 0 1 1.036.661c.705.563 1.057 1.199 1.057 1.908 0 .71-.285 1.453-.854 2.23-1.057 1.446-2.006 2.17-2.846 2.17-.488 0-1.18-.295-2.074-.885-1.139-.91-2.657-1.365-4.555-1.365-1.762 0-3.497.602-5.205 1.807-.813.59-1.49 1.42-2.033 2.491-.542 1.072-.813 2.284-.813 3.636 0 1.352.27 2.564.813 3.636.542 1.071 1.233 1.915 2.074 2.53 1.653 1.18 3.375 1.768 5.164 1.768.84 0 1.634-.107 2.38-.321.745-.214 1.28-.429 1.606-.643l.731-.522.098-.057c.87-.498 1.488-.747 1.854-.747.84 0 1.749.75 2.725 2.25.596.938.894 1.688.894 2.25s-.183 1.031-.548 1.406c-.366.375-.793.71-1.281 1.004-.488.295-.956.576-1.403.844-.448.268-1.363.616-2.745 1.044-1.383.429-2.718.643-4.006.643-1.287 0-2.589-.167-3.904-.502-1.314-.335-2.67-.897-4.066-1.687a16.784 16.784 0 0 1-3.762-2.893c-1.111-1.138-2.026-2.598-2.744-4.379-.719-1.78-1.078-3.716-1.078-5.805 0-2.089.352-3.984 1.057-5.684.705-1.701 1.606-3.107 2.704-4.219a15.452 15.452 0 0 1 3.762-2.792c2.657-1.446 5.327-2.17 8.01-2.17Zm23.037 8.075c2.928 0 5.517 1.038 7.767 3.113 2.25 2.076 3.375 4.72 3.375 7.935 0 2.223-.583 4.198-1.748 5.925-1.166 1.728-2.583 3-4.25 3.817-1.667.817-3.395 1.225-5.185 1.225-1.789 0-3.524-.435-5.205-1.306-1.68-.87-3.097-2.155-4.25-3.856-1.151-1.7-1.728-3.623-1.728-5.765 0-3.214 1.139-5.866 3.416-7.955 2.278-2.089 4.88-3.133 7.808-3.133Zm25.05.281c.637 0 1.172.034 1.606.1.434.067.908.181 1.423.342.516.16.942.435 1.281.824.34.388.509 1.01.509 1.868 0 .857-.258 1.794-.773 2.812-.515 1.018-1.26 1.526-2.236 1.526a3.21 3.21 0 0 1-1.404-.321c-.447-.214-1.036-.321-1.768-.321s-1.417.254-2.054.763c-.637.509-.956 1.125-.956 1.848v8.55c-.002.56-.023.984-.06 1.272-.041.308-.17.663-.387 1.065-.407.696-1.464 1.045-3.172 1.045-1.301 0-2.236-.228-2.806-.683-.434-.375-.677-.951-.732-1.728v-15.38c.003-.56.023-.983.061-1.272.041-.308.156-.65.346-1.024.38-.724 1.437-1.085 3.172-1.085 1.627 0 2.643.308 3.05.924.298.428.447.87.447 1.326.136-.188.332-.416.59-.683.257-.268.806-.63 1.647-1.085.84-.455 1.579-.683 2.216-.683Zm32.675.241c1.301 0 2.223.228 2.765.683.461.375.705.95.732 1.727.027.268.041.657.041 1.165v14.061l-.001.114c-.002.56-.022.984-.06 1.272-.041.308-.17.663-.387 1.065-.352.696-1.396 1.045-3.131 1.045-1.708 0-2.752-.362-3.131-1.085-.19-.402-.305-.75-.346-1.045-.038-.277-.058-.708-.06-1.294V17.217c.002-.56.022-.984.06-1.273.04-.308.156-.663.346-1.064.38-.697 1.437-1.045 3.172-1.045Zm-57.766 6.548c-.976 0-1.884.335-2.724 1.005-.84.67-1.26 1.654-1.26 2.952 0 1.3.433 2.284 1.3 2.953.868.643 1.749.965 2.644.965.894 0 1.789-.335 2.683-1.005.895-.67 1.342-1.66 1.342-2.973 0-1.312-.42-2.29-1.26-2.932-.84-.643-1.749-.965-2.725-.965Zm40.544.242c-1.057 0-1.911.361-2.562 1.084-.65.723-.976 1.527-.976 2.41 0 .858.346 1.634 1.037 2.33.691.697 1.532 1.045 2.521 1.045.99 0 1.81-.355 2.46-1.064.651-.71.976-1.487.976-2.33 0-.844-.311-1.634-.935-2.37-.624-.737-1.464-1.105-2.521-1.105Zm-64.023-4.191c2.188 0 3.961 1.752 3.961 3.913 0 2.161-1.773 3.913-3.96 3.913-2.188 0-3.962-1.752-3.962-3.913 0-2.161 1.774-3.913 3.961-3.913ZM100.26 3.912c1.708 0 2.738.362 3.09 1.085.217.402.346.756.387 1.064.04.308.061.77.061 1.386 0 .616-.021 1.078-.061 1.386-.041.308-.17.663-.387 1.065-.189.375-.542.643-1.057.803-.515.161-1.2.242-2.054.242-.853 0-1.538-.08-2.053-.242-.515-.16-.874-.441-1.078-.843-.203-.402-.325-.757-.366-1.065a10.868 10.868 0 0 1-.06-1.272v-.227c.002-.56.022-.984.06-1.273.04-.308.156-.65.346-1.024.38-.723 1.437-1.085 3.172-1.085Z" fill="url(#df)"/></g><defs><linearGradient id="da" x1="53.878" y1="0" x2="53.878" y2="48" gradientUnits="userSpaceOnUse"><stop stop-color="#FB5"/><stop offset=".999" stop-color="#FB9A41"/></linearGradient><linearGradient id="dc" x1="53.878" y1="0" x2="53.878" y2="48" gradientUnits="userSpaceOnUse"><stop stop-color="#FB5"/><stop offset=".999" stop-color="#FB9A41"/></linearGradient><linearGradient id="dd" x1="53.88" y1="3.912" x2="53.88" y2="44.086" gradientUnits="userSpaceOnUse"><stop stop-color="#fff"/><stop offset=".999" stop-color="#FFF6EC"/></linearGradient><linearGradient id="df" x1="53.88" y1="3.912" x2="53.88" y2="44.086" gradientUnits="userSpaceOnUse"><stop stop-color="#fff"/><stop offset=".999" stop-color="#FFF6EC"/></linearGradient></defs></svg><svg fill="none" viewBox="0 0 26 26" id="sign-in-icon" xmlns="http://www.w3.org/2000/svg"><path fill-rule="evenodd" clip-rule="evenodd" d="M9.93 8.07c.167-1.833.722-2.882 1.557-3.523.883-.678 2.318-1.084 4.641-1.084h.156c2.57 0 4.045.496 4.902 1.305.838.793 1.35 2.145 1.35 4.538v7.387c0 2.393-.512 3.744-1.35 4.537-.857.81-2.333 1.306-4.902 1.306h-.156c-2.306 0-3.735-.4-4.62-1.07-.834-.631-1.39-1.661-1.567-3.457a1.25 1.25 0 0 0-2.488.246c.219 2.216.97 4.012 2.547 5.205 1.528 1.155 3.616 1.576 6.128 1.576h.156c2.788 0 5.064-.518 6.619-1.989 1.573-1.487 2.134-3.682 2.134-6.354V9.306c0-2.672-.561-4.867-2.134-6.354-1.555-1.47-3.831-1.99-6.62-1.99h-.155c-2.53 0-4.632.427-6.163 1.602-1.58 1.212-2.32 3.034-2.524 5.28a1.25 1.25 0 0 0 2.49.227Zm2.887.432a1.25 1.25 0 0 1 1.768 0l3.613 3.613a1.25 1.25 0 0 1 0 1.768l-3.613 3.614a1.25 1.25 0 0 1-1.768-1.768l1.48-1.48H2.213a1.25 1.25 0 1 1 0-2.5h12.084l-1.48-1.48a1.25 1.25 0 0 1 0-1.767Z" fill="#0158FF"/></svg><svg fill="none" viewBox="0 0 25 26" id="sign-out-icon" xmlns="http://www.w3.org/2000/svg"><path fill-rule="evenodd" clip-rule="evenodd" d="M12.417 4.116c-.74.678-1.246 1.823-1.395 3.789a1.125 1.125 0 0 1-2.244-.171c.17-2.234.778-4.047 2.118-5.276C12.233 1.23 14.089.779 16.307.779h.134c2.45 0 4.455.553 5.802 2.076 1.315 1.487 1.782 3.66 1.782 6.353v7.606c0 2.693-.467 4.866-1.782 6.353-1.347 1.523-3.352 2.076-5.802 2.076h-.134c-2.202 0-4.046-.446-5.38-1.653-1.34-1.212-1.956-3-2.138-5.202a1.125 1.125 0 0 1 2.242-.185c.16 1.928.667 3.051 1.405 3.718.741.671 1.925 1.072 3.871 1.072h.134c2.162 0 3.387-.492 4.116-1.317.761-.86 1.218-2.34 1.218-4.862V9.208c0-2.523-.457-4.002-1.218-4.862-.73-.826-1.954-1.317-4.116-1.317h-.134c-1.96 0-3.148.406-3.89 1.087Zm-8.555 7.758L5.85 9.886a1.125 1.125 0 1 0-1.591-1.59L.35 12.203c-.44.44-.44 1.151 0 1.59l3.909 3.91a1.125 1.125 0 0 0 1.59-1.592l-1.987-1.988h11.867a1.125 1.125 0 0 0 0-2.25H3.862Z" fill="#fff" opacity=".4"/></svg><svg fill="none" viewBox="0 0 25 26" id="sign-out-icon-blue" xmlns="http://www.w3.org/2000/svg"><path fill-rule="evenodd" clip-rule="evenodd" d="M12.418 4.116c-.74.678-1.246 1.823-1.396 3.789a1.125 1.125 0 0 1-2.243-.171c.17-2.234.778-4.047 2.118-5.276C12.234 1.23 14.09.779 16.307.779h.135c2.45 0 4.455.553 5.802 2.076 1.315 1.487 1.782 3.66 1.782 6.353v7.606c0 2.693-.467 4.866-1.782 6.353-1.347 1.523-3.352 2.076-5.802 2.076h-.134c-2.202 0-4.046-.446-5.381-1.653-1.34-1.212-1.956-3-2.137-5.202a1.125 1.125 0 0 1 2.242-.185c.16 1.928.667 3.051 1.404 3.718.742.671 1.926 1.072 3.872 1.072h.134c2.162 0 3.386-.492 4.116-1.317.761-.86 1.218-2.34 1.218-4.862V9.208c0-2.523-.457-4.002-1.218-4.862-.73-.826-1.954-1.317-4.116-1.317h-.134c-1.961 0-3.149.406-3.89 1.087Zm-8.556 7.758L5.85 9.886a1.125 1.125 0 1 0-1.59-1.59L.35 12.203c-.44.44-.44 1.151 0 1.59l3.908 3.91a1.125 1.125 0 0 0 1.591-1.592l-1.988-1.988H15.73a1.125 1.125 0 0 0 0-2.25H3.862Z" fill="#0158FF"/></svg><svg fill="none" viewBox="0 0 25 24" id="star" xmlns="http://www.w3.org/2000/svg"><path d="M16.498 6.7h0c.053.108.18.262.37.402s.376.218.5.239l-.87-.64Zm0 0-.002-.005-1.76-3.518v-.001c-.53-1.064-1.356-1.848-2.402-1.848-1.045 0-1.875.783-2.41 1.846v.001l-1.76 3.52h0l-.003.006a1.24 1.24 0 0 1-.37.402 1.272 1.272 0 0 1-.492.238l-3.187.53h0c-1.15.192-2.116.751-2.43 1.731-.312.98.15 1.996.973 2.819l2.48 2.48c.097.098.207.281.275.521.068.238.074.454.043.593v.002l-.709 3.064s0 0 0 0c-.295 1.278-.193 2.546.716 3.21.909.662 2.149.375 3.278-.295l2.984-1.767.002-.001c.134-.078.355-.137.615-.137s.477.06.604.135h0l2.99 1.77h0c1.13.668 2.371.96 3.28.298.91-.663 1.007-1.934.713-3.212h0l-.71-3.065v-.002a1.284 1.284 0 0 1 .044-.593 1.25 1.25 0 0 1 .275-.521l2.478-2.478.001-.001c.829-.823 1.291-1.84.976-2.82-.315-.98-1.282-1.54-2.432-1.731h0l-3.19-.53-.87-.64Z" fill="#FFBA54" stroke="#0159FF" stroke-width="1.5" stroke-linecap="round" stroke-linejoin="round"/><path d="m14.065 3.51 1.76 3.52c.24.49.88.96 1.42 1.05l3.19.53c2.04.34 2.52 1.82 1.05 3.28l-2.48 2.48c-.42.42-.65 1.23-.52 1.81l.71 3.07c.56 2.43-.73 3.37-2.88 2.1l-2.99-1.77c-.54-.32-1.43-.32-1.98 0l-2.99 1.77c-2.14 1.27-3.44.32-2.88-2.1l.71-3.07c.13-.58-.1-1.39-.52-1.81l-2.48-2.48c-1.46-1.46-.99-2.94 1.05-3.28l3.19-.53c.53-.09 1.17-.56 1.41-1.05l1.76-3.52c.96-1.91 2.52-1.91 3.47 0Z" fill="url(#ia)"/><defs><linearGradient id="ia" x1="22.335" y1="12.001" x2="2.335" y2="12.001" gradientUnits="userSpaceOnUse"><stop offset=".499" stop-color="#0159FF"/><stop offset=".508" stop-color="#FFBA54"/></linearGradient></defs></svg><svg fill="none" viewBox="0 0 25 24" id="star-background" xmlns="http://www.w3.org/2000/svg"><path d="M16.497 6.7h0c.053.108.179.262.37.402.19.14.376.218.5.239l-.87-.64Zm0 0-.003-.005-1.76-3.518v-.001c-.529-1.064-1.356-1.848-2.402-1.848-1.045 0-1.875.783-2.409 1.846v.001l-1.76 3.52h0l-.003.006c-.053.108-.18.261-.37.402a1.272 1.272 0 0 1-.492.238l-3.188.53h0c-1.15.192-2.116.751-2.429 1.731-.312.98.15 1.996.972 2.819l2.48 2.48c.098.098.207.281.276.521.068.238.074.454.043.593v.002l-.71 3.064s0 0 0 0c-.295 1.278-.192 2.546.717 3.21.908.662 2.148.375 3.277-.295l2.985-1.767.002-.001c.134-.078.355-.137.614-.137.261 0 .478.06.604.135h0l2.99 1.77h.001c1.13.668 2.371.96 3.28.298.91-.663 1.007-1.934.712-3.212h0l-.709-3.065v-.002a1.285 1.285 0 0 1 .043-.593 1.25 1.25 0 0 1 .276-.521l2.478-2.478v-.001c.83-.823 1.292-1.84.977-2.82-.315-.98-1.283-1.54-2.432-1.731h0l-3.19-.53-.87-.64Z" fill="#FFBA54" stroke="#0159FF" stroke-width="1.5" stroke-linecap="round" stroke-linejoin="round"/></svg><svg fill="none" viewBox="0 0 32 32" id="x-icon" xmlns="http://www.w3.org/2000/svg"><path d="m1.405 2.666 11.326 14.708L1.334 29.333h2.565l9.978-10.47 8.062 10.47h8.728L18.705 13.797 29.313 2.666h-2.566l-9.188 9.642-7.425-9.642H1.405Zm3.772 1.835h4.01l17.708 22.997h-4.01L5.177 4.5Z" fill="currentColor"/></svg></svg>