<svg width="1957" height="3498" fill="none" xmlns="http://www.w3.org/2000/svg"><path d="m646.94 2327.83-.002-832.01c0-104.98 38.27-205.75 111.907-280.57L1956 .807 1955 3497H0v-244.95c0-72.77 29.16-142.51 80.961-193.62l450.101-444.1c72.392-74.63 115.878-182.52 115.878-286.5Z" fill="url(#a)"/><path d="M36 3497v-242.98c0-64.32 25.813-125.94 71.648-171.05l439.047-432.13A460.006 460.006 0 0 0 684.02 2323l-.002-832.47a359.992 359.992 0 0 1 103.637-252.74L1956 53" stroke="url(#b)" stroke-linecap="square" stroke-dasharray="7.11 7.11"/><path d="M1954.75 1957.18h-225.06c-211.23 0-413.85 83.67-563.55 232.7L144.552 3206.96a238.738 238.738 0 0 0-70.302 169.19v119.6h1880.5V1957.18Z" fill="url(#c)" stroke="url(#d)" stroke-width="2.5"/><defs><linearGradient id="a" x1="1977.5" y1="1132.99" x2="517.146" y2="1132.98" gradientUnits="userSpaceOnUse"><stop stop-color="#0057FF" stop-opacity="0"/><stop offset=".333" stop-color="#0057FF"/></linearGradient><linearGradient id="b" x1="35.999" y1="2216.58" x2="1954.49" y2="2216.58" gradientUnits="userSpaceOnUse"><stop offset=".757" stop-color="#67ACFF"/><stop offset="1" stop-color="#67ACFF" stop-opacity="0"/></linearGradient><linearGradient id="c" x1="1002.09" y1="2244" x2="1911.59" y2="3216.11" gradientUnits="userSpaceOnUse"><stop stop-color="#0185FF"/><stop offset=".33" stop-color="#0185FF" stop-opacity="0"/></linearGradient><linearGradient id="d" x1="1038.11" y1="1955.93" x2="1550.07" y2="2853.74" gradientUnits="userSpaceOnUse"><stop offset=".211" stop-color="#67ACFF"/><stop offset=".446" stop-color="#67ACFF" stop-opacity="0"/></linearGradient></defs></svg>