<svg width="1921" height="4203" fill="none" xmlns="http://www.w3.org/2000/svg"><path d="m1 487.838 388.425 391.705c155.717 157.027 409.31 157.907 566.107 1.954L1840.8 1H1v486.838Z" fill="url(#a)"/><path d="m1 534.132 365.827 368.756c168.198 169.542 442.051 170.442 611.361 2.012L1886.8 1" stroke="url(#b)" stroke-linecap="square" stroke-dasharray="7.11 7.11"/><path d="m59.96 497.308 108.473 107.889c163.953 163.071 429.336 161.441 591.272-3.632L1348.86 1H1v354.505a200.001 200.001 0 0 0 58.96 141.803Z" fill="url(#c)"/><path d="M169.315 604.311 60.842 496.421A198.75 198.75 0 0 1 2.251 355.505V2.25H1345.88L758.813 600.689c-161.451 164.578-426.038 166.203-589.498 3.622Z" stroke="url(#d)" stroke-opacity=".28" stroke-width="2.5"/><path d="M169.315 604.311 60.842 496.421A198.75 198.75 0 0 1 2.251 355.505V2.25H1345.88L758.813 600.689c-161.451 164.578-426.038 166.203-589.498 3.622Z" stroke="url(#e)" stroke-opacity=".28" stroke-width="2.5"/><circle cx="161" cy="696" r="6" fill="#0175FF" stroke="#fff" stroke-width="4"/><path d="m1 4201.36 998.274-1008.45A400.022 400.022 0 0 0 1115 2911.5V1218.69c0-106.39 42.38-208.39 117.76-283.45L1761.26 409" stroke="url(#f)" stroke-linecap="square" stroke-dasharray="7.11 7.11"/><circle cx="1761" cy="409" r="6" fill="#0175FF" stroke="#fff" stroke-width="4"/><defs><linearGradient id="a" x1="1.009" y1="304" x2="1926.51" y2="304" gradientUnits="userSpaceOnUse"><stop stop-color="#0057FF" stop-opacity="0"/><stop offset=".237" stop-color="#0057FF"/><stop offset="1" stop-color="#0057FF"/></linearGradient><linearGradient id="b" x1="1927" y1="406.5" x2="1" y2="406.5" gradientUnits="userSpaceOnUse"><stop stop-color="#67ACFF"/><stop offset=".92" stop-color="#67ACFF"/><stop offset=".921" stop-color="#67ACFF" stop-opacity="0"/></linearGradient><linearGradient id="c" x1="502.501" y1="860" x2="1247.32" y2="-97.537" gradientUnits="userSpaceOnUse"><stop stop-color="#0185FF"/><stop offset=".14" stop-color="#0167FF" stop-opacity="0"/><stop offset=".251" stop-color="#0167FF" stop-opacity="0"/><stop offset="1" stop-color="#0185FF"/></linearGradient><linearGradient id="d" x1="492.001" y1="731" x2="339.731" y2="197.858" gradientUnits="userSpaceOnUse"><stop stop-color="#fff"/><stop offset=".755" stop-color="#fff" stop-opacity="0"/></linearGradient><linearGradient id="e" x1="68.501" y1="500" x2="68.501" y2="1" gradientUnits="userSpaceOnUse"><stop stop-color="#fff" stop-opacity="0"/><stop offset=".313" stop-color="#fff"/><stop offset=".66" stop-color="#fff" stop-opacity=".2"/><stop offset="1" stop-color="#fff" stop-opacity="0"/></linearGradient><linearGradient id="f" x1="960.75" y1="237" x2="960.75" y2="4171" gradientUnits="userSpaceOnUse"><stop offset=".044" stop-color="#67ACFF" stop-opacity="0"/><stop offset=".046" stop-color="#67ACFF"/><stop offset=".149" stop-color="#67ACFF"/><stop offset=".429" stop-color="#67ACFF" stop-opacity=".2"/><stop offset=".806" stop-color="#67ACFF"/><stop offset="1" stop-color="#67ACFF" stop-opacity="0"/></linearGradient></defs></svg>